#N canvas 729 65 642 943 10;
#X obj 69 28 inlet~;
#X obj 292 261 m_bpm2ms;
#X msg 260 307 1;
#X obj 260 216 t b b f;
#X obj 260 327 /;
#X obj 292 285 /;
#X obj 328 327 loadbang;
#X msg 260 369 freq \$1;
#X obj 124 68 int;
#X obj 124 89 change;
#X obj 124 47 / 4;
#X obj 124 109 mod 32;
#X obj 124 130 sel 0 8 16;
#X obj 124 156 44;
#X obj 154 156 41;
#X obj 184 156 43;
#X obj 124 406 s_buzz;
#X obj 124 447 hip~ 70;
#X obj 163 384 lop~ 40;
#N canvas 27 122 526 512 harmonics 0;
#X obj 172 184 *~;
#X obj 172 205 +~;
#X obj 172 235 *~;
#X obj 172 256 hip~ 1;
#X obj 172 54 inlet~;
#X obj 342 123 *~;
#X obj 305 156 *~;
#X obj 305 190 *~ 8;
#X obj 342 190 *~ 8;
#X obj 324 220 -~;
#X obj 324 262 hip~ 1;
#X obj 324 241 *~;
#X obj 378 221 lop~ 10;
#X obj 209 204 lop~ 10;
#X obj 171 317 +~;
#X obj 378 50 inlet;
#X obj 171 400 outlet~;
#X obj 171 355 clip~ -1 1;
#X obj 210 184 * 0.045;
#X obj 378 198 * 0.045;
#X connect 0 0 1 0;
#X connect 1 0 2 0;
#X connect 2 0 3 0;
#X connect 3 0 14 0;
#X connect 4 0 0 0;
#X connect 4 0 0 1;
#X connect 4 0 1 1;
#X connect 4 0 5 0;
#X connect 4 0 5 1;
#X connect 5 0 6 0;
#X connect 5 0 6 1;
#X connect 5 0 8 0;
#X connect 6 0 7 0;
#X connect 7 0 9 0;
#X connect 8 0 9 1;
#X connect 9 0 11 0;
#X connect 10 0 14 1;
#X connect 11 0 10 0;
#X connect 12 0 11 1;
#X connect 13 0 2 1;
#X connect 14 0 17 0;
#X connect 15 0 18 0;
#X connect 15 0 19 0;
#X connect 17 0 16 0;
#X connect 18 0 13 0;
#X connect 19 0 12 0;
#X restore 148 476 pd harmonics;
#X obj 283 510 sig~;
#X obj 124 560 e_softclip;
#X obj 434 260 swap 1;
#X obj 434 281 -;
#X obj 157 722 delwrite~ \$0-stereo 10;
#X obj 157 742 delread~ \$0-stereo 10;
#N canvas 0 22 258 439 WIDENER 0;
#X obj 28 46 inlet~;
#X obj 96 46 inlet~;
#X obj 28 399 outlet~;
#X obj 60 379 outlet~;
#X obj 28 86 +~;
#X obj 28 179 /~ 2;
#X obj 78 86 -~;
#X obj 78 179 *~;
#X obj 28 219 +~;
#X obj 60 219 -~;
#X obj 160 46 inlet;
#X obj 96 136 max 0;
#X obj 96 157 min 1;
#X obj 96 116 route width;
#X obj 28 351 *~;
#X obj 60 351 *~;
#X obj 78 248 swap 1;
#X obj 78 269 -;
#X obj 78 290 * 0.5;
#X obj 78 311 + 0.5;
#X obj 78 331 lop~ 10;
#X connect 0 0 4 0;
#X connect 0 0 6 0;
#X connect 1 0 4 1;
#X connect 1 0 6 1;
#X connect 4 0 5 0;
#X connect 5 0 8 0;
#X connect 5 0 9 0;
#X connect 6 0 7 0;
#X connect 7 0 8 1;
#X connect 7 0 9 1;
#X connect 8 0 14 0;
#X connect 9 0 15 0;
#X connect 10 0 13 0;
#X connect 11 0 12 0;
#X connect 12 0 7 1;
#X connect 12 0 16 0;
#X connect 13 0 11 0;
#X connect 14 0 2 0;
#X connect 15 0 3 0;
#X connect 16 0 17 0;
#X connect 16 1 17 1;
#X connect 17 0 18 0;
#X connect 18 0 19 0;
#X connect 19 0 20 0;
#X connect 20 0 15 1;
#X connect 20 0 14 1;
#X restore 124 805 pd WIDENER;
#X obj 191 764 r \$0-Stereo;
#X msg 191 785 width \$1;
#X obj 124 867 hip~ 60;
#X obj 191 868 hip~ 60;
#X obj 124 537 *~ 0.8;
#X obj 184 290 r \$0-Growl;
#X obj 434 235 r \$0-Distortion;
#X obj 434 323 + 1;
#X obj 214 20 r \$0-Wobble;
#X obj 214 62 int;
#X msg 309 422 phase 0.25;
#X msg 300 350 shape 0.6;
#X obj 292 306 / 1000;
#X obj 124 183 - 12;
#X obj 124 204 mtof;
#X msg 458 113 6;
#X msg 425 113 4;
#X msg 393 113 3;
#X msg 362 113 1.5;
#X msg 331 113 1;
#X msg 298 113 0.5;
#X msg 260 113 0.25;
#X obj 163 364 + 0.8;
#X obj 163 343 * 0.18;
#X obj 283 469 * 3;
#X obj 283 490 + 0.5;
#X obj 184 578 * 1200;
#X obj 184 599 + 300;
#X obj 27 385 mtof;
#X obj 27 406 s_osc \$0-a tri;
#X obj 214 41 * 8.99;
#X obj 27 364 f;
#X obj 27 428 *~ 0.7;
#X obj 537 282 + 0.4;
#X obj 486 259 moses 0.6;
#X obj 537 303 pack f 10;
#X obj 537 324 line;
#X obj 27 449 *~ 1;
#X obj 214 139 sel 0;
#X msg 214 160 0;
#X msg 329 375 depth \$1;
#X obj 214 181 pack f 1000;
#X obj 260 87 sel 1 2 3 4 5 6 7;
#X obj 214 202 line;
#X msg 246 159 0.6;
#X msg 330 397 depth 0.6;
#X obj 434 302 * 0.6;
#X obj 434 344 pack f 10;
#X obj 434 365 line;
#X obj 191 826 *~ 1;
#X obj 124 826 *~ 1;
#X obj 191 847 *~ 2.5;
#X obj 124 847 *~ 2.5;
#X obj 393 567 s \$0-Growl;
#X floatatom 407 536 5 0 0 0 - - -;
#X floatatom 462 513 5 0 0 0 - - -;
#X obj 448 544 s \$0-Distortion;
#X floatatom 462 585 5 0 0 0 - - -;
#X obj 448 616 s \$0-Wobble;
#X floatatom 386 620 5 0 0 0 - - -;
#X obj 372 651 s \$0-Stereo;
#X obj 124 618 wha 5;
#X obj 124 652 e_tremolo2;
#X obj 230 531 smad;
#X obj 124 27 r tick;
#X msg 292 240 140;
#X obj 318 748 loadbang;
#X msg 318 769 0.5;
#X obj 416 45 random 3;
#X obj 416 69 sel 0 1 2;
#X obj 416 22 r \$1-kick;
#X obj 124 891 throw~ track-\$1-LEFT;
#X obj 191 911 throw~ track-\$1-RIGHT;
#X connect 1 0 5 0;
#X connect 2 0 4 0;
#X connect 3 0 2 0;
#X connect 3 1 92 0;
#X connect 3 2 5 1;
#X connect 4 0 7 0;
#X connect 5 0 39 0;
#X connect 6 0 38 0;
#X connect 6 0 37 0;
#X connect 6 0 72 0;
#X connect 7 0 89 1;
#X connect 8 0 9 0;
#X connect 9 0 11 0;
#X connect 10 0 8 0;
#X connect 11 0 12 0;
#X connect 12 0 13 0;
#X connect 12 1 14 0;
#X connect 12 2 15 0;
#X connect 13 0 40 0;
#X connect 13 0 58 0;
#X connect 14 0 40 0;
#X connect 14 0 58 0;
#X connect 15 0 40 0;
#X connect 15 0 58 0;
#X connect 16 0 17 0;
#X connect 17 0 19 0;
#X connect 17 0 31 0;
#X connect 18 0 16 1;
#X connect 19 0 31 0;
#X connect 19 0 90 0;
#X connect 20 0 90 1;
#X connect 21 0 88 0;
#X connect 22 0 23 0;
#X connect 22 1 23 1;
#X connect 23 0 73 0;
#X connect 25 0 26 1;
#X connect 26 0 77 0;
#X connect 26 1 76 0;
#X connect 27 0 28 0;
#X connect 28 0 26 2;
#X connect 29 0 98 0;
#X connect 30 0 99 0;
#X connect 31 0 21 0;
#X connect 32 0 50 0;
#X connect 32 0 51 0;
#X connect 32 0 53 0;
#X connect 33 0 22 0;
#X connect 33 0 19 1;
#X connect 33 0 61 0;
#X connect 34 0 74 0;
#X connect 35 0 57 0;
#X connect 36 0 65 0;
#X connect 36 0 69 0;
#X connect 37 0 89 1;
#X connect 38 0 89 1;
#X connect 39 0 4 1;
#X connect 40 0 41 0;
#X connect 41 0 16 0;
#X connect 42 0 3 0;
#X connect 43 0 3 0;
#X connect 44 0 3 0;
#X connect 45 0 3 0;
#X connect 46 0 3 0;
#X connect 47 0 3 0;
#X connect 48 0 3 0;
#X connect 49 0 18 0;
#X connect 50 0 49 0;
#X connect 51 0 52 0;
#X connect 52 0 20 0;
#X connect 53 0 54 0;
#X connect 54 0 88 1;
#X connect 55 0 56 0;
#X connect 56 0 59 0;
#X connect 57 0 36 0;
#X connect 58 0 55 0;
#X connect 59 0 64 0;
#X connect 60 0 62 0;
#X connect 61 1 60 0;
#X connect 62 0 63 0;
#X connect 63 0 64 1;
#X connect 64 0 89 0;
#X connect 65 0 66 0;
#X connect 65 1 71 0;
#X connect 66 0 68 0;
#X connect 67 0 89 1;
#X connect 68 0 70 0;
#X connect 69 0 48 0;
#X connect 69 1 47 0;
#X connect 69 2 46 0;
#X connect 69 3 45 0;
#X connect 69 4 44 0;
#X connect 69 5 43 0;
#X connect 69 6 42 0;
#X connect 70 0 67 0;
#X connect 71 0 68 0;
#X connect 72 0 89 1;
#X connect 73 0 34 0;
#X connect 74 0 75 0;
#X connect 75 0 76 1;
#X connect 75 0 77 1;
#X connect 76 0 78 0;
#X connect 77 0 79 0;
#X connect 78 0 30 0;
#X connect 79 0 29 0;
#X connect 81 0 80 0;
#X connect 82 0 83 0;
#X connect 84 0 85 0;
#X connect 86 0 87 0;
#X connect 88 0 89 0;
#X connect 89 0 24 0;
#X connect 89 0 26 0;
#X connect 90 0 88 0;
#X connect 91 0 10 0;
#X connect 92 0 1 0;
#X connect 93 0 94 0;
#X connect 94 0 28 0;
#X connect 95 0 96 0;
#X connect 96 0 13 0;
#X connect 96 1 14 0;
#X connect 96 2 15 0;
#X connect 97 0 95 0;
