#N canvas 144 22 870 642 10;
#X obj 232 312 s_buzz;
#X obj 232 353 hip~ 70;
#X obj 271 290 lop~ 40;
#N canvas 27 122 526 512 harmonics 0;
#X obj 172 184 *~;
#X obj 172 205 +~;
#X obj 172 235 *~;
#X obj 172 256 hip~ 1;
#X obj 172 54 inlet~;
#X obj 342 123 *~;
#X obj 305 156 *~;
#X obj 305 190 *~ 8;
#X obj 342 190 *~ 8;
#X obj 324 220 -~;
#X obj 324 262 hip~ 1;
#X obj 324 241 *~;
#X obj 378 221 lop~ 10;
#X obj 209 204 lop~ 10;
#X obj 171 317 +~;
#X obj 378 50 inlet;
#X obj 171 400 outlet~;
#X obj 171 355 clip~ -1 1;
#X obj 209 162 * 0.045;
#X obj 378 178 * 0.045;
#X obj 378 200 sig~;
#X obj 209 184 sig~;
#X connect 0 0 1 0;
#X connect 1 0 2 0;
#X connect 2 0 3 0;
#X connect 3 0 14 0;
#X connect 4 0 0 0;
#X connect 4 0 0 1;
#X connect 4 0 1 1;
#X connect 4 0 5 0;
#X connect 4 0 5 1;
#X connect 5 0 6 0;
#X connect 5 0 6 1;
#X connect 5 0 8 0;
#X connect 6 0 7 0;
#X connect 7 0 9 0;
#X connect 8 0 9 1;
#X connect 9 0 11 0;
#X connect 10 0 14 1;
#X connect 11 0 10 0;
#X connect 12 0 11 1;
#X connect 13 0 2 1;
#X connect 14 0 17 0;
#X connect 15 0 18 0;
#X connect 15 0 19 0;
#X connect 17 0 16 0;
#X connect 18 0 21 0;
#X connect 19 0 20 0;
#X connect 20 0 12 0;
#X connect 21 0 13 0;
#X restore 256 382 pd harmonics;
#X obj 232 466 e_softclip;
#X obj 412 275 swap 1;
#X obj 412 296 -;
#X obj 232 443 *~ 0.8;
#X obj 271 197 r \$0-Growl;
#X obj 412 250 r \$0-Distortion;
#X obj 412 338 + 1;
#X obj 232 196 - 12;
#X obj 232 217 mtof;
#X obj 271 247 + 0.8;
#X obj 271 226 * 0.18;
#X obj 359 375 * 3;
#X obj 359 396 + 0.5;
#X obj 292 484 * 1200;
#X obj 292 505 + 300;
#X obj 135 291 mtof;
#X obj 135 312 s_osc \$0-a tri;
#X obj 135 334 *~ 0.7;
#X obj 515 297 + 0.4;
#X obj 464 274 moses 0.6;
#X obj 515 318 pack f 10;
#X obj 515 339 line;
#X obj 135 355 *~ 1;
#X obj 412 317 * 0.6;
#X obj 412 359 pack f 10;
#X obj 412 380 line;
#X obj 232 524 wha 5;
#X obj 337 452 smad;
#X obj 380 32 loadbang;
#X obj 342 92 u_dispatch \$0 Distortion;
#X obj 342 112 u_dispatch \$0 Growl;
#X obj 342 132 u_dispatch \$0 Stereo;
#X obj 342 56 inlet;
#X obj 135 550 *~ 1;
#X obj 38 130 inlet;
#X obj 135 576 outlet~;
#X obj 38 312 s_osc \$0-a sine;
#X obj 38 290 mtof;
#X obj 38 154 t f f f;
#X obj 38 334 *~ 1;
#X msg 380 56 Distortion 0.11 \, Growl 0.69 \, Stereo 0;
#X obj 271 269 sig~;
#X obj 38 268 - 12;
#X msg 359 418 amount \$1;
#X connect 0 0 1 0;
#X connect 1 0 3 0;
#X connect 1 0 7 0;
#X connect 2 0 0 1;
#X connect 3 0 7 0;
#X connect 3 0 31 0;
#X connect 4 0 30 0;
#X connect 5 0 6 0;
#X connect 5 1 6 1;
#X connect 6 0 27 0;
#X connect 7 0 4 0;
#X connect 8 0 14 0;
#X connect 8 0 15 0;
#X connect 8 0 17 0;
#X connect 9 0 5 0;
#X connect 9 0 3 1;
#X connect 9 0 23 0;
#X connect 10 0 28 0;
#X connect 11 0 12 0;
#X connect 12 0 0 0;
#X connect 13 0 45 0;
#X connect 14 0 13 0;
#X connect 15 0 16 0;
#X connect 16 0 47 0;
#X connect 17 0 18 0;
#X connect 18 0 30 1;
#X connect 19 0 20 0;
#X connect 20 0 21 0;
#X connect 21 0 26 0;
#X connect 22 0 24 0;
#X connect 23 1 22 0;
#X connect 24 0 25 0;
#X connect 25 0 26 1;
#X connect 26 0 37 0;
#X connect 27 0 10 0;
#X connect 28 0 29 0;
#X connect 29 0 37 1;
#X connect 30 0 37 0;
#X connect 31 0 30 0;
#X connect 32 0 44 0;
#X connect 33 0 34 0;
#X connect 34 0 35 0;
#X connect 36 0 33 0;
#X connect 37 0 39 0;
#X connect 38 0 42 0;
#X connect 40 0 43 0;
#X connect 41 0 40 0;
#X connect 42 0 46 0;
#X connect 42 1 19 0;
#X connect 42 2 11 0;
#X connect 43 0 37 0;
#X connect 44 0 33 0;
#X connect 45 0 2 0;
#X connect 46 0 41 0;
#X connect 47 0 31 1;
