#N canvas 512 141 644 639 10;
#X obj 380 32 loadbang;
#X obj 342 56 inlet;
#X obj 38 40 inlet;
#X obj 38 437 outlet~;
#X obj 38 64 t f f f;
#X obj 38 367 tabread4~ square;
#X obj 38 343 *~ 22679;
#X obj 38 320 phasor~;
#X obj 38 202 pow -12;
#X obj 77 174 / 12;
#X msg 38 174 2;
#X obj 38 146 t b f;
#X obj 158 367 tabread4~ square;
#X obj 158 343 *~ 22679;
#X obj 158 320 phasor~;
#X obj 268 367 tabread4~ square;
#X obj 268 343 *~ 22679;
#X obj 268 320 phasor~;
#X obj 38 414 *~ 1;
#X obj 38 106 - 35;
#X obj 378 367 tabread4~ square;
#X obj 378 343 *~ 22679;
#X obj 378 320 phasor~;
#X obj 173 274 * 2;
#X obj 158 296 * 2;
#X obj 268 296 * 4;
#X obj 283 274 * 4;
#X obj 378 295 * 8;
#X obj 393 274 * 8;
#X obj 173 183 + 1;
#X obj 173 207 - 1;
#X obj 173 229 swap 1;
#X obj 173 251 -;
#X obj 173 162 * 0.01;
#X obj 173 140 r \$0-Detune;
#X msg 380 56 Distortion 0 \,;
#X obj 342 92 u_dispatch \$0 Detune;
#X connect 0 0 35 0;
#X connect 1 0 36 0;
#X connect 2 0 4 0;
#X connect 4 0 19 0;
#X connect 5 0 18 0;
#X connect 6 0 5 0;
#X connect 7 0 6 0;
#X connect 8 0 7 0;
#X connect 8 0 24 0;
#X connect 8 0 25 0;
#X connect 8 0 27 0;
#X connect 9 0 8 1;
#X connect 10 0 8 0;
#X connect 11 0 10 0;
#X connect 11 1 9 0;
#X connect 12 0 18 0;
#X connect 13 0 12 0;
#X connect 14 0 13 0;
#X connect 15 0 18 0;
#X connect 16 0 15 0;
#X connect 17 0 16 0;
#X connect 18 0 3 0;
#X connect 19 0 11 0;
#X connect 20 0 18 0;
#X connect 21 0 20 0;
#X connect 22 0 21 0;
#X connect 23 0 24 1;
#X connect 24 0 14 0;
#X connect 25 0 17 0;
#X connect 26 0 25 1;
#X connect 27 0 22 0;
#X connect 28 0 27 1;
#X connect 29 0 28 0;
#X connect 29 0 26 0;
#X connect 29 0 30 0;
#X connect 30 0 31 0;
#X connect 31 0 32 0;
#X connect 31 1 32 1;
#X connect 32 0 23 0;
#X connect 33 0 29 0;
#X connect 34 0 33 0;
#X connect 35 0 36 0;
