#N canvas 868 305 644 639 10;
#X obj 471 19 loadbang;
#X obj 433 43 inlet;
#X obj 38 20 inlet;
#X obj 38 257 outlet~;
#X msg 471 43 Distortion 0 \,;
#X obj 433 79 u_dispatch \$0 Detune;
#X obj 38 148 osc~;
#X obj 38 93 mtof;
#X obj 88 148 osc~;
#X obj 88 93 mtof;
#X obj 142 160 vline~;
#X obj 38 227 *~;
#X obj 38 64 t f f f b;
#X obj 38 42 change;
#X msg 142 119 0 5 \, 1 5 5 \, 0 50 500;
#X obj 88 119 * 2;
#X obj 38 185 *~ 1;
#X connect 0 0 4 0;
#X connect 1 0 5 0;
#X connect 2 0 13 0;
#X connect 4 0 5 0;
#X connect 6 0 16 0;
#X connect 7 0 6 0;
#X connect 8 0 16 0;
#X connect 9 0 15 0;
#X connect 10 0 11 1;
#X connect 11 0 3 0;
#X connect 12 0 7 0;
#X connect 12 1 9 0;
#X connect 12 3 14 0;
#X connect 13 0 12 0;
#X connect 14 0 10 0;
#X connect 15 0 8 0;
#X connect 16 0 11 0;
