#N canvas 10 22 468 583 10;
#X obj 88 535 throw~ LEFT;
#X obj 88 507 *~;
#X obj 211 507 *~;
#X obj 211 535 throw~ RIGHT;
#X obj 226 481 line~;
#X obj 226 457 inlet;
#X obj 90 75 effect-send REVERB \$1;
#N canvas 649 137 639 539 build-delay 0;
#X obj 36 307 e_repeater;
#X msg 225 230 num 0;
#X msg 155 230 feedback 1;
#X msg 93 224 428.571;
#X obj 93 164 mod 4;
#X obj 93 193 sel 0;
#X msg 216 252 dry 0;
#X obj 384 290 hsl 128 15 0 5000 0 0 empty empty empty -2 -8 0 10 -262144
-1 -1 0 1;
#X floatatom 379 315 5 0 0 0 - - -, f 5;
#X obj 225 396 pack f 10;
#X obj 225 417 line;
#N canvas 0 22 450 300 megahip-with-q 0;
#X obj 111 84 hip~ 10;
#X obj 111 63 inlet~;
#X obj 111 104 hip~ 10;
#X obj 111 124 hip~ 10;
#X obj 111 144 hip~ 10;
#X obj 111 246 outlet~;
#X obj 197 28 inlet;
#X obj 197 174 sig~;
#X obj 174 218 *~;
#X obj 226 102 lop~ 10;
#X obj 174 197 vcf~ 1.4;
#X obj 226 58 / 400;
#X obj 226 80 sig~;
#X connect 0 0 2 0;
#X connect 1 0 0 0;
#X connect 2 0 3 0;
#X connect 3 0 4 0;
#X connect 4 0 5 0;
#X connect 4 0 10 0;
#X connect 6 0 0 1;
#X connect 6 0 2 1;
#X connect 6 0 3 1;
#X connect 6 0 4 1;
#X connect 6 0 7 0;
#X connect 6 0 11 0;
#X connect 7 0 10 1;
#X connect 8 0 5 0;
#X connect 9 0 8 1;
#X connect 10 0 8 0;
#X connect 11 0 12 0;
#X connect 12 0 9 0;
#X restore 36 425 pd megahip-with-q;
#X obj 225 375 * 400;
#X obj 225 327 loadbang;
#X msg 225 351 0;
#X obj 148 108 change;
#X obj 93 137 spigot;
#X obj 36 482 *~ 1;
#X obj 198 77 moses 10;
#X obj 243 105 moses 30;
#X obj 243 127 - 10;
#X obj 243 149 / 20;
#X obj 242 200 f;
#X msg 198 106 0;
#X msg 288 127 1;
#X obj 148 82 < 15;
#X obj 381 199 f;
#X msg 337 105 0;
#X obj 337 76 moses 30;
#X obj 382 104 moses 90;
#X obj 382 126 - 30;
#X obj 382 148 / 60;
#X msg 427 126 1;
#X obj 381 257 line;
#X msg 508 94 \$1 800.143;
#X obj 380 423 pipe 857.141;
#X obj 381 225 * 2500;
#X obj 380 397 r \$0-drop-repeater;
#X obj 507 72 r \$0-drop-filter;
#X obj 148 26 f;
#X obj 212 21 hsl 128 15 0 127 0 0 empty empty empty -2 -8 0 10 -262144
-1 -1 0 1;
#X obj 16 267 inlet~;
#X obj 16 512 outlet~;
#X obj 93 111 r tick;
#X obj 514 217 moses 10;
#X obj 559 245 moses 30;
#X obj 559 267 - 10;
#X obj 559 289 / 20;
#X msg 604 267 0;
#X obj 558 380 f;
#X obj 558 410 change;
#X msg 514 246 1;
#X msg 602 179 1;
#X obj 602 156 loadbang;
#X obj 558 317 swap 1;
#X obj 560 343 -;
#X obj 16 355 *~;
#X obj 558 472 lop~ 1;
#X obj 558 450 sig~;
#X connect 0 0 11 0;
#X connect 1 0 0 1;
#X connect 2 0 0 1;
#X connect 3 0 0 1;
#X connect 4 0 5 0;
#X connect 5 0 3 0;
#X connect 6 0 0 1;
#X connect 7 0 8 0;
#X connect 8 0 11 1;
#X connect 9 0 10 0;
#X connect 10 0 11 1;
#X connect 11 0 17 0;
#X connect 12 0 9 0;
#X connect 13 0 14 0;
#X connect 14 0 12 0;
#X connect 15 0 16 1;
#X connect 16 0 4 0;
#X connect 17 0 42 0;
#X connect 18 0 23 0;
#X connect 18 1 19 0;
#X connect 19 0 20 0;
#X connect 19 1 24 0;
#X connect 20 0 21 0;
#X connect 21 0 22 0;
#X connect 22 0 17 1;
#X connect 23 0 22 0;
#X connect 24 0 22 0;
#X connect 25 0 15 0;
#X connect 26 0 36 0;
#X connect 27 0 26 0;
#X connect 28 0 27 0;
#X connect 28 1 29 0;
#X connect 29 0 30 0;
#X connect 29 1 32 0;
#X connect 30 0 31 0;
#X connect 31 0 26 0;
#X connect 32 0 26 0;
#X connect 33 0 7 0;
#X connect 34 0 33 0;
#X connect 35 0 17 1;
#X connect 36 0 33 0;
#X connect 37 0 35 0;
#X connect 38 0 34 0;
#X connect 39 0 18 0;
#X connect 39 0 25 0;
#X connect 39 0 28 0;
#X connect 39 0 44 0;
#X connect 40 0 39 0;
#X connect 41 0 0 0;
#X connect 41 0 56 0;
#X connect 43 0 16 0;
#X connect 44 0 51 0;
#X connect 44 1 45 0;
#X connect 45 0 46 0;
#X connect 45 1 48 0;
#X connect 46 0 47 0;
#X connect 47 0 54 0;
#X connect 48 0 49 0;
#X connect 49 0 50 0;
#X connect 50 0 58 0;
#X connect 51 0 49 0;
#X connect 52 0 58 0;
#X connect 53 0 52 0;
#X connect 54 0 55 0;
#X connect 54 1 55 1;
#X connect 55 0 49 0;
#X connect 56 0 42 0;
#X connect 57 0 56 1;
#X connect 58 0 57 0;
#X restore 255 168 pd build-delay;
#X obj 90 19 catch~ track-\$1-LEFT-OUT;
#X obj 213 42 catch~ track-\$1-RIGHT-OUT;
#X connect 1 0 0 0;
#X connect 2 0 3 0;
#X connect 4 0 2 1;
#X connect 4 0 1 1;
#X connect 5 0 4 0;
#X connect 8 0 6 0;
#X connect 8 0 1 0;
#X connect 9 0 6 1;
#X connect 9 0 2 0;
