#N canvas 154 55 1051 758 10;
#X obj 551 329 + 1;
#X obj 551 352 mod 4;
#X obj 578 297 list length;
#X obj 578 327 / 3;
#X text 606 328 // num args in chordDescription;
#X text 590 352 // num of chords in a bar;
#N canvas 80 22 859 765 scaleTables 0;
#X text 565 387 0;
#X text 565 367 C;
#X text 585 347 1;
#X text 585 327 Db;
#X text 605 367 D;
#X text 625 327 Eb;
#X text 605 387 2;
#X text 625 347 3;
#X text 645 367 E;
#X text 665 367 F;
#X text 685 327 Gb;
#X text 705 367 G;
#X text 645 387 4;
#X text 665 387 5;
#X text 685 347 6;
#X text 705 387 7;
#X text 725 327 Ab;
#X text 745 367 A;
#X text 765 327 Bb;
#X text 785 367 B;
#X text 725 347 8;
#X text 745 387 9;
#X text 765 347 10;
#X text 785 387 11;
#X obj 23 35 loadbang;
#X obj 23 81 s \$1-maj;
#X obj 23 104 table \$1-maj 7;
#X obj 23 154 loadbang;
#X text 23 15 Ionian;
#X obj 23 200 s \$1-sus;
#X obj 23 223 table \$1-sus 7;
#X msg 23 58 0 0 2 4 5 7 9 11;
#X msg 23 177 0 0 2 5 5 7 9 11;
#X obj 23 275 loadbang;
#X obj 23 394 loadbang;
#X text 23 255 Dorian;
#X text 23 374 Aeolian;
#X obj 23 321 s \$1-min;
#X obj 23 440 s \$1-minb6;
#X obj 23 463 table \$1-minb6 7;
#X obj 23 344 table \$1-min 7;
#X msg 23 298 0 0 2 3 5 7 9 10;
#X msg 23 417 0 0 2 3 5 7 8 10;
#X obj 23 635 loadbang;
#X obj 193 35 loadbang;
#X text 23 615 Locrian;
#X text 193 15 Lydian;
#X obj 23 704 table \$1-min7b5b9 7;
#X obj 23 681 s \$1-min7b5b9;
#X obj 193 81 s \$1-maj7#11;
#X obj 193 104 table \$1-maj7#11 7;
#X msg 23 658 0 0 1 3 5 6 8 10;
#X msg 193 58 0 0 2 4 6 7 9 11;
#X obj 193 154 loadbang;
#X obj 193 273 loadbang;
#X obj 193 394 loadbang;
#X obj 193 513 loadbang;
#X obj 351 35 loadbang;
#X obj 351 154 loadbang;
#X obj 193 200 s \$1-7#11;
#X obj 193 223 table \$1-7#11 7;
#X text 193 253 Mixolydian;
#X text 23 134 Ionian Sus;
#X text 193 374 Dominant Sus;
#X text 193 493 Half Diminished;
#X text 193 134 Lydian Dominant;
#X msg 193 177 0 0 2 4 6 7 9 10;
#X obj 193 342 table \$1-dom7 7;
#X obj 193 319 s \$1-dom7;
#X msg 193 296 0 0 2 4 5 7 9 10;
#X msg 193 417 0 0 2 5 5 7 9 10;
#X obj 193 559 s \$1-m7b5;
#X obj 193 582 table \$1-m7b5 7;
#X msg 193 536 0 0 2 3 5 6 8 10;
#X obj 351 81 s \$1-dim7;
#X text 351 134 Altered;
#X msg 351 177 0 0 1 3 4 6 8 10;
#X obj 353 275 loadbang;
#X obj 353 394 loadbang;
#X obj 353 515 loadbang;
#X obj 353 634 loadbang;
#X text 353 255 Melodic Minor;
#X text 353 495 Whole Tone;
#X text 353 614 Phrygian;
#X obj 353 584 table \$1-7aug 7;
#X obj 353 463 table \$1-minb6#7 7;
#X obj 353 440 s \$1-minb6#7;
#X obj 353 561 s \$1-7aug;
#X obj 353 344 table \$1-minmaj7 7;
#X obj 353 321 s \$1-minmaj7;
#X text 353 374 Harmonic Minor;
#X msg 353 298 0 0 2 3 5 7 9 11;
#X msg 353 417 0 0 2 3 5 7 8 11;
#X msg 353 538 0 0 2 4 6 8 10 10;
#X msg 353 657 0 0 1 3 5 7 8 10;
#X obj 501 35 loadbang;
#X text 501 15 Phrygian Dominant;
#X obj 501 81 s \$1-7b9b13;
#X obj 501 104 table \$1-7b9b13 7;
#X msg 501 58 0 0 1 4 5 7 8 10;
#X obj 23 514 loadbang;
#X msg 23 537 0 0 2 3 5 7 8 10;
#X text 23 494 Aeolian Dom;
#X obj 193 634 loadbang;
#X text 193 614 Diminished;
#X msg 193 657 0 0 1 3 4 6 7 9;
#X text 351 15 Diminished 2;
#X obj 351 104 table \$1-dim7 7;
#X obj 193 703 table \$1-7b913 7;
#X msg 351 58 0 0 2 3 5 6 8 9;
#X obj 353 680 s \$1-minb2;
#X obj 353 703 table \$1-minb2 7;
#X obj 351 223 table \$1-7alt 7;
#X obj 351 200 s \$1-7alt;
#X obj 23 583 table \$1-7b6 7;
#X obj 23 560 s \$1-7b6;
#X obj 193 440 s \$1-7sus4;
#X obj 193 463 table \$1-7sus4 7;
#X obj 193 680 s \$1-7b913;
#X connect 24 0 31 0;
#X connect 27 0 32 0;
#X connect 31 0 25 0;
#X connect 32 0 29 0;
#X connect 33 0 41 0;
#X connect 34 0 42 0;
#X connect 41 0 37 0;
#X connect 42 0 38 0;
#X connect 43 0 51 0;
#X connect 44 0 52 0;
#X connect 51 0 48 0;
#X connect 52 0 49 0;
#X connect 53 0 66 0;
#X connect 54 0 69 0;
#X connect 55 0 70 0;
#X connect 56 0 73 0;
#X connect 57 0 109 0;
#X connect 58 0 76 0;
#X connect 66 0 59 0;
#X connect 69 0 68 0;
#X connect 70 0 116 0;
#X connect 73 0 71 0;
#X connect 76 0 113 0;
#X connect 77 0 91 0;
#X connect 78 0 92 0;
#X connect 79 0 93 0;
#X connect 80 0 94 0;
#X connect 91 0 89 0;
#X connect 92 0 86 0;
#X connect 93 0 87 0;
#X connect 94 0 110 0;
#X connect 95 0 99 0;
#X connect 99 0 97 0;
#X connect 100 0 101 0;
#X connect 101 0 115 0;
#X connect 103 0 105 0;
#X connect 105 0 118 0;
#X connect 109 0 74 0;
#X restore 41 413 pd scaleTables;
#N canvas 633 120 1216 848 loadChords 0;
#X msg 148 162 rewind;
#X obj 148 206 textfile;
#X msg 358 153 bang;
#X obj 392 285 u_collect;
#X msg 375 318 addcomma;
#X obj 265 351 list;
#X obj 358 252 t b b a a;
#X obj 265 381 list split 1;
#X obj 527 343 r \$0-CHORDS-getChordList;
#X obj 527 373 t b;
#X obj 527 619 s \$0-CHORDS-chordList;
#X obj 226 630 route 0;
#X obj 226 600 r \$0-CHORDS-chordList;
#X obj 193 705 s \$0-CHORDS-getChordList;
#X text 715 380 // chord list from .txt file;
#X obj 193 250 t b b;
#X msg 701 341 set;
#X obj 148 132 t b a b;
#X msg 201 162 read \$1;
#X obj 358 19 inlet chordsFile;
#X obj 226 670 outlet \$1-CHORDS-chordProgrList;
#X obj 358 41 symbol;
#X obj 636 193 outlet;
#X obj 358 69 t b a b a;
#X obj 636 163 list trim;
#X obj 636 133 list prepend LOADING;
#X msg 527 403 1 0 minb6 -1 -5 minb2 -1 -4 maj7#11 -1 5 min -1 \, 2
0 minb6 -1 0 minb6 -1 0 minb6 -1 0 minb6 -1 \, 3 0 minb6 -1 -4 maj7#11
-1 5 min -1 -5 minb2 -1 \, 4 0 minb6 -1 -4 maj7#11 0 0 minb6 -1 -4
maj7#11 0 \, 5 0 minb6 -1 -4 maj7#11 -1 5 min -1 1 maj7#11 -1 \, 6
0 minb6 -1 -4 maj7#11 -1 5 min -1 1 7#11 -1 \, 7 0 minb6 -1 4 maj -1
-4 maj7#11 -1 -5 7b9b13 -1 \, 8 5 min -1 -4 maj7#11 -1 -2 dom7 -1 0
minb6 -1 \, 9 0 minb6 -1 -4 maj7#11 -1 -2 7#11 -1 0 maj -1 \, 10 0
min -1 -2 maj -1 0 min -1 -5 7b913 -1 \, 11 0 minb6 -1 -2 dom7 -1 -3
min -1 -5 7alt -1 \, 12 0 minb6 -1 3 dom7 -1 -4 maj -1 1 7#11 -1 \,
13 0 min -1 2 min -1 0 min 3 2 minb2 5 \, 14 0 min -1 -5 minb6 -1 -2
maj -1 5 dom7 -1 \, 15 0 minb6 -1 3 maj -1 -4 maj7#11 -1 -2 dom7 -1
\,;
#X obj 265 456 v \$1-CHORDS-progressionIndex;
#X obj 265 486 *;
#X obj 265 516 + 0.4999;
#X obj 265 546 int;
#X obj 265 426 t b f;
#X obj 265 403 - 1;
#X obj 265 568 + 1;
#X connect 0 0 1 0;
#X connect 1 0 6 0;
#X connect 1 1 15 0;
#X connect 2 0 1 0;
#X connect 3 0 26 0;
#X connect 4 0 26 0;
#X connect 5 0 7 0;
#X connect 6 0 2 0;
#X connect 6 1 4 0;
#X connect 6 2 3 0;
#X connect 6 3 5 1;
#X connect 7 0 32 0;
#X connect 8 0 9 0;
#X connect 9 0 26 0;
#X connect 11 0 20 0;
#X connect 12 0 11 0;
#X connect 15 0 13 0;
#X connect 15 1 5 0;
#X connect 16 0 26 0;
#X connect 17 0 0 0;
#X connect 17 1 18 0;
#X connect 17 2 16 0;
#X connect 18 0 1 0;
#X connect 19 0 21 0;
#X connect 21 0 23 0;
#X connect 23 0 2 0;
#X connect 23 1 17 0;
#X connect 23 2 3 1;
#X connect 23 3 25 0;
#X connect 24 0 22 0;
#X connect 25 0 24 0;
#X connect 26 0 10 0;
#X connect 27 0 28 0;
#X connect 28 0 29 0;
#X connect 29 0 30 0;
#X connect 30 0 33 0;
#X connect 31 0 27 0;
#X connect 31 1 28 1;
#X connect 32 0 31 0;
#X connect 33 0 11 1;
#X restore 41 216 pd loadChords;
#X obj 41 66 r \$1-INIT-bang;
#X text 38 387 ------------------------------------------------------------
;
#X text 38 37 ------------------------------------------------------------
;
#X text 38 27 Load Chord Progressions From Text File;
#X text 488 37 ------------------------------------------------------------
;
#X text 488 27 Set Next Chord From Chord Progression;
#X obj 502 141 > 0;
#X obj 502 171 sel 1;
#X obj 502 81 r \$1-MIDI-chords;
#X obj 502 329 f 0;
#X msg 550 237 0;
#X obj 502 392 s \$1-CHORDS-currentChordIndex;
#X obj 550 211 r \$1-CHORDS-resetIndex;
#X obj 80 270 print CHORDS;
#X obj 60 300 s \$1-CHORDS-resetIndex;
#X obj 41 246 t a b a;
#X obj 41 330 s \$1-CHORDS-chordProgrList;
#X obj 578 267 r \$1-CHORDS-chordProgrList;
#X text 535 142 // Velocity input;
#X obj 41 96 v \$1-TIMEBASE-BPM;
#X obj 86 128 r \$1-CHORDS-maj/min;
#X obj 41 158 pack f s;
#X obj 502 113 route 127;
#X obj 42 550 v \$1-CHORDS-keyCenter;
#X text 38 467 ------------------------------------------------------------
;
#X text 38 457 Key Centre;
#X obj 42 495 r \$1-INIT-bang;
#X obj 42 572 print keyCenter;
#X obj 176 572 print progressionIndex;
#X obj 176 550 v \$1-CHORDS-progressionIndex;
#X obj 42 517 t b b b;
#N canvas 262 107 353 375 OverallSaturation 0;
#X obj 42 39 inlet;
#X obj 117 100 outlet otherMessages;
#X obj 42 68 route 1-0-0-S;
#X text 133 69 // Overall Saturation;
#X obj 42 101 * 11.499;
#X obj 42 131 int;
#X obj 42 328 v \$1-CHORDS-keyCenter;
#X obj 42 153 t f f;
#X obj 68 178 > 6;
#X obj 68 200 * -12;
#X obj 42 225 +;
#X floatatom 76 224 5 0 0 0 - - -, f 5;
#X obj 57 304 s \$1-key-centre;
#X obj 42 277 + 5;
#X obj 57 251 r \$1-vox-key;
#X connect 0 0 2 0;
#X connect 2 0 4 0;
#X connect 2 1 1 0;
#X connect 4 0 5 0;
#X connect 5 0 7 0;
#X connect 7 0 10 0;
#X connect 7 1 8 0;
#X connect 8 0 9 0;
#X connect 9 0 10 1;
#X connect 10 0 11 0;
#X connect 10 0 13 0;
#X connect 13 0 6 0;
#X connect 13 0 12 0;
#X connect 14 0 13 1;
#X restore 459 624 pd OverallSaturation -> Key Center;
#N canvas 652 246 370 471 OverallBrightness 0;
#X obj 42 39 inlet;
#X obj 117 100 outlet otherMessages;
#X obj 42 68 route 1-0-0-V;
#X obj 42 262 sel 0 1;
#X obj 42 358 s \$1-CHORDS-maj/min;
#X msg 42 294 MINOR;
#X obj 42 326 symbol;
#X msg 92 294 MAJOR;
#X text 133 69 // Overall Brightness;
#X text 91 329 // Chord Sequence Tonality;
#X obj 61 194 v \$1-CHORDS-progressionIndex;
#X obj 42 230 >= 0.5;
#X obj 42 120 t f f f;
#X obj 81 152 v \$1-CONTROLLER-overallBrightness;
#X connect 0 0 2 0;
#X connect 2 0 12 0;
#X connect 2 1 1 0;
#X connect 3 0 5 0;
#X connect 3 1 7 0;
#X connect 5 0 6 0;
#X connect 6 0 4 0;
#X connect 7 0 6 0;
#X connect 11 0 3 0;
#X connect 12 0 11 0;
#X connect 12 1 10 0;
#X connect 12 2 13 0;
#X restore 459 594 pd OverallBrightness -> Chord Tonality / Progrssn
Index;
#X obj 440 713 s \$1-INIT-bang;
#X text 38 377 Chord Scale Tables;
#N canvas 463 27 358 238 16thBottomLeftOfMiddleSV 0;
#X obj 42 39 inlet;
#X obj 177 100 outlet otherMessages;
#X text 85 40 // Bottom-left-of-middle 16th;
#X obj 109 168 v \$1-CONTROLLER-bassMIDIIndex;
#X obj 42 138 v \$1-CONTROLLER-bassSound;
#X obj 42 68 route 16-1-3-S 16-1-3-V;
#X connect 0 0 5 0;
#X connect 5 0 4 0;
#X connect 5 1 3 0;
#X connect 5 2 1 0;
#X restore 459 657 pd 16thBottomLeftOfMiddleSV -> Bass Parameters;
#N canvas 542 246 600 373 16thBottomRightSVRGB 0;
#X obj 42 39 inlet;
#X obj 339 95 outlet otherMessages;
#X text 86 39 // Bottom-right 16th;
#X obj 160 271 s \$1-MIX-busControl;
#X obj 187 293 s \$1-EXTERN-toGUI;
#X obj 160 241 t a a;
#X obj 42 118 v \$1-CONTROLLER-chordsSound;
#X obj 101 147 v \$1-CONTROLLER-chordsMIDIIndex;
#X msg 160 179 chords->reverb \$1;
#X msg 220 209 chords->stereoDelay \$1;
#X obj 279 237 v \$1-CONTROLLER-chordsSoundType;
#X obj 42 68 route 16-3-3-S 16-3-3-V 16-3-3-R 16-3-3-G 16-3-3-B;
#X connect 0 0 11 0;
#X connect 5 0 3 0;
#X connect 5 1 4 0;
#X connect 8 0 5 0;
#X connect 9 0 5 0;
#X connect 11 0 6 0;
#X connect 11 1 7 0;
#X connect 11 2 8 0;
#X connect 11 3 9 0;
#X connect 11 4 10 0;
#X connect 11 5 1 0;
#X restore 459 687 pd 16thBottomRightSVRGB -> Chords Parameters;
#X msg 459 567 1-0-0-V \$1 \, 1-0-0-S \$2 \, 16-1-3-V \$3 \, 16-3-3-V
\$4;
#X obj 459 538 pack f f f f f;
#X obj 440 459 t b b b b b;
#N canvas 0 22 447 398 controller 0;
#X obj 63 150 s \$1-INIT-mainMixVol;
#X obj 83 84 s \$1-INIT-bang;
#X obj 44 24 r \$1-CONTROLLER-init;
#X obj 44 54 t b b b;
#X obj 44 326 s \$1-TIMEBASE-metroStartStop;
#X msg 44 304 1;
#X msg 63 128 1 20;
#X obj 44 284 del 20;
#X obj 44 190 t b b;
#X obj 71 240 s \$1-RENDERMANGER-recordStartStop;
#X msg 71 220 start;
#X text 114 220 // Start recording;
#X text 79 305 // Start tick;
#X text 99 129 // Fade up;
#X obj 236 32 bng 15 250 50 0 empty empty empty 17 7 0 10 -262144 -1
-1;
#X connect 2 0 3 0;
#X connect 3 0 8 0;
#X connect 3 1 6 0;
#X connect 3 2 1 0;
#X connect 5 0 4 0;
#X connect 6 0 0 0;
#X connect 7 0 5 0;
#X connect 8 0 7 0;
#X connect 8 1 10 0;
#X connect 10 0 9 0;
#X connect 14 0 3 0;
#X restore 265 147 pd controller;
#X obj 165 49 loadbang;
#X obj 165 91 f 140;
#X msg 41 186 ../resources/chords/\$1-\$2.txt;
#X obj 162 71 t b b;
#X obj 168 153 symbol MINOR;
#X obj 235 264 print chordProgr;
#X obj 440 436 r generate-track-\$1;
#X obj 459 489 random 100;
#X obj 459 512 / 100;
#X obj 599 489 random 100;
#X obj 599 512 / 100;
#X obj 669 488 random 100;
#X obj 669 511 / 100;
#X obj 486 202 bng 15 250 50 0 empty empty empty 17 7 0 10 -262144
-1 -1;
#X floatatom 493 359 5 0 0 0 - - -, f 5;
#X obj 223 85 bng 15 250 50 0 empty empty empty 17 7 0 10 -262144 -1
-1;
#X msg 41 124 140;
#X obj 529 488 random 1;
#X obj 529 511 / 1;
#X connect 0 0 1 0;
#X connect 1 0 17 1;
#X connect 2 0 3 0;
#X connect 3 0 1 1;
#X connect 7 0 23 0;
#X connect 7 1 21 0;
#X connect 8 0 27 0;
#X connect 14 0 15 0;
#X connect 15 0 17 0;
#X connect 15 0 62 0;
#X connect 16 0 30 0;
#X connect 17 0 0 0;
#X connect 17 0 19 0;
#X connect 17 0 63 0;
#X connect 18 0 17 0;
#X connect 20 0 18 0;
#X connect 23 0 24 0;
#X connect 23 0 54 0;
#X connect 23 1 22 0;
#X connect 23 2 21 0;
#X connect 25 0 2 0;
#X connect 27 0 65 0;
#X connect 29 0 51 0;
#X connect 30 0 14 0;
#X connect 31 0 35 0;
#X connect 34 0 38 0;
#X connect 37 0 36 0;
#X connect 38 0 31 0;
#X connect 38 1 37 0;
#X connect 39 0 43 0;
#X connect 40 0 39 0;
#X connect 43 0 44 0;
#X connect 45 0 40 0;
#X connect 46 0 45 0;
#X connect 47 0 41 0;
#X connect 47 1 56 0;
#X connect 47 2 66 0;
#X connect 47 3 58 0;
#X connect 47 4 60 0;
#X connect 49 0 52 0;
#X connect 50 0 29 0;
#X connect 51 0 7 0;
#X connect 52 0 50 0;
#X connect 52 1 53 0;
#X connect 53 0 29 1;
#X connect 55 0 47 0;
#X connect 56 0 57 0;
#X connect 57 0 46 0;
#X connect 58 0 59 0;
#X connect 59 0 46 2;
#X connect 60 0 61 0;
#X connect 61 0 46 3;
#X connect 64 0 52 0;
#X connect 65 0 29 0;
#X connect 66 0 67 0;
#X connect 67 0 46 1;
