#N canvas 300 22 604 774 10;
#X obj 93 195 t a a;
#X obj 55 361 +;
#X obj 55 234 mod 7;
#X obj 120 234 div 7;
#X obj 55 319 tabread \$1-maj;
#X obj 55 511 +;
#X obj 259 189 pack s \$1;
#X msg 259 219 set \$2-\$1;
#X obj 120 266 * 12;
#X obj 27 95 unpack f f;
#N canvas 0 22 436 381 convertMajorToKeyless 0;
#X obj 279 137 / 12;
#X obj 279 167 int;
#X obj 51 137 select 0 1 2 3 4 5 6 7 8 9 10 11;
#X obj 51 107 mod 12;
#X msg 51 184 0;
#X msg 82 184 1;
#X msg 114 184 2;
#X msg 144 184 3;
#X msg 175 184 4;
#X msg 206 184 5;
#X msg 237 184 6;
#X obj 51 77 t f f;
#X obj 264 234 +;
#X obj 264 264 outlet;
#X obj 51 47 inlet;
#X obj 279 197 * 7;
#X connect 0 0 1 0;
#X connect 1 0 15 0;
#X connect 2 0 4 0;
#X connect 2 1 4 0;
#X connect 2 2 5 0;
#X connect 2 3 6 0;
#X connect 2 4 6 0;
#X connect 2 5 7 0;
#X connect 2 6 7 0;
#X connect 2 7 8 0;
#X connect 2 8 8 0;
#X connect 2 9 9 0;
#X connect 2 10 9 0;
#X connect 2 11 10 0;
#X connect 3 0 2 0;
#X connect 4 0 12 0;
#X connect 5 0 12 0;
#X connect 6 0 12 0;
#X connect 7 0 12 0;
#X connect 8 0 12 0;
#X connect 9 0 12 0;
#X connect 10 0 12 0;
#X connect 11 0 3 0;
#X connect 11 1 0 0;
#X connect 12 0 13 0;
#X connect 14 0 11 0;
#X connect 15 0 12 1;
#X restore 27 132 pd convertMajorToKeyless;
#X obj 225 89 r \$1-CHORDS-chordProgrList;
#X obj 225 326 +;
#X obj 225 261 t f b;
#X obj 27 25 inlet;
#N canvas 0 22 447 700 currentChordFromChordProgressionList 0;
#X obj 193 201 list length;
#X obj 91 503 u_listnth;
#X obj 205 411 + 1;
#X obj 154 504 u_listnth;
#X obj 166 171 t a a;
#X obj 91 291 list;
#X obj 218 504 u_listnth;
#X obj 178 351 * 3;
#X obj 193 231 / 3;
#X obj 91 321 t a a a;
#X obj 178 321 min;
#X obj 91 241 t b f;
#X obj 178 381 t f f;
#X obj 205 441 t f f;
#X obj 193 291 - 1;
#X obj 154 537 symbol;
#X obj 193 261 t f f;
#X obj 91 211 mod 4;
#X obj 91 141 t b a;
#X obj 91 181 f \$2;
#X obj 91 609 list trim;
#X obj 269 476 + 1;
#X obj 91 104 inlet;
#X obj 91 641 outlet;
#X obj 170 106 inlet;
#X obj 91 579 pack f s f;
#X obj 218 539 f;
#X connect 0 0 8 0;
#X connect 1 0 25 0;
#X connect 2 0 13 0;
#X connect 3 0 15 0;
#X connect 4 0 5 1;
#X connect 4 1 0 0;
#X connect 5 0 9 0;
#X connect 6 0 26 0;
#X connect 7 0 12 0;
#X connect 8 0 16 0;
#X connect 9 0 1 0;
#X connect 9 1 3 0;
#X connect 9 2 6 0;
#X connect 10 0 7 0;
#X connect 11 0 5 0;
#X connect 11 1 10 0;
#X connect 12 0 1 1;
#X connect 12 1 2 0;
#X connect 13 0 3 1;
#X connect 13 1 21 0;
#X connect 14 0 10 1;
#X connect 15 0 25 1;
#X connect 16 0 14 0;
#X connect 16 1 17 1;
#X connect 17 0 11 0;
#X connect 18 0 19 0;
#X connect 18 1 4 0;
#X connect 19 0 17 0;
#X connect 20 0 23 0;
#X connect 21 0 6 1;
#X connect 22 0 18 0;
#X connect 24 0 19 1;
#X connect 25 0 20 0;
#X connect 26 0 25 2;
#X restore 225 129 pd currentChordFromChordProgressionList;
#X obj 456 81 loadbang;
#X text 494 104 // chordIndex;
#X obj 27 57 route chord\$2;
#X obj 27 167 t f f;
#X obj 27 570 pack f f f;
#X obj 108 659 outlet;
#X obj 27 659 outlet;
#X obj 157 25 inlet;
#X obj 157 47 unpack f f;
#X obj 456 103 f \$2;
#X obj 108 570 r \$1-CHORDS-reset;
#X obj 108 592 t b;
#X obj 225 159 unpack f s f;
#X obj 55 451 -;
#X obj 342 196 sel -1;
#X obj 342 240 f;
#X msg 342 325 12 \$1;
#X obj 342 357 -;
#X msg 342 218 12;
#X text 391 198 Slash Extension;
#X obj 27 621 u_storechord64;
#X obj 55 391 sel 0;
#X msg 55 421 0;
#X obj 55 481 t f;
#X obj 252 292 v \$1-CHORDS-keyCenter;
#X connect 0 0 2 0;
#X connect 0 1 3 0;
#X connect 1 0 37 0;
#X connect 2 0 4 0;
#X connect 3 0 8 0;
#X connect 4 0 1 0;
#X connect 5 0 20 1;
#X connect 6 0 7 0;
#X connect 7 0 4 0;
#X connect 8 0 1 1;
#X connect 9 0 10 0;
#X connect 9 1 20 2;
#X connect 10 0 19 0;
#X connect 11 0 15 0;
#X connect 12 0 5 1;
#X connect 13 0 12 0;
#X connect 13 1 40 0;
#X connect 14 0 18 0;
#X connect 15 0 28 0;
#X connect 16 0 25 0;
#X connect 18 0 9 0;
#X connect 19 0 20 0;
#X connect 19 1 0 0;
#X connect 20 0 36 0;
#X connect 23 0 24 0;
#X connect 24 0 19 0;
#X connect 24 1 20 2;
#X connect 25 0 15 1;
#X connect 26 0 27 0;
#X connect 27 0 36 1;
#X connect 28 0 13 0;
#X connect 28 1 6 0;
#X connect 28 2 30 0;
#X connect 29 0 39 0;
#X connect 30 0 34 0;
#X connect 30 1 31 0;
#X connect 31 0 32 0;
#X connect 32 0 33 0;
#X connect 33 0 29 1;
#X connect 34 0 31 0;
#X connect 36 0 22 0;
#X connect 36 1 21 0;
#X connect 37 0 38 0;
#X connect 37 1 39 0;
#X connect 38 0 29 0;
#X connect 39 0 5 0;
#X connect 40 0 12 1;
