#N canvas 326 70 551 744 10;
#X obj 47 305 phasor~;
#X obj 48 345 *~ -1;
#X obj 48 367 +~ 1;
#X obj 137 400 sig~ 1;
#X obj 155 381 cos~;
#X obj 137 422 -~;
#X obj 137 442 *~ 0.5;
#X obj 48 472 *~;
#X obj 66 409 samphold~;
#X obj 48 429 *~;
#X obj 137 291 / 44.1;
#X obj 242 391 *~ -1;
#X obj 242 414 +~ 1;
#X obj 334 440 sig~ 1;
#X obj 352 420 cos~;
#X obj 334 461 -~;
#X obj 334 482 *~ 0.5;
#X obj 242 528 *~;
#X obj 260 455 samphold~;
#X obj 242 476 *~;
#X obj 242 344 +~ 0.5;
#X obj 242 366 wrap~;
#X msg 47 167 2;
#X obj 47 195 pow;
#X obj 47 135 t b f;
#X obj 79 167 / 12;
#X obj 47 216 - 1;
#X obj 47 284 *;
#X obj 80 196 t b f;
#X obj 80 239 /;
#X obj 57 261 t b f;
#X obj 66 390 sig~;
#X obj 260 436 sig~;
#X obj 137 155 line;
#X msg 137 134 \$1 1500;
#X obj 48 645 e_pan;
#X obj 242 608 *~ 0.85;
#X obj 137 113 + 350;
#X obj 80 218 samplerate~;
#X obj 340 301 inlet~;
#X obj 106 693 outlet~;
#X obj 48 693 outlet~;
#X obj 140 66 hsl 128 15 0 4 0 0 empty empty empty -2 -8 0 10 -262144
-1 -1 6350 1;
#X obj 137 92 * 29650;
#X obj 296 564 hsl 128 15 0 1 0 0 empty empty empty -2 -8 0 10 -262144
-1 -1 6350 1;
#X obj 293 584 * 0.99;
#X obj 80 508 metro 15;
#X obj 80 529 random 100;
#X obj 80 550 / 100;
#X obj 80 490 tgl 15 0 empty empty empty 17 7 0 10 -262144 -1 -1 1
1;
#X floatatom 133 492 5 0 0 0 - - -, f 5;
#X obj 94 646 e_reverb rev1;
#X obj 137 24 loadbang;
#X msg 137 45 2;
#X obj 340 322 *~ 0.99;
#X obj 48 603 hip~ 5;
#X obj 293 521 loadbang;
#X msg 293 542 0.5;
#X obj 80 470 loadbang;
#X msg 216 698 amp 90 \, hall 90 \, freq 3000 \, damp 50;
#X obj 216 676 loadbang;
#X obj 48 561 *~ 1.5;
#X floatatom 240 113 5 0 0 0 - - -, f 5;
#X obj 502 31 inlet;
#X floatatom 33 59 5 0 0 0 - - -, f 5;
#X obj 48 582 lop~ 2500;
#X obj 242 642 delwrite~ \$0-b1 5000;
#X obj 242 498 vd~ \$0-b1;
#X obj 48 450 vd~ \$0-b1;
#X msg 47 109 12;
#X connect 0 0 1 0;
#X connect 0 0 4 0;
#X connect 0 0 8 1;
#X connect 0 0 20 0;
#X connect 1 0 2 0;
#X connect 2 0 9 0;
#X connect 3 0 5 0;
#X connect 4 0 5 1;
#X connect 5 0 6 0;
#X connect 6 0 7 1;
#X connect 7 0 36 0;
#X connect 7 0 61 0;
#X connect 8 0 9 1;
#X connect 9 0 68 0;
#X connect 10 0 31 0;
#X connect 10 0 32 0;
#X connect 11 0 12 0;
#X connect 12 0 19 0;
#X connect 13 0 15 0;
#X connect 14 0 15 1;
#X connect 15 0 16 0;
#X connect 16 0 17 1;
#X connect 17 0 36 0;
#X connect 17 0 61 0;
#X connect 18 0 19 1;
#X connect 19 0 67 0;
#X connect 20 0 21 0;
#X connect 21 0 11 0;
#X connect 21 0 18 1;
#X connect 21 0 14 0;
#X connect 22 0 23 0;
#X connect 23 0 26 0;
#X connect 24 0 22 0;
#X connect 24 1 25 0;
#X connect 25 0 23 1;
#X connect 26 0 27 0;
#X connect 27 0 0 0;
#X connect 28 0 38 0;
#X connect 28 1 29 1;
#X connect 29 0 30 0;
#X connect 30 0 27 0;
#X connect 30 1 27 1;
#X connect 31 0 8 0;
#X connect 32 0 18 0;
#X connect 33 0 10 0;
#X connect 33 0 28 0;
#X connect 34 0 33 0;
#X connect 35 0 41 0;
#X connect 35 1 40 0;
#X connect 36 0 66 0;
#X connect 37 0 34 0;
#X connect 38 0 29 0;
#X connect 39 0 54 0;
#X connect 42 0 43 0;
#X connect 42 0 62 0;
#X connect 43 0 37 0;
#X connect 44 0 45 0;
#X connect 45 0 36 1;
#X connect 46 0 47 0;
#X connect 47 0 48 0;
#X connect 48 0 35 1;
#X connect 49 0 46 0;
#X connect 50 0 46 1;
#X connect 51 0 41 0;
#X connect 51 1 40 0;
#X connect 52 0 53 0;
#X connect 52 0 69 0;
#X connect 53 0 42 0;
#X connect 54 0 66 0;
#X connect 55 0 35 0;
#X connect 55 0 51 0;
#X connect 56 0 57 0;
#X connect 57 0 44 0;
#X connect 58 0 49 0;
#X connect 59 0 51 1;
#X connect 60 0 59 0;
#X connect 61 0 65 0;
#X connect 63 0 43 0;
#X connect 64 0 24 0;
#X connect 65 0 55 0;
#X connect 67 0 17 0;
#X connect 68 0 7 0;
#X connect 69 0 24 0;
