#N canvas 681 194 450 300 10;
#X obj 133 141 delwrite~ \$0-a 100;
#X obj 133 163 delread~ \$0-a \$1;
#X obj 133 212 outlet~;
#X obj 143 190 s~ \$0-fba;
#X obj 133 119 +~;
#X obj 148 71 r~ \$0-fba;
#X obj 148 94 *~ 0.6;
#X obj 133 47 inlet~;
#X connect 1 0 2 0;
#X connect 1 0 3 0;
#X connect 4 0 0 0;
#X connect 5 0 6 0;
#X connect 6 0 4 1;
#X connect 7 0 4 0;
