#N canvas 19 22 406 352 10;
#X obj 60 132 e_chorus;
#X obj 261 36 inlet;
#X obj 41 21 inlet~;
#X obj 41 269 outlet~;
#X obj 41 244 c_xfade;
#X obj 261 83 u_dispatch \$0 wet;
#X obj 80 221 r \$0-wet;
#X obj 105 187 e_sdelay 500;
#X obj 261 58 u_dispatch \$0 size;
#X obj 105 11 r \$0-size;
#X msg 105 56 freq \$1;
#X obj 105 34 m_scale 0 1 53 1;
#X msg 144 116 mod \$1;
#X obj 144 92 m_scale 0 1 0 1.21;
#X obj 174 164 m_scale 0 1 0 40;
#X connect 0 0 7 0;
#X connect 0 0 4 1;
#X connect 0 1 7 0;
#X connect 0 1 4 1;
#X connect 1 0 8 0;
#X connect 2 0 0 0;
#X connect 2 0 4 0;
#X connect 4 0 3 0;
#X connect 6 0 4 2;
#X connect 7 0 4 1;
#X connect 8 0 5 0;
#X connect 9 0 11 0;
#X connect 9 0 13 0;
#X connect 9 0 14 0;
#X connect 10 0 0 1;
#X connect 11 0 10 0;
#X connect 12 0 0 1;
#X connect 13 0 12 0;
#X connect 14 0 7 1;
