#N canvas 407 130 295 229 10;
#X obj 43 36 inlet;
#X obj 43 161 t b;
#X obj 43 183 s \$1-loop-snare-hit;
#X obj 43 125 sel \$3 \$4 \$5 \$6 \$7 \$8 \$9 \$10 \$11;
#X obj 43 100 moses 1;
#X obj 43 58 list split 1;
#X connect 0 0 5 0;
#X connect 1 0 2 0;
#X connect 3 0 1 0;
#X connect 3 1 1 0;
#X connect 3 2 1 0;
#X connect 3 3 1 0;
#X connect 3 4 1 0;
#X connect 3 5 1 0;
#X connect 3 6 1 0;
#X connect 3 7 1 0;
#X connect 3 8 1 0;
#X connect 4 1 3 0;
#X connect 5 1 4 0;
