#N canvas 407 130 295 229 10;
#X obj 43 36 inlet;
#X obj 87 79 outlet;
#X obj 43 161 t b;
#X obj 43 183 s \$1-loop-snare-hit;
#X obj 43 58 route \$2;
#X obj 43 125 sel \$3 \$4 \$5 \$6 \$7 \$8 \$9 \$10 \$11;
#X obj 43 100 moses 1;
#X connect 0 0 4 0;
#X connect 2 0 3 0;
#X connect 4 0 6 0;
#X connect 4 1 1 0;
#X connect 5 0 2 0;
#X connect 5 1 2 0;
#X connect 5 2 2 0;
#X connect 5 3 2 0;
#X connect 5 4 2 0;
#X connect 5 5 2 0;
#X connect 5 6 2 0;
#X connect 5 7 2 0;
#X connect 5 8 2 0;
#X connect 6 1 5 0;
