#N canvas 0 77 1246 824 10;
#X obj 642 197 vsl 15 128 0 100 0 0 empty empty time_0-100 0 -9 0 10
-262144 -1 -1 1600 1;
#X obj 965 198 vsl 15 128 0 1 0 0 empty empty feedback 0 -9 0 10 -262144
-1 -1 0 1;
#X obj 1038 204 vsl 15 128 0 1 0 0 empty empty dry 0 -9 0 10 -262144
-1 -1 0 1;
#X obj 1104 202 vsl 15 128 0 1000 0 0 empty empty hip 0 -9 0 10 -262144
-1 -1 0 1;
#X msg 639 337 time \$1;
#X msg 963 338 fb \$1;
#X msg 1038 340 dry \$1;
#X msg 1103 339 hip \$1;
#X obj 542 489 dac~;
#N canvas 161 72 722 672 REFERENCE 0;
#X text 114 115 Name: e_combfilter;
#X text 114 135 Summary: adds a delayed version of stereo signal to
itself;
#X text 112 163 Inlet 0 & 1: audio signal to effect;
#X text 115 369 Outlet 0 1 : stereo out;
#X text 114 578 Tags: delay \, filtering \, glitch;
#X text 114 229 time <float> : sets length of the delay in ms ( max
1000 );
#X text 113 249 fb <float> : sets feedback 0 - 0.99;
#X text 115 270 dry <float> : sets dry/wet - dry signal is 1 \, wet
signal is 0 (default);
#X text 117 306 hip <float> : sets highpass filter freq ( min to reduce
crazy bass resonance at v low delay times );
#X text 114 401 Description: e_combfilter adds a delayed version of
the signal to itself with a short blocksize. Play with time \, feedback
and dry level to create various madness :) the delay time control is
line~ driven so it can create strange repeating pitchshifts;
#X text 112 204 Inlet 2: messages:;
#X coords 0 -1 1 1 450 500 1 100 100;
#X restore 43 60 pd REFERENCE;
#X text 46 26 e_combfilter;
#N canvas 0 22 450 300 testnoise 0;
#X obj 100 82 noise~;
#X obj 118 138 metro 500;
#X obj 118 115 loadbang;
#X obj 101 183 *~;
#X obj 101 211 outlet~;
#X obj 117 161 c_ead 5 40;
#X obj 161 81 osc~ 150;
#X connect 0 0 3 0;
#X connect 1 0 5 0;
#X connect 2 0 1 0;
#X connect 3 0 4 0;
#X connect 5 0 3 1;
#X connect 6 0 3 0;
#X restore 545 118 pd testnoise;
#X obj 545 169 *~;
#X obj 575 148 tgl 15 0 empty empty empty 17 7 0 10 -262144 -1 -1 0
1;
#X obj 725 197 vsl 15 128 0 1000 0 0 empty empty time_0-100 0 -9 0
10 -262144 -1 -1 0 1;
#X msg 724 338 time \$1;
#X msg 805 337 slide \$1;
#X obj 805 199 vsl 15 128 0 1000 0 0 empty empty slide 0 -9 0 10 -262144
-1 -1 0 1;
#X text 636 141 combining these is fun :);
#X obj 541 420 e_combfilter comby;
#X connect 0 0 4 0;
#X connect 1 0 5 0;
#X connect 2 0 6 0;
#X connect 3 0 7 0;
#X connect 4 0 19 2;
#X connect 5 0 19 2;
#X connect 6 0 19 2;
#X connect 7 0 19 2;
#X connect 11 0 12 0;
#X connect 12 0 19 0;
#X connect 12 0 19 1;
#X connect 13 0 12 1;
#X connect 14 0 15 0;
#X connect 15 0 19 2;
#X connect 16 0 19 2;
#X connect 17 0 16 0;
#X connect 19 0 8 0;
#X connect 19 1 8 1;
