#N canvas 232 111 826 826 10;
#X obj 318 56 block~ 2;
#X obj 35 57 inlet~;
#X obj 136 58 inlet~;
#X obj 62 460 vd~ \$0-combdelL;
#X obj 178 462 vd~ \$0-combdelR;
#X obj 39 709 outlet~;
#X obj 162 709 outlet~;
#X obj 258 491 *~ 0.5;
#X obj 85 484 *~ 0.5;
#X obj 84 143 delwrite~ \$0-combdelL 1000;
#X obj 254 143 delwrite~ \$0-combdelR 1000;
#X obj 182 633 hip~ 50;
#X obj 181 655 hip~ 50;
#X obj 58 628 hip~ 50;
#X obj 58 652 hip~ 50;
#X obj 39 685 c_xfade;
#X obj 162 684 c_xfade;
#X obj 302 619 r \$0-dry;
#X obj 302 641 clip 0 1;
#X obj 322 251 clip 0.2 1000;
#X obj 269 410 clip 0 0.99;
#X obj 321 228 r \$0-time;
#X obj 477 94 u_dispatch \$0 time;
#X obj 477 138 u_dispatch \$0 dry;
#X obj 477 64 inlet;
#X obj 528 42 loadbang;
#X obj 477 117 u_dispatch \$0 fb;
#X obj 269 386 r \$0-fb;
#X obj 477 160 u_dispatch \$0 hip;
#X obj 241 563 r \$0-hip;
#X obj 269 432 t f f;
#X obj 321 297 line~;
#X msg 301 664 \$1 10;
#X obj 477 182 u_dispatch \$0 slide;
#X obj 414 252 r \$0-slide;
#X obj 321 273 pack f f;
#X msg 528 64 time 20 \, fb 0.8 \, dry 0 \, highpass 50 \, slide 20
;
#X obj 240 585 max 50;
#X connect 1 0 9 0;
#X connect 1 0 15 1;
#X connect 2 0 10 0;
#X connect 2 0 16 1;
#X connect 3 0 8 0;
#X connect 3 0 13 0;
#X connect 4 0 7 0;
#X connect 4 0 11 0;
#X connect 7 0 10 0;
#X connect 8 0 9 0;
#X connect 11 0 12 0;
#X connect 12 0 16 0;
#X connect 13 0 14 0;
#X connect 14 0 15 0;
#X connect 15 0 5 0;
#X connect 16 0 6 0;
#X connect 17 0 18 0;
#X connect 18 0 32 0;
#X connect 19 0 35 0;
#X connect 20 0 30 0;
#X connect 21 0 19 0;
#X connect 22 0 26 0;
#X connect 23 0 28 0;
#X connect 24 0 22 0;
#X connect 25 0 36 0;
#X connect 26 0 23 0;
#X connect 27 0 20 0;
#X connect 28 0 33 0;
#X connect 29 0 37 0;
#X connect 30 0 8 1;
#X connect 30 1 7 1;
#X connect 31 0 4 0;
#X connect 31 0 3 0;
#X connect 32 0 16 2;
#X connect 32 0 15 2;
#X connect 34 0 35 1;
#X connect 35 0 31 0;
#X connect 36 0 22 0;
#X connect 37 0 13 1;
#X connect 37 0 14 1;
#X connect 37 0 11 1;
#X connect 37 0 12 1;
