#N canvas 0 22 465 414 10;
#X obj 93 131 hip~ 10;
#X obj 93 110 inlet~;
#X obj 93 151 hip~ 10;
#X obj 93 171 hip~ 10;
#X obj 93 191 hip~ 10;
#X obj 93 323 outlet~;
#X obj 179 221 sig~;
#X obj 156 265 *~;
#X obj 208 149 lop~ 10;
#X obj 208 105 / 400;
#X obj 208 127 sig~;
#X obj 156 287 *~ 0;
#X obj 179 35 inlet freq;
#X obj 179 55 f;
#X obj 267 37 loadbang;
#X obj 267 59 \$1;
#X obj 156 244 vcf~ 1;
#X obj 321 163 inlet q;
#X connect 0 0 2 0;
#X connect 1 0 0 0;
#X connect 2 0 3 0;
#X connect 3 0 4 0;
#X connect 4 0 5 0;
#X connect 4 0 16 0;
#X connect 6 0 16 1;
#X connect 7 0 11 0;
#X connect 8 0 7 1;
#X connect 9 0 10 0;
#X connect 10 0 8 0;
#X connect 11 0 5 0;
#X connect 12 0 13 0;
#X connect 13 0 0 1;
#X connect 13 0 2 1;
#X connect 13 0 3 1;
#X connect 13 0 4 1;
#X connect 13 0 6 0;
#X connect 13 0 9 0;
#X connect 14 0 15 0;
#X connect 15 0 13 0;
#X connect 16 0 7 0;
#X connect 17 0 11 1;
