#N canvas 1059 112 761 549 10;
#X obj 177 243 osc~ 5;
#X obj 177 345 /~ 2;
#X obj 177 366 +~ 0.5;
#X obj 86 427 inlet~;
#X obj 86 509 outlet~;
#X obj 252 382 swap 1;
#X obj 252 403 -;
#X obj 177 448 +~ 0;
#X obj 177 387 *~ 1;
#X obj 252 424 / 2;
#N canvas 0 22 450 300 clipper 0;
#X obj 135 158 clip~;
#X obj 135 135 inlet~;
#X obj 135 221 outlet~;
#X obj 210 108 * -1;
#X msg 233 149 1;
#X obj 233 170 /;
#X obj 233 129 t b f;
#X obj 187 88 t f f f;
#X obj 135 192 *~ 1;
#X obj 187 66 min 0.999;
#X obj 187 45 max 0.001;
#X obj 187 24 inlet shape;
#X connect 0 0 8 0;
#X connect 1 0 0 0;
#X connect 3 0 0 1;
#X connect 4 0 5 0;
#X connect 5 0 8 1;
#X connect 6 0 4 0;
#X connect 6 1 5 1;
#X connect 7 0 0 2;
#X connect 7 1 3 0;
#X connect 7 2 6 0;
#X connect 8 0 2 0;
#X connect 9 0 7 0;
#X connect 10 0 9 0;
#X connect 11 0 10 0;
#X restore 177 284 pd clipper;
#X obj 244 253 r \$0-shape;
#X obj 177 11 r \$0-freq;
#X obj 252 314 r \$0-depth;
#X obj 426 80 inlet;
#X obj 485 24 loadbang;
#X obj 486 77 u_loader e_tremolo-\$1 \$0;
#X obj 426 107 u_dispatch \$0 freq;
#N canvas 172 83 586 377 LICENSE-GPL 0;
#X text 57 88 This program is free software: you can redistribute it
and/or modify it under the terms of the GNU General Public License
as published by the Free Software Foundation \, either version 3 of
the License \, or (at your option) any later version.;
#X text 58 168 This program is distributed in the hope that it will
be useful \, but WITHOUT ANY WARRANTY \; without even the implied warranty
of MERCHANTABILITY or FITNESS FOR A PARTICULAR PURPOSE. See the GNU
General Public License for more details.;
#X text 57 261 You should have received a copy of the GNU General Public
License along with this program. If not \, see <http://www.gnu.org/licenses/>.
;
#X text 61 54 Copyright (C) 2009 \, Reality Jockey Ltd.;
#X text 60 325 See the file LICENSE.txt for the full license text.
;
#X restore 621 24 pd LICENSE-GPL;
#X obj 426 127 u_dispatch \$0 depth;
#X obj 426 147 u_dispatch \$0 shape;
#X obj 252 335 max 0;
#X obj 252 356 min 1;
#X obj 86 477 *~;
#X obj 248 51 r \$0-phase;
#X obj 426 167 u_dispatch \$0 phase;
#X msg 485 48 freq 5 \, shape 1 \, depth 1 \, phase 0;
#X obj 323 26 loadbang;
#X obj 324 244 loadbang;
#X obj 348 325 loadbang;
#X obj 121 18 loadbang;
#X obj 209 127 m_bpm2ms;
#X msg 177 173 1;
#X obj 177 193 /;
#X obj 209 151 /;
#X obj 209 172 / 1000;
#X obj 177 57 f;
#X obj 347 95 t b f;
#X obj 177 82 t b b b f;
#X obj 121 40 \$2;
#X obj 324 266 \$3;
#X obj 348 347 \$4;
#X obj 323 48 \$5;
#X obj 347 72 r \$1-ds-bpm;
#X obj 209 105 v \$1-ds-bpm-v;
#X obj 73 31 bng 15 250 50 0 empty empty empty 17 7 0 10 -262144 -1
-1;
#X obj 189 216 v \$2-wobble-freq;
#X obj 337 4 r \$1-trem-phase-reset;
#X connect 0 0 10 0;
#X connect 1 0 2 0;
#X connect 2 0 8 0;
#X connect 3 0 23 0;
#X connect 5 0 6 0;
#X connect 5 1 6 1;
#X connect 6 0 9 0;
#X connect 7 0 23 1;
#X connect 8 0 7 0;
#X connect 9 0 7 1;
#X connect 10 0 1 0;
#X connect 11 0 10 1;
#X connect 12 0 36 0;
#X connect 13 0 21 0;
#X connect 14 0 17 0;
#X connect 15 0 26 0;
#X connect 17 0 19 0;
#X connect 19 0 20 0;
#X connect 20 0 25 0;
#X connect 21 0 22 0;
#X connect 22 0 5 0;
#X connect 22 0 8 1;
#X connect 23 0 4 0;
#X connect 24 0 0 1;
#X connect 26 0 17 0;
#X connect 27 0 42 0;
#X connect 28 0 40 0;
#X connect 29 0 41 0;
#X connect 30 0 39 0;
#X connect 31 0 34 0;
#X connect 32 0 33 0;
#X connect 33 0 0 0;
#X connect 33 0 46 0;
#X connect 34 0 35 0;
#X connect 35 0 33 1;
#X connect 36 0 38 0;
#X connect 37 0 36 0;
#X connect 37 1 31 0;
#X connect 38 0 32 0;
#X connect 38 2 44 0;
#X connect 38 3 34 1;
#X connect 39 0 36 0;
#X connect 40 0 10 1;
#X connect 41 0 21 0;
#X connect 42 0 0 1;
#X connect 43 0 37 0;
#X connect 44 0 31 0;
#X connect 45 0 39 0;
#X connect 47 0 42 0;
