#N canvas 0 22 450 300 10;
#X obj 237 109 *~;
#X obj 200 109 *~;
#X obj 265 71 line~;
#X obj 95 138 *~;
#X obj 58 138 *~;
#X obj 58 18 inlet~;
#X obj 95 38 inlet~;
#X obj 58 190 outlet~;
#X obj 108 191 outlet~;
#X obj 120 77 swap 1;
#X obj 120 97 -;
#X obj 120 119 line~;
#X obj 200 129 throw~ \$1-L;
#X obj 238 148 throw~ \$1-R;
#X obj 265 18 r \$1-send-\$2;
#X connect 0 0 13 0;
#X connect 1 0 12 0;
#X connect 2 0 0 1;
#X connect 2 0 1 1;
#X connect 3 0 8 0;
#X connect 4 0 7 0;
#X connect 5 0 4 0;
#X connect 5 0 1 0;
#X connect 6 0 3 0;
#X connect 6 0 0 0;
#X connect 9 0 10 0;
#X connect 9 1 10 1;
#X connect 10 0 11 0;
#X connect 11 0 3 1;
#X connect 11 0 4 1;
#X connect 14 0 2 0;
#X connect 14 0 9 0;
