#N canvas 491 173 872 369 10;
#X obj 101 101 cnv 15 133 108 empty empty empty 20 12 0 14 -262006
-66577 0;
#X obj 103 239 list prepend BUILD;
#X obj 222 239 list prepend DROP;
#X obj 333 239 list prepend GAIN;
#X obj 444 239 list prepend RESET;
#X obj 103 122 vsl 30 82 0 1 0 0 empty empty empty 0 -9 0 10 -261682
-1 -1 6900 1;
#X msg 222 217 1;
#X obj 145 120 bng 45 250 50 0 empty drop-button empty 17 7 0 10 -262144
-262144 -262144;
#X floatatom 136 193 5 0 0 0 - - -, f 5;
#X obj 202 120 bng 30 250 50 0 empty empty empty 17 7 0 10 -228856
-1 -1;
#X obj 103 304 s #EXTERN_TO_PD;
#X obj 103 261 list trim;
#X obj 222 261 list trim;
#X obj 333 261 list trim;
#X obj 444 261 list trim;
#X msg 444 217 1;
#X text 101 103 Build;
#X text 153 103 Drop;
#X text 134 176 Gain;
#X text 199 102 Reset;
#X obj 563 261 list trim;
#X obj 695 261 list trim;
#X msg 695 217 1;
#X obj 563 195 sel 0 1;
#X msg 563 217 1;
#X obj 171 177 vradio 15 1 0 2 empty empty empty 0 -8 0 10 -262144
-1 -1 0;
#X obj 563 239 list prepend DUBSTEP;
#X obj 695 239 list prepend DUB;
#X text 188 177 Dubstep;
#X text 188 192 Dub;
#X connect 1 0 11 0;
#X connect 2 0 12 0;
#X connect 3 0 13 0;
#X connect 4 0 14 0;
#X connect 5 0 1 0;
#X connect 6 0 2 0;
#X connect 7 0 6 0;
#X connect 8 0 3 0;
#X connect 9 0 15 0;
#X connect 11 0 10 0;
#X connect 12 0 10 0;
#X connect 13 0 10 0;
#X connect 14 0 10 0;
#X connect 15 0 4 0;
#X connect 20 0 10 0;
#X connect 21 0 10 0;
#X connect 22 0 27 0;
#X connect 23 0 24 0;
#X connect 23 1 22 0;
#X connect 24 0 26 0;
#X connect 25 0 23 0;
#X connect 26 0 20 0;
#X connect 27 0 21 0;
#X coords 0 -1 1 1 135 110 1 100 100;
