#N canvas 209 232 1071 590 10;
#X obj 103 439 list prepend BUILD;
#X obj 222 439 list prepend DROP;
#X obj 333 439 list prepend GAIN;
#X obj 444 439 list prepend RESET;
#X obj 103 136 vsl 30 70 0 1 0 0 empty empty empty 0 -9 0 10 -262144
-1 -1 0 1;
#X msg 222 417 1;
#X obj 141 134 bng 45 250 50 0 empty empty empty 17 7 0 10 -262144
-1 -1;
#X floatatom 142 204 5 0 0 0 - - -;
#X obj 193 134 bng 30 250 50 0 empty empty empty 17 7 0 10 -262144
-1 -1;
#X obj 103 504 s #EXTERN_TO_PD;
#X obj 103 461 list trim;
#X obj 222 461 list trim;
#X obj 333 461 list trim;
#X obj 444 461 list trim;
#X msg 444 417 1;
#X text 101 117 Build;
#X text 140 116 Drop;
#X text 140 185 Gain;
#X text 191 116 Reset;
#X obj 102 236 bng 15 250 50 0 empty empty empty 17 7 0 10 -262144
-1 -1;
#X obj 119 355 list prepend build;
#X obj 119 377 list prepend fromGrass;
#X obj 119 399 list trim;
#X obj 239 355 list prepend drop;
#X obj 359 355 list prepend reset;
#X text 101 220 Grass;
#X text 119 236 Build;
#X obj 102 253 bng 15 250 50 0 empty empty empty 17 7 0 10 -262144
-1 -1;
#X text 119 253 Reset;
#X obj 172 246 bng 15 250 50 0 empty empty empty 17 7 0 10 -262144
-1 -1;
#X text 189 246 Drop;
#X obj 564 461 list trim;
#X obj 564 439 list prepend WOBBLE-EVENT-FREQ;
#X floatatom 195 204 5 0 0 0 - - -;
#X text 193 172 Wobble;
#X text 193 188 freq;
#X floatatom 576 362 5 0 0 0 - - -;
#X obj 753 461 list trim;
#X obj 753 439 list prepend NOTE-EVENTS;
#X obj 172 226 tgl 15 0 empty empty empty 17 7 0 10 -262144 -1 -1 0
1;
#X text 190 225 Notes;
#X obj 217 103 tgl 15 0 empty empty empty 17 7 0 10 -262144 -1 -1 0
1;
#X obj 217 56 loadbang;
#X msg 217 79 0;
#X obj 689 355 list trim;
#X obj 689 333 list prepend END-SEQ-DEBUG;
#X obj 503 86 metro 60000;
#X obj 503 108 f;
#X obj 529 108 + 1;
#X obj 503 130 t f f;
#X obj 503 152 div 60;
#X obj 548 152 mod 60;
#X obj 175 272 tgl 15 0 empty empty empty 17 7 0 10 -262144 -1 -1 1
1;
#X floatatom 200 273 5 0 0 0 - - -;
#X floatatom 102 273 5 0 0 0 - - -;
#X floatatom 137 273 5 0 0 0 - - -;
#X floatatom 102 289 5 0 0 0 - - -;
#X floatatom 137 289 5 0 0 0 - - -;
#X floatatom 172 289 5 0 0 0 - - -;
#X obj 503 204 pack f f f f f;
#X msg 503 226 DATETIME \$3 \$4 \$5 \$1 \$2;
#X obj 503 250 print;
#X connect 0 0 10 0;
#X connect 1 0 11 0;
#X connect 2 0 12 0;
#X connect 3 0 13 0;
#X connect 4 0 0 0;
#X connect 5 0 1 0;
#X connect 6 0 5 0;
#X connect 7 0 2 0;
#X connect 8 0 14 0;
#X connect 10 0 9 0;
#X connect 11 0 9 0;
#X connect 12 0 9 0;
#X connect 13 0 9 0;
#X connect 14 0 3 0;
#X connect 19 0 20 0;
#X connect 20 0 21 0;
#X connect 21 0 22 0;
#X connect 22 0 9 0;
#X connect 23 0 21 0;
#X connect 24 0 21 0;
#X connect 27 0 24 0;
#X connect 29 0 23 0;
#X connect 31 0 9 0;
#X connect 32 0 31 0;
#X connect 33 0 32 0;
#X connect 36 0 32 0;
#X connect 37 0 9 0;
#X connect 38 0 37 0;
#X connect 39 0 38 0;
#X connect 41 0 45 0;
#X connect 42 0 43 0;
#X connect 43 0 41 0;
#X connect 44 0 9 0;
#X connect 45 0 44 0;
#X connect 46 0 47 0;
#X connect 47 0 48 0;
#X connect 47 0 49 0;
#X connect 48 0 47 1;
#X connect 49 0 50 0;
#X connect 49 1 51 0;
#X connect 50 0 54 0;
#X connect 50 0 59 0;
#X connect 51 0 55 0;
#X connect 51 0 59 1;
#X connect 52 0 46 0;
#X connect 53 0 47 0;
#X connect 56 0 59 4;
#X connect 57 0 59 3;
#X connect 58 0 59 2;
#X connect 59 0 60 0;
#X connect 60 0 9 0;
#X connect 60 0 61 0;
#X coords 0 -1 1 1 135 205 1 100 100;
