#N canvas 0 22 524 682 10;
#X obj 380 32 loadbang;
#X obj 342 56 inlet;
#X obj 38 40 inlet;
#X obj 38 197 pow -12;
#X obj 77 174 / 12;
#X msg 38 174 2;
#X obj 38 150 t b f;
#X obj 38 624 *~ 1;
#X msg 380 56 Distortion 0 \,;
#X obj 38 242 wavetable strontium-A;
#X obj 129 270 wavetable strontium-B;
#X obj 151 355 * 1.5708;
#X obj 151 382 cos;
#X obj 240 399 sin;
#X obj 129 464 *~;
#X obj 38 452 *~;
#X obj 240 447 line~;
#X obj 240 421 pack 0 10;
#X obj 151 435 line~;
#X obj 151 409 pack 0 10;
#X obj 167 333 hsl 128 15 0 1 0 0 empty empty empty -2 -8 0 10 -262144
-1 -1 0 1;
#X obj 38 503 *~ 1;
#X obj 38 220 f;
#X obj 38 127 + 36.4;
#X obj 103 494 r \$0-Intensity;
#X obj 103 516 * 20000;
#X obj 151 310 r \$0-Wt-position;
#X obj 38 589 *~ 1;
#X obj 59 563 r \$0-Amp;
#X obj 342 92 u_dispatch \$0 Wt-position;
#X obj 342 114 u_dispatch \$0 Intensity;
#X obj 342 136 u_dispatch \$0 Amp;
#X obj 342 158 u_dispatch \$0 Pitch;
#X obj 38 94 +;
#X obj 53 70 r \$0-Pitch;
#X obj 38 647 outlet~;
#X obj 38 537 lop~ 20000;
#X connect 0 0 8 0;
#X connect 1 0 29 0;
#X connect 2 0 33 0;
#X connect 3 0 22 0;
#X connect 4 0 3 1;
#X connect 5 0 3 0;
#X connect 6 0 5 0;
#X connect 6 1 4 0;
#X connect 7 0 35 0;
#X connect 8 0 29 0;
#X connect 9 0 15 0;
#X connect 10 0 14 0;
#X connect 11 0 12 0;
#X connect 11 0 13 0;
#X connect 12 0 19 0;
#X connect 13 0 17 0;
#X connect 14 0 21 0;
#X connect 15 0 21 0;
#X connect 16 0 14 1;
#X connect 17 0 16 0;
#X connect 18 0 15 1;
#X connect 19 0 18 0;
#X connect 20 0 11 0;
#X connect 21 0 36 0;
#X connect 22 0 9 0;
#X connect 22 0 10 0;
#X connect 23 0 6 0;
#X connect 24 0 25 0;
#X connect 25 0 36 1;
#X connect 26 0 11 0;
#X connect 27 0 7 0;
#X connect 28 0 27 1;
#X connect 29 0 30 0;
#X connect 30 0 31 0;
#X connect 31 0 32 0;
#X connect 33 0 23 0;
#X connect 34 0 33 1;
#X connect 36 0 27 0;
