#N canvas 144 57 650 508 10;
#X obj 62 60 inlet~;
#X obj 192 60 inlet~;
#X obj 270 158 inlet;
#X obj 270 184 line;
#X obj 192 210 *~ 0;
#X obj 62 210 *~ 0;
#X obj 62 414 throw~ STATE-\$1-L;
#X obj 192 414 throw~ STATE-\$1-R;
#X obj 62 130 *~ 1;
#X obj 192 130 *~ 1;
#X obj 290 81 inlet gain;
#X connect 0 0 8 0;
#X connect 1 0 9 0;
#X connect 2 0 3 0;
#X connect 3 0 4 1;
#X connect 3 0 5 1;
#X connect 4 0 7 0;
#X connect 5 0 6 0;
#X connect 8 0 5 0;
#X connect 9 0 4 0;
#X connect 10 0 9 1;
#X connect 10 0 8 1;
