#N canvas 307 118 795 679 10;
#X obj 112 152 f \$1;
#X obj 282 149 f \$4;
#X obj 232 150 f \$3;
#X obj 162 150 f \$2;
#X obj 112 63 inlet;
#X obj 162 63 inlet;
#X obj 232 63 inlet;
#X obj 282 63 inlet;
#X obj 26 32 inlet;
#X obj 26 646 outlet;
#X text 418 28 ARGS;
#X text 428 74 2: input_high_border;
#X text 428 100 3: output_low_border;
#X text 428 122 4: output_high_border;
#X text 89 32 scale [from_low \, from_hi] to [to_low \, to_hi];
#X obj 331 104 t b b b b;
#X obj 331 62 loadbang;
#X obj 26 503 +;
#X text 144 275 inh-inl;
#X text 269 264 outh-outl;
#X obj 26 466 *;
#X text 58 316 - inl;
#X text 58 504 + outl;
#X obj 162 215 t b a;
#X obj 282 203 t b a;
#X msg 340 83 bang;
#X obj 26 342 / 1;
#X obj 26 318 -;
#X obj 232 265 -;
#X obj 232 244 swap;
#X obj 112 249 swap;
#X obj 112 274 -;
#N canvas 0 22 549 462 mapping 0;
#X obj 103 74 inlet;
#X obj 103 358 outlet;
#X obj 133 265 pow 1;
#X obj 206 75 inlet;
#X obj 206 120 select 1;
#X obj 187 254 * 2;
#X obj 187 227 - 1;
#X msg 187 276 10 \$1;
#X obj 206 96 route float dB;
#N canvas 477 233 525 407 demux3 0;
#X obj 88 263 outlet;
#X obj 88 226 spigot 1;
#X obj 171 264 outlet;
#X obj 171 227 spigot 0;
#X obj 241 264 outlet;
#X obj 241 227 spigot 0;
#X obj 265 152 unpack 0 0 0;
#X obj 88 51 inlet;
#X obj 265 57 inlet;
#X msg 265 109 1 0 0;
#X msg 311 110 0 1 0;
#X msg 360 110 0 0 1;
#X obj 265 83 select 0 1 2;
#X connect 1 0 0 0;
#X connect 3 0 2 0;
#X connect 5 0 4 0;
#X connect 6 0 1 1;
#X connect 6 1 3 1;
#X connect 6 2 5 1;
#X connect 7 0 1 0;
#X connect 7 0 3 0;
#X connect 7 0 5 0;
#X connect 8 0 12 0;
#X connect 9 0 6 0;
#X connect 10 0 6 0;
#X connect 11 0 6 0;
#X connect 12 0 9 0;
#X connect 12 1 10 0;
#X connect 12 2 11 0;
#X restore 103 204 pd demux3;
#X msg 206 142 0;
#X msg 259 142 1;
#X msg 301 143 2;
#X obj 187 302 pow;
#X connect 0 0 9 0;
#X connect 2 0 1 0;
#X connect 3 0 8 0;
#X connect 4 0 10 0;
#X connect 4 1 11 0;
#X connect 5 0 7 0;
#X connect 6 0 5 0;
#X connect 7 0 13 0;
#X connect 8 0 4 0;
#X connect 8 0 2 1;
#X connect 8 1 12 0;
#X connect 9 0 1 0;
#X connect 9 1 2 0;
#X connect 9 2 6 0;
#X connect 10 0 9 1;
#X connect 11 0 9 1;
#X connect 12 0 9 1;
#X connect 13 0 1 0;
#X restore 26 432 pd mapping;
#X obj 403 225 inlet;
#X obj 403 274 list append \$5;
#X obj 456 343 list trim;
#X obj 403 322 select 0;
#X msg 471 247 symbol dB;
#X msg 403 343 1;
#X obj 338 224 loadbang;
#X text 403 204 mapping;
#X obj 403 249 t a b;
#X obj 403 297 list split 1;
#X text 429 149 5: mapping: float is a pow-exponent \, "dB" can be
used to use a dB scaling (optional \, default is linear);
#X obj 112 113 unpack 0 0 0 0;
#X obj 112 93 route list;
#X text 428 52 1: input_low_border or list of four values;
#N canvas 172 83 586 377 LICENSE-GPL 0;
#X text 57 88 This program is free software: you can redistribute it
and/or modify it under the terms of the GNU General Public License
as published by the Free Software Foundation \, either version 3 of
the License \, or (at your option) any later version.;
#X text 58 168 This program is distributed in the hope that it will
be useful \, but WITHOUT ANY WARRANTY \; without even the implied warranty
of MERCHANTABILITY or FITNESS FOR A PARTICULAR PURPOSE. See the GNU
General Public License for more details.;
#X text 57 261 You should have received a copy of the GNU General Public
License along with this program. If not \, see <http://www.gnu.org/licenses/>.
;
#X text 61 54 Copyright (C) 2009 \, Reality Jockey Ltd.;
#X text 60 325 See the file LICENSE.txt for the full license text.
;
#X restore 541 8 pd LICENSE-GPL;
#X obj 26 544 list trim;
#X obj 26 524 list prepend 0;
#X obj 109 471 loadbang;
#X obj 109 496 \$6;
#X floatatom 121 523 5 0 0 0 - - -;
#X obj 51 597 max \$3;
#X obj 51 617 min \$4;
#X obj 26 564 route 0 1 2;
#X obj 99 597 max \$4;
#X obj 99 617 min \$3;
#X connect 0 0 27 1;
#X connect 0 0 30 0;
#X connect 1 0 24 0;
#X connect 2 0 17 1;
#X connect 2 0 29 0;
#X connect 3 0 23 0;
#X connect 4 0 45 0;
#X connect 5 0 3 0;
#X connect 6 0 2 0;
#X connect 7 0 1 0;
#X connect 8 0 27 0;
#X connect 15 0 0 0;
#X connect 15 1 3 0;
#X connect 15 2 2 0;
#X connect 15 3 1 0;
#X connect 16 0 15 0;
#X connect 17 0 49 0;
#X connect 20 0 17 0;
#X connect 23 0 30 0;
#X connect 23 1 30 1;
#X connect 24 0 29 0;
#X connect 24 1 29 1;
#X connect 25 0 15 0;
#X connect 26 0 32 0;
#X connect 27 0 26 0;
#X connect 28 0 20 1;
#X connect 29 0 28 0;
#X connect 29 1 28 1;
#X connect 30 0 31 0;
#X connect 30 1 31 1;
#X connect 31 0 26 1;
#X connect 32 0 20 0;
#X connect 33 0 41 0;
#X connect 34 0 42 0;
#X connect 35 0 32 1;
#X connect 36 0 38 0;
#X connect 36 1 35 0;
#X connect 37 0 34 0;
#X connect 38 0 32 1;
#X connect 39 0 34 0;
#X connect 41 0 34 0;
#X connect 41 1 34 1;
#X connect 42 0 36 0;
#X connect 44 0 0 0;
#X connect 44 1 3 0;
#X connect 44 2 2 0;
#X connect 44 3 1 0;
#X connect 45 0 44 0;
#X connect 45 1 0 0;
#X connect 48 0 55 0;
#X connect 49 0 48 0;
#X connect 50 0 51 0;
#X connect 51 0 49 1;
#X connect 51 0 52 0;
#X connect 53 0 54 0;
#X connect 54 0 9 0;
#X connect 55 0 9 0;
#X connect 55 1 53 0;
#X connect 55 2 56 0;
#X connect 56 0 57 0;
#X connect 57 0 9 0;
