#N canvas 295 172 586 600 10;
#X msg 59 510 stop;
#X obj 40 350 sel 0;
#X obj 40 320 mod 128;
#X obj 79 480 sel 0;
#X obj 40 380 t b b b;
#X text 37 10 Initialisation;
#X text 37 20 ------------------------------------------------------------
;
#X obj 40 546 s \$0-MIDI-seqControls;
#X text 37 260 ------------------------------------------------------------
;
#X text 37 250 Sequencing MIDI files;
#X obj 79 410 s \$1-CHORDS-resetIndex;
#X obj 79 450 r \$1-TIMEBASE-metroStartStop;
#X obj 40 290 r 0-tick;
#X obj 179 50 loadbang;
#X obj 179 72 del 1000;
#X obj 43 44 r \$1-INIT-bang;
#X obj 142 59 bng 15 250 50 0 empty empty empty 17 7 0 10 -262144 -1
-1;
#X obj 372 84 r \$1-tick;
#X obj 397 226 s alternate-chords-midiFile;
#X obj 372 153 s original-chords-midiFile;
#X obj 372 106 mod 256;
#X obj 372 129 sel 0 192;
#X obj 397 179 random 2;
#X obj 397 201 sel 0;
#X obj 43 211 openMidifileInfo \$1 voices \$0;
#X obj 94 124 openMidifileInfo \$1 chords \$0;
#X obj 77 154 openMidifileInfo \$1 bass \$0;
#X obj 60 184 openMidifileInfo \$1 drums \$0;
#X obj 43 75 t b b b b b;
#X obj 106 104 openMidifileInfo \$1 guitar \$0;
#X connect 0 0 7 0;
#X connect 1 0 4 0;
#X connect 2 0 1 0;
#X connect 3 0 0 0;
#X connect 4 0 7 0;
#X connect 4 1 0 0;
#X connect 4 2 10 0;
#X connect 11 0 3 0;
#X connect 12 0 2 0;
#X connect 13 0 14 0;
#X connect 14 0 28 0;
#X connect 15 0 28 0;
#X connect 16 0 28 0;
#X connect 17 0 20 0;
#X connect 20 0 21 0;
#X connect 21 0 19 0;
#X connect 21 1 22 0;
#X connect 22 0 23 0;
#X connect 23 0 18 0;
#X connect 28 0 24 0;
#X connect 28 1 27 0;
#X connect 28 2 26 0;
#X connect 28 3 25 0;
#X connect 28 4 29 0;
