#N canvas 295 172 793 593 10;
#X msg 59 510 stop;
#X obj 40 350 sel 0;
#X obj 40 320 mod 128;
#X obj 79 480 sel 0;
#X obj 40 380 t b b b;
#X text 37 10 Initialisation;
#X text 37 20 ------------------------------------------------------------
;
#X obj 40 546 s \$0-MIDI-seqControls;
#X text 37 260 ------------------------------------------------------------
;
#X text 37 250 Sequencing MIDI files;
#X obj 79 410 s \$1-CHORDS-resetIndex;
#X obj 79 450 r \$1-TIMEBASE-metroStartStop;
#X obj 40 290 r 0-tick;
#X obj 144 37 loadbang;
#X obj 144 59 del 1000;
#X obj 43 44 r \$1-INIT-bang;
#X obj 305 79 r \$1-tick;
#X obj 330 221 s alternate-chords-midiFile;
#X obj 305 148 s original-chords-midiFile;
#X obj 305 101 mod 256;
#X obj 305 124 sel 0 192;
#X obj 330 174 random 2;
#X obj 330 196 sel 0;
#X obj 43 211 openMidifileInfo \$1 voices \$0;
#X obj 90 129 openMidifileInfo \$1 chords \$0;
#X obj 74 154 openMidifileInfo \$1 bass \$0;
#X obj 58 184 openMidifileInfo \$1 drums \$0;
#X obj 43 75 t b b b b b;
#X obj 106 104 openMidifileInfo \$1 guitar \$0;
#X text 370 79 Really quick and dirty way of making a longer sequence
out of two shorter sequences.;
#X text 370 123 First 3 bars use the originally chosen MIDI file;
#X text 388 171 But half the time \, a random alternative MIDI file
is chosen for the 4th bar;
#X connect 0 0 7 0;
#X connect 1 0 4 0;
#X connect 2 0 1 0;
#X connect 3 0 0 0;
#X connect 4 0 7 0;
#X connect 4 1 0 0;
#X connect 4 2 10 0;
#X connect 11 0 3 0;
#X connect 12 0 2 0;
#X connect 13 0 14 0;
#X connect 14 0 27 0;
#X connect 15 0 27 0;
#X connect 16 0 19 0;
#X connect 19 0 20 0;
#X connect 20 0 18 0;
#X connect 20 1 21 0;
#X connect 21 0 22 0;
#X connect 22 0 17 0;
#X connect 27 0 23 0;
#X connect 27 1 26 0;
#X connect 27 2 25 0;
#X connect 27 3 24 0;
#X connect 27 4 28 0;
