#N canvas 559 112 598 570 10;
#X obj 37 121 sig~;
#X obj 37 100 mtof;
#X obj 37 484 outlet~;
#X obj 37 264 *~ 1;
#X obj 37 6 inlet;
#X msg 124 403 \$1 \$2;
#X obj 37 461 *~;
#X msg 52 402 0 \$1;
#X obj 52 294 sel 0;
#X obj 52 432 line~;
#X obj 169 354 r \$0-Attack;
#X obj 73 324 r \$0-Release;
#X obj 124 354 / 127;
#X obj 52 347 f 50;
#X obj 124 378 pack f 5;
#X obj 37 29 unpack f f;
#X obj 384 35 u_dispatch \$0 Attack;
#X obj 384 55 u_dispatch \$0 Release;
#X obj 384 13 inlet;
#X obj 37 232 osc~;
#X obj 127 121 sig~;
#X obj 127 100 mtof;
#X obj 127 232 osc~;
#X obj 127 78 - 0;
#X obj 37 78 + 48;
#X obj 37 153 *~;
#X obj 179 72 osc~;
#X obj 127 153 *~;
#X obj 179 94 *~ 0;
#X obj 179 124 +~ 1;
#X obj 179 51 sig~ 2;
#X obj 384 75 u_dispatch \$0 Vib-Rate;
#X obj 384 95 u_dispatch \$0 Vib-Depth;
#X obj 179 8 r \$0-Vib-Rate;
#X obj 179 30 * 12;
#X obj 224 121 r \$0-Vib-Depth;
#X obj 224 143 * 0.08;
#X obj 384 115 u_dispatch \$0 Vib-Restart;
#X msg 225 87 0;
#X obj 225 66 spigot;
#X obj 274 31 r \$0-Vib-Restart;
#X obj 37 52 t f f f;
#X obj 225 44 change;
#X obj 384 135 u_dispatch \$0 Pitch-Bend;
#X obj 37 193 *~;
#X obj 330 224 sig~ 1;
#X obj 330 176 r \$0-Pitch-Bend;
#X obj 127 193 *~;
#X obj 330 198 + 1;
#X connect 0 0 25 0;
#X connect 1 0 0 0;
#X connect 3 0 6 0;
#X connect 4 0 15 0;
#X connect 5 0 9 0;
#X connect 6 0 2 0;
#X connect 7 0 9 0;
#X connect 8 0 13 0;
#X connect 8 1 12 0;
#X connect 9 0 6 1;
#X connect 10 0 14 1;
#X connect 11 0 13 1;
#X connect 12 0 14 0;
#X connect 13 0 7 0;
#X connect 14 0 5 0;
#X connect 15 0 41 0;
#X connect 15 1 8 0;
#X connect 16 0 17 0;
#X connect 17 0 31 0;
#X connect 18 0 16 0;
#X connect 19 0 3 0;
#X connect 20 0 27 0;
#X connect 21 0 20 0;
#X connect 22 0 3 0;
#X connect 23 0 21 0;
#X connect 24 0 1 0;
#X connect 25 0 44 0;
#X connect 26 0 28 0;
#X connect 27 0 47 0;
#X connect 28 0 29 0;
#X connect 29 0 25 1;
#X connect 29 0 27 1;
#X connect 30 0 26 0;
#X connect 31 0 32 0;
#X connect 32 0 37 0;
#X connect 33 0 34 0;
#X connect 34 0 30 0;
#X connect 35 0 36 0;
#X connect 36 0 28 1;
#X connect 37 0 43 0;
#X connect 38 0 26 1;
#X connect 39 0 38 0;
#X connect 40 0 39 1;
#X connect 41 0 24 0;
#X connect 41 1 23 0;
#X connect 41 2 42 0;
#X connect 42 0 39 0;
#X connect 44 0 19 0;
#X connect 45 0 44 1;
#X connect 45 0 47 1;
#X connect 46 0 48 0;
#X connect 47 0 22 0;
#X connect 48 0 45 0;
