#N canvas 353 206 431 322 10;
#X obj 58 65 inlet;
#X obj 58 251 outlet;
#X msg 262 92 1;
#X obj 58 176 spigot;
#X msg 230 93 0;
#X text 13 289 (c) 2006 IOhannes m zmoelnig \, licensed under GnuGPL
v2.0;
#X obj 262 46 inlet reset;
#X text 48 12 [once]: better than [oneshot];
#X obj 200 133 int 1;
#X obj 58 94 trigger anything bang;
#X obj 58 202 trigger anything bang;
#X msg 262 70 bang;
#X connect 0 0 9 0;
#X connect 2 0 8 1;
#X connect 3 0 10 0;
#X connect 4 0 8 1;
#X connect 6 0 11 0;
#X connect 8 0 3 1;
#X connect 9 0 3 0;
#X connect 9 1 8 0;
#X connect 10 0 1 0;
#X connect 10 1 4 0;
#X connect 11 0 2 0;
