#N canvas 364 46 653 832 10;
#N canvas 682 118 895 770 loadMidiFileList 0;
#X msg 33 78 ../resources/midi/\$1-info.txt;
#X obj 33 48 symbol \$2;
#X msg 162 198 rewind;
#X obj 162 262 textfile;
#X msg 33 239 bang;
#X obj 153 381 u_collect;
#X msg 133 427 addcomma;
#X msg 291 497 set;
#X obj 162 168 t b a b;
#X msg 181 226 read \$1;
#X obj 33 138 t b a b;
#X obj 33 108 symbol;
#X obj 114 351 t b b a;
#X msg 397 575 guitar 140 0 140_22_2.mid \, guitar 140 1 140_17_2.mid
\, guitar 140 2 140_18_2.mid \, guitar 140 3 140_19_4.mid \, guitar
140 4 140_20_2.mid \, guitar 140 5 140_21_4.mid \,;
#X obj 397 547 t b;
#X obj 33 321 route \$2-count;
#X obj 72 539 u_collect;
#X msg 52 585 addcomma;
#X obj 33 509 t b b a;
#X obj 177 324 t b b;
#X msg 135 649 140 6 \,;
#X obj 33 18 inlet;
#X obj 397 518 inlet \$1-MIDI-\$2-getFilelist;
#X obj 135 585 inlet \$1-MIDI-\$2-getBPMCountList;
#X obj 136 877 outlet \$1-MIDI-\$2-filelist;
#X obj 135 683 outlet \$1-MIDI-\$2-BPMCountList;
#X connect 0 0 11 0;
#X connect 1 0 0 0;
#X connect 2 0 3 0;
#X connect 3 0 15 0;
#X connect 4 0 3 0;
#X connect 5 0 13 0;
#X connect 6 0 13 0;
#X connect 7 0 13 0;
#X connect 7 0 20 0;
#X connect 8 0 2 0;
#X connect 8 1 9 0;
#X connect 8 2 7 0;
#X connect 9 0 3 0;
#X connect 10 0 4 0;
#X connect 10 1 8 0;
#X connect 10 2 19 0;
#X connect 11 0 10 0;
#X connect 12 0 4 0;
#X connect 12 1 6 0;
#X connect 12 2 5 0;
#X connect 13 0 24 0;
#X connect 14 0 13 0;
#X connect 15 0 18 0;
#X connect 15 1 12 0;
#X connect 16 0 20 0;
#X connect 17 0 20 0;
#X connect 18 0 4 0;
#X connect 18 1 17 0;
#X connect 18 2 16 0;
#X connect 19 0 16 1;
#X connect 19 1 5 1;
#X connect 20 0 25 0;
#X connect 21 0 1 0;
#X connect 22 0 14 0;
#X connect 23 0 20 0;
#X restore 25 115 pd loadMidiFileList;
#X obj 25 25 loadbang;
#X obj 66 485 route;
#X obj 259 455 route;
#X obj 234 515 *;
#X obj 234 545 + 0.4999;
#X obj 234 575 int;
#X obj 259 485 - 1;
#X obj 66 695 route;
#X obj 281 395 t f f;
#X obj 66 455 route \$2;
#X obj 215 225 v \$1-CONTROLLER-\$2MIDIIndex;
#X obj 215 195 inlet \$1-INIT-bang;
#X obj 27 765 s \$1-MIDI-\$2;
#X obj 25 175 s \$0-MIDI-\$2-BPMCountList;
#X obj 80 55 r \$0-MIDI-\$2-getBPMCountList;
#X obj 136 85 r \$0-MIDI-\$2-getFilelist;
#X obj 136 145 s \$0-MIDI-\$2-filelist;
#X obj 254 313 s \$0-MIDI-\$2-getBPMCountList;
#X obj 242 705 s \$0-MIDI-\$2-getFilelist;
#X obj 259 425 r \$0-MIDI-\$2-BPMCountList;
#X obj 66 425 r \$0-MIDI-\$2-filelist;
#X obj 27 395 r \$3-MIDI-seqControls;
#X obj 215 255 t b f b;
#X obj 254 285 t b b;
#X obj 27 735 _seq_\$2;
#X obj 106 765 s MIDI-\$2;
#X obj 281 375 f 140;
#X obj 338 171 / 100;
#X obj 338 116 r generate-track-\$1;
#X obj 359 92 bng 15 250 50 0 empty empty empty 17 7 0 10 -262144 -1
-1;
#X obj 353 70 r new-\$2-midiFile;
#X obj 442 396 r alternate-\$2-midiFile;
#X obj 335 631 t b f;
#X obj 234 617 f;
#X obj 364 515 *;
#X obj 364 545 + 0.4999;
#X obj 364 575 int;
#X obj 442 440 random 100;
#X obj 442 462 / 100;
#X obj 461 511 r original-\$2-midiFile;
#X msg 442 418 bang;
#X obj 461 533 t b b;
#X floatatom 442 484 5 0 0 0 - - -, f 5;
#X msg 127 706 stop \, bang;
#X obj 215 676 t b b;
#X obj 418 172 r specific-\$2-midiFile;
#X obj 338 138 random 100;
#X obj 41 672 loadbang;
#X obj 523 245 mod 128;
#X floatatom 523 267 5 0 0 0 - - -, f 5;
#X obj 523 286 sel 0;
#X obj 523 308 f;
#X floatatom 523 330 5 0 0 0 - - -, f 5;
#X obj 523 223 r \$1-pre-tick;
#X obj 551 308 + 2;
#X floatatom 280 517 5 0 0 0 - - -, f 5;
#X obj 335 355 bng 15 250 50 0 empty empty empty 17 7 0 10 -262144
-1 -1;
#X obj 322 86 bng 15 250 50 0 empty empty empty 17 7 0 10 -262144 -1
-1;
#X floatatom 206 653 5 0 0 0 - - -, f 5;
#X floatatom 238 395 5 0 0 0 - - -, f 5;
#X msg 109 651 7;
#X obj 39 90 bng 15 250 50 0 empty empty empty 17 7 0 10 -262144 -1
-1;
#X obj 103 96 bng 15 250 50 0 empty empty empty 17 7 0 10 -262144 -1
-1;
#X connect 0 0 14 0;
#X connect 0 1 17 0;
#X connect 1 0 0 0;
#X connect 2 0 8 0;
#X connect 3 0 7 0;
#X connect 4 0 5 0;
#X connect 5 0 6 0;
#X connect 6 0 34 0;
#X connect 7 0 4 1;
#X connect 7 0 35 1;
#X connect 7 0 56 0;
#X connect 8 0 25 1;
#X connect 9 0 2 1;
#X connect 9 0 60 0;
#X connect 9 1 3 1;
#X connect 10 0 2 0;
#X connect 11 0 23 0;
#X connect 12 0 11 0;
#X connect 15 0 0 1;
#X connect 16 0 0 2;
#X connect 20 0 3 0;
#X connect 21 0 10 0;
#X connect 22 0 25 0;
#X connect 23 0 45 0;
#X connect 23 1 4 0;
#X connect 23 2 24 0;
#X connect 24 0 18 0;
#X connect 24 1 27 0;
#X connect 25 0 13 0;
#X connect 25 0 26 0;
#X connect 27 0 9 0;
#X connect 28 0 23 0;
#X connect 29 0 47 0;
#X connect 31 0 47 0;
#X connect 32 0 41 0;
#X connect 33 0 45 0;
#X connect 33 1 8 1;
#X connect 34 0 8 1;
#X connect 34 0 59 0;
#X connect 35 0 36 0;
#X connect 36 0 37 0;
#X connect 37 0 33 0;
#X connect 38 0 39 0;
#X connect 39 0 35 0;
#X connect 39 0 43 0;
#X connect 40 0 42 0;
#X connect 41 0 38 0;
#X connect 42 0 45 0;
#X connect 42 1 34 0;
#X connect 44 0 25 0;
#X connect 45 0 44 0;
#X connect 45 1 19 0;
#X connect 46 0 23 0;
#X connect 47 0 28 0;
#X connect 48 0 25 0;
#X connect 49 0 50 0;
#X connect 50 0 51 0;
#X connect 51 0 52 0;
#X connect 52 0 53 0;
#X connect 52 0 55 0;
#X connect 54 0 49 0;
#X connect 55 0 52 1;
#X connect 57 0 3 0;
#X connect 58 0 47 0;
#X connect 61 0 8 1;
#X connect 62 0 0 0;
#X connect 63 0 0 2;
