#N canvas 1256 91 489 793 10;
#N canvas 156 58 895 770 loadMidiFileList 0;
#X msg 33 78 ../resources/midi/\$1-info.txt;
#X obj 33 48 symbol \$2;
#X msg 162 198 rewind;
#X obj 162 262 textfile;
#X msg 33 239 bang;
#X obj 153 381 u_collect;
#X msg 133 427 addcomma;
#X msg 291 497 set;
#X obj 162 168 t b a b;
#X msg 181 226 read \$1;
#X obj 33 138 t b a b;
#X obj 33 108 symbol;
#X obj 114 351 t b b a;
#X msg 397 575 chords 90 0 90_0_4.mid \, chords 90 1 90_1_4.mid \,
chords 90 2 90_2_4.mid \, chords 90 3 90_3_2.mid \, chords 90 4 90_4_4.mid
\, chords 90 5 90_5_3.mid \, chords 90 6 90_6_4.mid \, chords 90 7
90_7_4.mid \, chords 90 8 90_8_4.mid \, chords 90 9 90_9_4.mid \, chords
90 10 90_10_4.mid \, chords 90 11 90_11_4.mid \, chords 90 12 90_12_4.mid
\, chords 90 13 90_13_4.mid \, chords 90 14 90_14_4.mid \, chords 90
15 90_15_4.mid \, chords 90 16 90_16_4.mid \, chords 90 17 90_17_4.mid
\, chords 90 18 90_18_4.mid \, chords 90 19 90_19_4.mid \, chords 90
20 90_20_4.mid \, chords 90 21 90_21_4.mid \, chords 90 22 90_22_4.mid
\, chords 90 23 90_23_4.mid \, chords 90 24 90_24_4.mid \, chords 110
0 110_0_4.mid \, chords 110 1 110_1_4.mid \, chords 110 2 110_2_4.mid
\, chords 110 3 110_3_2.mid \, chords 110 4 110_4_4.mid \, chords 110
5 110_5_4.mid \, chords 110 6 110_6_4.mid \, chords 110 7 110_7_4.mid
\, chords 110 8 110_8_4.mid \, chords 110 9 110_9_4.mid \, chords 110
10 110_10_4.mid \, chords 110 11 110_11_4.mid \, chords 110 12 110_12_4.mid
\, chords 110 13 110_13_4.mid \, chords 110 14 110_14_4.mid \, chords
110 15 110_15_4.mid \, chords 110 16 110_16_4.mid \, chords 110 17
110_17_4.mid \, chords 110 18 110_18_4.mid \, chords 110 19 110_19_4.mid
\, chords 125 0 125_4_4.mid \, chords 125 1 125_6_4.mid \, chords 125
2 125_7_4.mid \, chords 125 3 125_8_4.mid \, chords 125 4 125_9_4.mid
\, chords 125 5 125_10_4.mid \, chords 125 6 125_11_4.mid \, chords
125 7 125_12_4.mid \, chords 125 8 125_13_4.mid \, chords 125 9 125_15_4.mid
\, chords 125 10 125_16_4.mid \, chords 125 11 125_20_2.mid \, chords
125 12 125_21_4.mid \, chords 140 0 140_0_4.mid \, chords 140 1 140_1_3.mid
\, chords 140 2 140_2_4.mid \, chords 140 3 140_3_4.mid \, chords 140
4 140_4_2.mid \, chords 140 5 140_5_3.mid \, chords 140 6 140_6_2.mid
\, chords 140 7 140_7_2.mid \, chords 140 8 140_8_4.mid \, chords 140
9 140_9_4.mid \, chords 140 10 140_10_4.mid \, chords 140 11 140_11_4.mid
\, chords 140 12 140_12_4.mid \, chords 140 13 140_13_2.mid \, chords
140 14 140_14_4.mid \, chords 140 15 140_15_4.mid \, chords 140 16
140_16_2.mid \, chords 140 17 140_17_2.mid \, chords 140 18 140_18_2.mid
\, chords 140 19 140_19_4.mid \, chords 160 0 160_0_4.mid \, chords
160 1 160_1_4.mid \, chords 160 2 160_2_4.mid \, chords 160 3 160_3_2.mid
\, chords 160 4 160_4_4.mid \, chords 160 5 160_5_4.mid \, chords 160
6 160_6_4.mid \, chords 160 7 160_7_3.mid \, chords 160 8 160_8_3.mid
\, chords 160 9 160_9_4.mid \, chords 160 10 160_10_1.mid \, chords
160 11 160_11_4.mid \, chords 160 12 160_12_4.mid \, chords 160 13
160_13_4.mid \, chords 160 14 160_14_4.mid \, chords 160 15 160_15_4.mid
\, chords 160 16 160_16_2.mid \, chords 180 0 180_1_4.mid \, chords
180 1 180_3_8.mid \, chords 180 2 180_4_4.mid \, chords 180 3 180_5_4.mid
\, chords 180 4 180_6_4.mid \, chords 180 5 180_7_8.mid \, chords 180
6 180_8_8.mid \, chords 180 7 180_9_4.mid \, chords 180 8 180_10_4.mid
\, chords 180 9 180_11_4.mid \, chords 180 10 180_12_4.mid \, chords
180 11 180_13_4.mid \,;
#X obj 397 547 t b;
#X obj 33 321 route \$2-count;
#X obj 72 539 u_collect;
#X msg 52 585 addcomma;
#X obj 33 509 t b b a;
#X obj 177 324 t b b;
#X msg 135 649 90 25 \, 110 20 \, 125 13 \, 140 20 \, 160 17 \, 180
12 \,;
#X obj 33 18 inlet;
#X obj 397 518 inlet \$1-MIDI-\$2-getFilelist;
#X obj 135 585 inlet \$1-MIDI-\$2-getBPMCountList;
#X obj 136 877 outlet \$1-MIDI-\$2-filelist;
#X obj 135 683 outlet \$1-MIDI-\$2-BPMCountList;
#X connect 0 0 11 0;
#X connect 1 0 0 0;
#X connect 2 0 3 0;
#X connect 3 0 15 0;
#X connect 4 0 3 0;
#X connect 5 0 13 0;
#X connect 6 0 13 0;
#X connect 7 0 13 0;
#X connect 7 0 20 0;
#X connect 8 0 2 0;
#X connect 8 1 9 0;
#X connect 8 2 7 0;
#X connect 9 0 3 0;
#X connect 10 0 4 0;
#X connect 10 1 8 0;
#X connect 10 2 19 0;
#X connect 11 0 10 0;
#X connect 12 0 4 0;
#X connect 12 1 6 0;
#X connect 12 2 5 0;
#X connect 13 0 24 0;
#X connect 14 0 13 0;
#X connect 15 0 18 0;
#X connect 15 1 12 0;
#X connect 16 0 20 0;
#X connect 17 0 20 0;
#X connect 18 0 4 0;
#X connect 18 1 17 0;
#X connect 18 2 16 0;
#X connect 19 0 16 1;
#X connect 19 1 5 1;
#X connect 20 0 25 0;
#X connect 21 0 1 0;
#X connect 22 0 14 0;
#X connect 23 0 20 0;
#X restore 25 115 pd loadMidiFileList;
#X obj 25 25 loadbang;
#X obj 66 485 route;
#X obj 259 455 route;
#X obj 234 515 *;
#X obj 234 545 + 0.4999;
#X obj 234 575 int;
#X obj 259 485 - 1;
#X obj 66 645 route;
#X obj 281 395 t f f;
#X obj 66 455 route \$2;
#X obj 215 225 v \$1-CONTROLLER-\$2MIDIIndex;
#X obj 215 195 inlet \$1-INIT-bang;
#X obj 27 715 s \$1-MIDI-\$2;
#X obj 25 175 s \$0-MIDI-\$2-BPMCountList;
#X obj 80 55 r \$0-MIDI-\$2-getBPMCountList;
#X obj 136 85 r \$0-MIDI-\$2-getFilelist;
#X obj 136 145 s \$0-MIDI-\$2-filelist;
#X obj 254 313 s \$0-MIDI-\$2-getBPMCountList;
#X obj 215 615 s \$0-MIDI-\$2-getFilelist;
#X obj 259 425 r \$0-MIDI-\$2-BPMCountList;
#X obj 66 425 r \$0-MIDI-\$2-filelist;
#X obj 27 395 r \$3-MIDI-seqControls;
#X obj 215 255 t b f b;
#X obj 254 285 t b b;
#X obj 27 685 _seq_\$2;
#X obj 106 715 s MIDI-\$2;
#X obj 281 375 f 140;
#X obj 338 149 random 100;
#X obj 338 171 / 100;
#X obj 338 126 r generate-track-\$1;
#X obj 359 102 bng 15 250 50 0 empty empty empty 17 7 0 10 -262144
-1 -1;
#X obj 43 68 bng 15 250 50 0 empty empty empty 17 7 0 10 -262144 -1
-1;
#X floatatom 244 597 5 0 0 0 - - -, f 5;
#X connect 0 0 14 0;
#X connect 0 1 17 0;
#X connect 1 0 0 0;
#X connect 2 0 8 0;
#X connect 3 0 7 0;
#X connect 4 0 5 0;
#X connect 5 0 6 0;
#X connect 6 0 33 0;
#X connect 6 0 8 1;
#X connect 7 0 4 1;
#X connect 8 0 25 1;
#X connect 9 0 2 1;
#X connect 9 1 3 1;
#X connect 10 0 2 0;
#X connect 11 0 23 0;
#X connect 12 0 11 0;
#X connect 15 0 0 1;
#X connect 16 0 0 2;
#X connect 20 0 3 0;
#X connect 21 0 10 0;
#X connect 22 0 25 0;
#X connect 23 0 19 0;
#X connect 23 1 4 0;
#X connect 23 2 24 0;
#X connect 24 0 18 0;
#X connect 24 1 27 0;
#X connect 25 0 13 0;
#X connect 25 0 26 0;
#X connect 27 0 9 0;
#X connect 28 0 29 0;
#X connect 29 0 23 0;
#X connect 30 0 28 0;
#X connect 31 0 28 0;
#X connect 32 0 0 0;
