#N canvas 716 63 489 793 10;
#N canvas 156 58 663 766 loadMidiFileList 0;
#X msg 33 78 ../resources/midi/\$1-info.txt;
#X obj 33 48 symbol \$2;
#X msg 162 198 rewind;
#X obj 162 262 textfile;
#X msg 33 239 bang;
#X obj 153 381 u_collect;
#X msg 133 427 addcomma;
#X msg 291 497 set;
#X obj 162 168 t b a b;
#X msg 181 226 read \$1;
#X obj 33 138 t b a b;
#X obj 33 108 symbol;
#X obj 114 351 t b b a;
#X msg 397 575 bass 90 0 90_bass_0.mid \, bass 90 1 90_bass_1.mid \,
bass 90 2 90_bass_2.mid \, bass 90 3 90_bass_3.mid \, bass 90 4 90_bass_4.mid
\, bass 90 5 90_bass_5.mid \, bass 90 6 90_bass_6.mid \, bass 90 7
90_bass_7.mid \, bass 90 8 90_bass_8.mid \, bass 90 9 90_bass_9.mid
\, bass 90 10 90_bass_10.mid \, bass 90 11 90_bass_11.mid \, bass 90
12 90_bass_12.mid \, bass 90 13 90_bass_13.mid \, bass 90 14 90_bass_14.mid
\, bass 110 0 110_bass_0.mid \, bass 110 1 110_bass_1.mid \, bass 110
2 110_bass_2.mid \, bass 110 3 110_bass_3.mid \, bass 110 4 110_bass_4.mid
\, bass 110 5 110_bass_5.mid \, bass 110 6 110_bass_6.mid \, bass 110
7 110_bass_7.mid \, bass 110 8 110_bass_10.mid \, bass 110 9 110_bass_11.mid
\, bass 110 10 110_bass_12.mid \, bass 110 11 110_bass_13.mid \, bass
110 12 110_bass_14.mid \, bass 125 0 125_bass_0.mid \, bass 125 1 125_bass_1.mid
\, bass 125 2 125_bass_2.mid \, bass 125 3 125_bass_3.mid \, bass 125
4 125_bass_4.mid \, bass 125 5 125_bass_5.mid \, bass 125 6 125_bass_6.mid
\, bass 125 7 125_bass_7.mid \, bass 125 8 125_bass_8.mid \, bass 125
9 125_bass_9.mid \, bass 125 10 125_bass_10.mid \, bass 125 11 125_bass_11.mid
\, bass 125 12 125_bass_12.mid \, bass 125 13 125_bass_13.mid \, bass
125 14 125_bass_14.mid \, bass 140 0 140_bass_0.mid \, bass 140 1 140_bass_1.mid
\, bass 140 2 140_bass_2.mid \, bass 140 3 140_bass_3.mid \, bass 140
4 140_bass_4.mid \, bass 140 5 140_bass_5.mid \, bass 140 6 140_bass_6.mid
\, bass 140 7 140_bass_7.mid \, bass 140 8 140_bass_8.mid \, bass 140
9 140_bass_9.mid \, bass 140 10 140_bass_10.mid \, bass 140 11 140_bass_11.mid
\, bass 140 12 140_bass_12.mid \, bass 140 13 140_bass_13.mid \, bass
140 14 140_bass_14.mid \, bass 160 0 160_bass_0.mid \, bass 160 1 160_bass_1.mid
\, bass 160 2 160_bass_2.mid \, bass 160 3 160_bass_3.mid \, bass 160
4 160_bass_4.mid \, bass 160 5 160_bass_5.mid \, bass 160 6 160_bass_6.mid
\, bass 160 7 160_bass_7.mid \, bass 160 8 160_bass_8.mid \, bass 160
9 160_bass_9.mid \, bass 160 10 160_bass_10.mid \, bass 160 11 160_bass_11.mid
\, bass 160 12 160_bass_12.mid \, bass 160 13 160_bass_13.mid \, bass
160 14 160_bass_14.mid \, bass 180 0 180_1_4_bass1.mid \, bass 180
1 180_1_4_bass2.mid \, bass 180 2 180_2_8_bass1.mid \, bass 180 3 180_2_8_bass2.mid
\, bass 180 4 180_3_8_bass1.mid \, bass 180 5 180_3_8_bass2.mid \,
bass 180 6 180_4_4_bass1.mid \, bass 180 7 180_4_4_bass2.mid \, bass
180 8 180_5_4_bass1.mid \, bass 180 9 180_5_4_bass2.mid \, bass 180
10 180_7_8_bass1.mid \, bass 180 11 180_7_8_bass2.mid \, bass 180 12
180_8_8_bass1.mid \, bass 180 13 180_8_8_bass2.mid \, bass 180 14 180_9_4_bass1.mid
\, bass 180 15 180_9_4_bass2.mid \, bass 180 16 180_10_4_bass1.mid
\, bass 180 17 180_10_4_bass2.mid \, bass 180 18 180_11_4_bass1.mid
\, bass 180 19 180_11_4_bass2.mid \, bass 180 20 180_12_4_bass1.mid
\, bass 180 21 180_12_4_bass2.mid \, bass 180 22 180_13_4_bass1.mid
\, bass 180 23 180_13_4_bass2.mid \,;
#X obj 397 547 t b;
#X obj 33 321 route \$2-count;
#X obj 72 539 u_collect;
#X msg 52 585 addcomma;
#X obj 33 509 t b b a;
#X obj 177 324 t b b;
#X msg 135 649 90 15 \, 110 13 \, 125 15 \, 140 15 \, 160 15 \, 180
24 \,;
#X obj 33 18 inlet;
#X obj 397 518 inlet \$1-MIDI-\$2-getFilelist;
#X obj 135 585 inlet \$1-MIDI-\$2-getBPMCountList;
#X obj 136 877 outlet \$1-MIDI-\$2-filelist;
#X obj 135 683 outlet \$1-MIDI-\$2-BPMCountList;
#X connect 0 0 11 0;
#X connect 1 0 0 0;
#X connect 2 0 3 0;
#X connect 3 0 15 0;
#X connect 4 0 3 0;
#X connect 5 0 13 0;
#X connect 6 0 13 0;
#X connect 7 0 13 0;
#X connect 7 0 20 0;
#X connect 8 0 2 0;
#X connect 8 1 9 0;
#X connect 8 2 7 0;
#X connect 9 0 3 0;
#X connect 10 0 4 0;
#X connect 10 1 8 0;
#X connect 10 2 19 0;
#X connect 11 0 10 0;
#X connect 12 0 4 0;
#X connect 12 1 6 0;
#X connect 12 2 5 0;
#X connect 13 0 24 0;
#X connect 14 0 13 0;
#X connect 15 0 18 0;
#X connect 15 1 12 0;
#X connect 16 0 20 0;
#X connect 17 0 20 0;
#X connect 18 0 4 0;
#X connect 18 1 17 0;
#X connect 18 2 16 0;
#X connect 19 0 16 1;
#X connect 19 1 5 1;
#X connect 20 0 25 0;
#X connect 21 0 1 0;
#X connect 22 0 14 0;
#X connect 23 0 20 0;
#X restore 25 115 pd loadMidiFileList;
#X obj 25 25 loadbang;
#X obj 66 515 route;
#X obj 281 405 v \$1-TIMEBASE-BPM;
#X obj 259 485 route;
#X obj 234 545 *;
#X obj 234 575 + 0.4999;
#X obj 234 605 int;
#X obj 259 515 - 1;
#X obj 66 675 route;
#X obj 281 425 t f f;
#X obj 66 485 route \$2;
#X obj 215 255 v \$1-CONTROLLER-\$2MIDIIndex;
#X obj 215 195 inlet \$1-INIT-bang;
#X obj 27 745 s \$1-MIDI-\$2;
#X obj 25 175 s \$0-MIDI-\$2-BPMCountList;
#X obj 80 55 r \$0-MIDI-\$2-getBPMCountList;
#X obj 136 85 r \$0-MIDI-\$2-getFilelist;
#X obj 136 145 s \$0-MIDI-\$2-filelist;
#X obj 254 343 s \$0-MIDI-\$2-getBPMCountList;
#X obj 215 645 s \$0-MIDI-\$2-getFilelist;
#X obj 259 455 r \$0-MIDI-\$2-BPMCountList;
#X obj 66 455 r \$0-MIDI-\$2-filelist;
#X obj 27 425 r \$3-MIDI-seqControls;
#X obj 215 285 t b f b;
#X obj 254 315 t b b;
#X obj 27 715 _seq_\$2;
#X obj 106 745 s MIDI-\$2;
#X connect 0 0 15 0;
#X connect 0 1 18 0;
#X connect 1 0 0 0;
#X connect 2 0 9 0;
#X connect 3 0 10 0;
#X connect 4 0 8 0;
#X connect 5 0 6 0;
#X connect 6 0 7 0;
#X connect 7 0 9 1;
#X connect 8 0 5 1;
#X connect 9 0 26 1;
#X connect 10 0 2 1;
#X connect 10 1 4 1;
#X connect 11 0 2 0;
#X connect 12 0 24 0;
#X connect 13 0 12 0;
#X connect 16 0 0 1;
#X connect 17 0 0 2;
#X connect 21 0 4 0;
#X connect 22 0 11 0;
#X connect 23 0 26 0;
#X connect 24 0 20 0;
#X connect 24 1 5 0;
#X connect 24 2 25 0;
#X connect 25 0 19 0;
#X connect 25 1 3 0;
#X connect 26 0 14 0;
#X connect 26 0 27 0;
