#N canvas 1075 93 653 832 10;
#N canvas 156 58 895 770 loadMidiFileList 0;
#X msg 33 78 ../resources/midi/\$1-info.txt;
#X obj 33 48 symbol \$2;
#X msg 162 198 rewind;
#X obj 162 262 textfile;
#X msg 33 239 bang;
#X obj 153 381 u_collect;
#X msg 133 427 addcomma;
#X msg 291 497 set;
#X obj 162 168 t b a b;
#X msg 181 226 read \$1;
#X obj 33 138 t b a b;
#X obj 33 108 symbol;
#X obj 114 351 t b b a;
#X msg 397 575 voices 90 0 90_voices_0_4.mid \, voices 90 1 90_voices_1_4.mid
\, voices 90 2 90_voices_2_4.mid \, voices 110 0 110_voices_0_4.mid
\, voices 110 1 110_voices_1_4.mid \, voices 110 2 110_voices_2_4.mid
\, voices 125 0 125_voices_0_4.mid \, voices 125 1 125_voices_1_4.mid
\, voices 125 2 125_voices_2_4.mid \, voices 140 0 140_voices_0_4.mid
\, voices 140 1 140_voices_1_4.mid \, voices 140 2 140_voices_2_4.mid
\, voices 160 0 160_voices_0_4.mid \, voices 160 1 160_voices_1_4.mid
\, voices 160 2 160_voices_2_4.mid \, voices 180 0 180_voices_0_4.mid
\, voices 180 1 180_voices_1_4.mid \, voices 180 2 180_voices_2_4.mid
\,;
#X obj 397 547 t b;
#X obj 33 321 route \$2-count;
#X obj 72 539 u_collect;
#X msg 52 585 addcomma;
#X obj 33 509 t b b a;
#X obj 177 324 t b b;
#X msg 135 649 90 3 \, 110 3 \, 125 3 \, 140 3 \, 160 3 \, 180 3 \,
;
#X obj 33 18 inlet;
#X obj 397 518 inlet \$1-MIDI-\$2-getFilelist;
#X obj 135 585 inlet \$1-MIDI-\$2-getBPMCountList;
#X obj 136 877 outlet \$1-MIDI-\$2-filelist;
#X obj 135 683 outlet \$1-MIDI-\$2-BPMCountList;
#X connect 0 0 11 0;
#X connect 1 0 0 0;
#X connect 2 0 3 0;
#X connect 3 0 15 0;
#X connect 4 0 3 0;
#X connect 5 0 13 0;
#X connect 6 0 13 0;
#X connect 7 0 13 0;
#X connect 7 0 20 0;
#X connect 8 0 2 0;
#X connect 8 1 9 0;
#X connect 8 2 7 0;
#X connect 9 0 3 0;
#X connect 10 0 4 0;
#X connect 10 1 8 0;
#X connect 10 2 19 0;
#X connect 11 0 10 0;
#X connect 12 0 4 0;
#X connect 12 1 6 0;
#X connect 12 2 5 0;
#X connect 13 0 24 0;
#X connect 14 0 13 0;
#X connect 15 0 18 0;
#X connect 15 1 12 0;
#X connect 16 0 20 0;
#X connect 17 0 20 0;
#X connect 18 0 4 0;
#X connect 18 1 17 0;
#X connect 18 2 16 0;
#X connect 19 0 16 1;
#X connect 19 1 5 1;
#X connect 20 0 25 0;
#X connect 21 0 1 0;
#X connect 22 0 14 0;
#X connect 23 0 20 0;
#X restore 25 115 pd loadMidiFileList;
#X obj 25 25 loadbang;
#X obj 66 485 route;
#X obj 259 455 route;
#X obj 234 515 *;
#X obj 234 545 + 0.4999;
#X obj 234 575 int;
#X obj 259 485 - 1;
#X obj 66 695 route;
#X obj 281 395 t f f;
#X obj 66 455 route \$2;
#X obj 215 225 v \$1-CONTROLLER-\$2MIDIIndex;
#X obj 215 195 inlet \$1-INIT-bang;
#X obj 27 765 s \$1-MIDI-\$2;
#X obj 25 175 s \$0-MIDI-\$2-BPMCountList;
#X obj 80 55 r \$0-MIDI-\$2-getBPMCountList;
#X obj 136 85 r \$0-MIDI-\$2-getFilelist;
#X obj 136 145 s \$0-MIDI-\$2-filelist;
#X obj 254 313 s \$0-MIDI-\$2-getBPMCountList;
#X obj 242 705 s \$0-MIDI-\$2-getFilelist;
#X obj 259 425 r \$0-MIDI-\$2-BPMCountList;
#X obj 66 425 r \$0-MIDI-\$2-filelist;
#X obj 27 395 r \$3-MIDI-seqControls;
#X obj 215 255 t b f b;
#X obj 254 285 t b b;
#X obj 27 735 _seq_\$2;
#X obj 106 765 s MIDI-\$2;
#X obj 281 375 f 140;
#X obj 338 171 / 100;
#X obj 338 116 r generate-track-\$1;
#X obj 359 92 bng 15 250 50 0 empty empty empty 17 7 0 10 -262144 -1
-1;
#X obj 43 68 bng 15 250 50 0 empty empty empty 17 7 0 10 -262144 -1
-1;
#X obj 353 70 r new-\$2-midiFile;
#X obj 442 396 r alternate-\$2-midiFile;
#X obj 335 631 t b f;
#X obj 234 617 f;
#X obj 364 515 *;
#X obj 364 545 + 0.4999;
#X obj 364 575 int;
#X obj 442 440 random 100;
#X obj 442 462 / 100;
#X obj 461 511 r original-\$2-midiFile;
#X msg 442 418 bang;
#X obj 461 533 t b b;
#X floatatom 442 484 5 0 0 0 - - -, f 5;
#X msg 127 706 stop \, bang;
#X obj 215 676 t b b;
#X obj 418 172 r specific-\$2-midiFile;
#X obj 338 138 random 100;
#X connect 0 0 14 0;
#X connect 0 1 17 0;
#X connect 1 0 0 0;
#X connect 2 0 8 0;
#X connect 3 0 7 0;
#X connect 4 0 5 0;
#X connect 5 0 6 0;
#X connect 6 0 35 0;
#X connect 7 0 4 1;
#X connect 7 0 36 1;
#X connect 8 0 25 1;
#X connect 9 0 2 1;
#X connect 9 1 3 1;
#X connect 10 0 2 0;
#X connect 11 0 23 0;
#X connect 12 0 11 0;
#X connect 15 0 0 1;
#X connect 16 0 0 2;
#X connect 20 0 3 0;
#X connect 21 0 10 0;
#X connect 22 0 25 0;
#X connect 23 0 46 0;
#X connect 23 1 4 0;
#X connect 23 2 24 0;
#X connect 24 0 18 0;
#X connect 24 1 27 0;
#X connect 25 0 13 0;
#X connect 25 0 26 0;
#X connect 27 0 9 0;
#X connect 28 0 23 0;
#X connect 29 0 48 0;
#X connect 31 0 0 0;
#X connect 32 0 48 0;
#X connect 33 0 42 0;
#X connect 34 0 46 0;
#X connect 34 1 8 1;
#X connect 35 0 8 1;
#X connect 36 0 37 0;
#X connect 37 0 38 0;
#X connect 38 0 34 0;
#X connect 39 0 40 0;
#X connect 40 0 36 0;
#X connect 40 0 44 0;
#X connect 41 0 43 0;
#X connect 42 0 39 0;
#X connect 43 0 46 0;
#X connect 43 1 35 0;
#X connect 45 0 25 0;
#X connect 46 0 45 0;
#X connect 46 1 19 0;
#X connect 47 0 23 0;
#X connect 48 0 28 0;
