#N canvas 464 34 752 861 10;
#N canvas 682 118 895 770 loadMidiFileList 0;
#X msg 33 78 ../resources/midi/\$1-info.txt;
#X obj 33 48 symbol \$2;
#X msg 162 198 rewind;
#X obj 162 262 textfile;
#X msg 33 239 bang;
#X obj 153 381 u_collect;
#X msg 133 427 addcomma;
#X msg 291 497 set;
#X obj 162 168 t b a b;
#X msg 181 226 read \$1;
#X obj 33 138 t b a b;
#X obj 33 108 symbol;
#X obj 114 351 t b b a;
#X msg 397 575 guitar 140 0 140_0_2.mid \, guitar 140 1 140_1_2.mid
\, guitar 140 2 140_2_2.mid \, guitar 140 3 140_3_4.mid \, guitar 140
4 140_4_2.mid \, guitar 140 5 140_5_4.mid \,;
#X obj 397 547 t b;
#X obj 33 321 route \$2-count;
#X obj 72 539 u_collect;
#X msg 52 585 addcomma;
#X obj 33 509 t b b a;
#X obj 177 324 t b b;
#X msg 135 649 140 6 \,;
#X obj 33 18 inlet;
#X obj 397 518 inlet \$1-MIDI-\$2-getFilelist;
#X obj 135 585 inlet \$1-MIDI-\$2-getBPMCountList;
#X obj 136 877 outlet \$1-MIDI-\$2-filelist;
#X obj 135 683 outlet \$1-MIDI-\$2-BPMCountList;
#X connect 0 0 11 0;
#X connect 1 0 0 0;
#X connect 2 0 3 0;
#X connect 3 0 15 0;
#X connect 4 0 3 0;
#X connect 5 0 13 0;
#X connect 6 0 13 0;
#X connect 7 0 13 0;
#X connect 7 0 20 0;
#X connect 8 0 2 0;
#X connect 8 1 9 0;
#X connect 8 2 7 0;
#X connect 9 0 3 0;
#X connect 10 0 4 0;
#X connect 10 1 8 0;
#X connect 10 2 19 0;
#X connect 11 0 10 0;
#X connect 12 0 4 0;
#X connect 12 1 6 0;
#X connect 12 2 5 0;
#X connect 13 0 24 0;
#X connect 14 0 13 0;
#X connect 15 0 18 0;
#X connect 15 1 12 0;
#X connect 16 0 20 0;
#X connect 17 0 20 0;
#X connect 18 0 4 0;
#X connect 18 1 17 0;
#X connect 18 2 16 0;
#X connect 19 0 16 1;
#X connect 19 1 5 1;
#X connect 20 0 25 0;
#X connect 21 0 1 0;
#X connect 22 0 14 0;
#X connect 23 0 20 0;
#X restore 25 115 pd loadMidiFileList;
#X obj 25 25 loadbang;
#X obj 66 485 route;
#X obj 259 455 route;
#X obj 234 515 *;
#X obj 234 545 + 0.4999;
#X obj 234 575 int;
#X obj 259 485 - 1;
#X obj 66 695 route;
#X obj 281 395 t f f;
#X obj 66 455 route \$2;
#X obj 215 225 v \$1-CONTROLLER-\$2MIDIIndex;
#X obj 215 195 inlet \$1-INIT-bang;
#X obj 27 765 s \$1-MIDI-\$2;
#X obj 25 175 s \$0-MIDI-\$2-BPMCountList;
#X obj 80 55 r \$0-MIDI-\$2-getBPMCountList;
#X obj 136 85 r \$0-MIDI-\$2-getFilelist;
#X obj 136 145 s \$0-MIDI-\$2-filelist;
#X obj 254 313 s \$0-MIDI-\$2-getBPMCountList;
#X obj 242 705 s \$0-MIDI-\$2-getFilelist;
#X obj 259 425 r \$0-MIDI-\$2-BPMCountList;
#X obj 66 425 r \$0-MIDI-\$2-filelist;
#X obj 27 395 r \$3-MIDI-seqControls;
#X obj 215 255 t b f b;
#X obj 254 285 t b b;
#X obj 27 735 _seq_\$2;
#X obj 106 765 s MIDI-\$2;
#X obj 281 375 f 140;
#X obj 338 171 / 100;
#X obj 338 76 r generate-track-\$1;
#X obj 353 30 r new-\$2-midiFile;
#X obj 442 396 r alternate-\$2-midiFile;
#X obj 335 631 t b f;
#X obj 234 617 f;
#X obj 364 515 *;
#X obj 364 545 + 0.4999;
#X obj 364 575 int;
#X obj 442 440 random 100;
#X obj 442 462 / 100;
#X obj 461 511 r original-\$2-midiFile;
#X msg 442 418 bang;
#X obj 461 533 t b b;
#X floatatom 442 484 5 0 0 0 - - -, f 5;
#X msg 127 706 stop \, bang;
#X obj 215 676 t b b;
#X obj 418 172 r specific-\$2-midiFile;
#X obj 338 148 random 100;
#X obj 41 672 loadbang;
#X floatatom 280 517 5 0 0 0 - - -, f 5;
#X obj 335 355 bng 15 250 50 0 empty empty empty 17 7 0 10 -262144
-1 -1;
#X floatatom 206 653 5 0 0 0 - - -, f 5;
#X floatatom 238 395 5 0 0 0 - - -, f 5;
#X msg 109 651 7;
#X obj 39 90 bng 15 250 50 0 empty empty empty 17 7 0 10 -262144 -1
-1;
#X obj 103 96 bng 15 250 50 0 empty empty empty 17 7 0 10 -262144 -1
-1;
#X floatatom 243 356 5 0 0 0 - - -, f 5;
#X obj 499 27 r \$1-ambient-genre;
#X obj 499 49 symbol;
#X obj 499 72 sel dubstep dub;
#X msg 499 94 100;
#X msg 537 95 68;
#X obj 499 116 spigot;
#X obj 621 19 loadbang;
#X obj 621 41 symbol \$2;
#X obj 621 63 sel chords;
#X msg 621 85 1;
#X floatatom 366 659 5 0 0 0 - - -, f 5;
#X obj 371 115 bng 15 250 50 0 empty empty empty 17 7 0 10 -262144
-1 -1;
#X obj 685 15 bng 15 250 50 0 empty empty empty 17 7 0 10 -262144 -1
-1;
#X floatatom 419 237 5 0 0 0 - - -, f 5;
#X obj 79 523 print;
#X connect 0 0 14 0;
#X connect 0 1 17 0;
#X connect 1 0 0 0;
#X connect 2 0 8 0;
#X connect 3 0 7 0;
#X connect 4 0 5 0;
#X connect 5 0 6 0;
#X connect 6 0 33 0;
#X connect 7 0 4 1;
#X connect 7 0 34 1;
#X connect 7 0 48 0;
#X connect 8 0 25 1;
#X connect 9 0 2 1;
#X connect 9 0 51 0;
#X connect 9 1 3 1;
#X connect 10 0 2 0;
#X connect 11 0 23 0;
#X connect 12 0 11 0;
#X connect 15 0 0 1;
#X connect 16 0 0 2;
#X connect 20 0 3 0;
#X connect 21 0 10 0;
#X connect 22 0 25 0;
#X connect 23 0 44 0;
#X connect 23 1 4 0;
#X connect 23 1 55 0;
#X connect 23 2 24 0;
#X connect 24 0 18 0;
#X connect 24 1 27 0;
#X connect 25 0 13 0;
#X connect 25 0 26 0;
#X connect 27 0 9 0;
#X connect 28 0 23 0;
#X connect 29 0 46 0;
#X connect 30 0 46 0;
#X connect 31 0 40 0;
#X connect 32 0 44 0;
#X connect 32 1 8 1;
#X connect 32 1 66 0;
#X connect 33 0 8 1;
#X connect 33 0 50 0;
#X connect 34 0 35 0;
#X connect 35 0 36 0;
#X connect 36 0 32 0;
#X connect 37 0 38 0;
#X connect 38 0 34 0;
#X connect 38 0 42 0;
#X connect 39 0 41 0;
#X connect 40 0 37 0;
#X connect 41 0 44 0;
#X connect 41 1 33 0;
#X connect 43 0 25 0;
#X connect 44 0 43 0;
#X connect 44 1 19 0;
#X connect 45 0 23 0;
#X connect 46 0 28 0;
#X connect 47 0 25 0;
#X connect 49 0 3 0;
#X connect 52 0 8 1;
#X connect 53 0 0 0;
#X connect 54 0 0 2;
#X connect 56 0 57 0;
#X connect 57 0 58 0;
#X connect 58 0 59 0;
#X connect 58 1 60 0;
#X connect 59 0 61 0;
#X connect 60 0 61 0;
#X connect 61 0 46 1;
#X connect 61 0 37 1;
#X connect 62 0 63 0;
#X connect 63 0 64 0;
#X connect 64 0 65 0;
#X connect 65 0 61 1;
#X connect 67 0 46 0;
#X connect 68 0 63 0;
#X connect 69 0 28 0;
