#N canvas 353 148 632 490 10;
#X obj 81 244 throw~ track-\$1-LEFT;
#X obj 129 264 throw~ track-\$1-RIGHT;
#X obj 81 214 *~;
#X obj 128 214 *~;
#X obj 81 173 inlet~;
#X obj 128 172 inlet~;
#X obj 188 177 lop~ 10;
#X obj 188 45 symbol;
#X obj 188 67 sel main bypass-build-delay;
#X obj 188 111 f;
#X obj 188 132 == 0;
#X msg 188 89 0;
#X obj 311 214 *~;
#X obj 358 214 *~;
#X obj 418 197 lop~ 10;
#X obj 418 175 sig~;
#X obj 359 264 throw~ track-\$1-bypass-build-delay-RIGHT;
#X obj 311 244 throw~ track-\$1-bypass-build-delay-LEFT;
#X obj 418 152 == 1;
#X msg 259 89 1;
#X obj 188 24 inlet;
#X obj 229 23 r \$1-\$2-output;
#X obj 188 155 sig~ 1;
#X obj 183 441 throw~ \$1-dub-chamber;
#X obj 198 309 r \$1-\$2-dub-chamber-send;
#X obj 183 415 *~;
#X obj 198 391 line~;
#X obj 351 309 r \$1-all-dub-chamber-sends;
#X obj 251 337 loadbang;
#X obj 251 359 symbol \$2;
#X obj 251 381 sel dub-chamber;
#X msg 338 404 1;
#X obj 198 361 spigot;
#X connect 2 0 0 0;
#X connect 2 0 25 0;
#X connect 3 0 1 0;
#X connect 3 0 25 0;
#X connect 4 0 2 0;
#X connect 4 0 12 0;
#X connect 5 0 3 0;
#X connect 5 0 13 0;
#X connect 6 0 3 1;
#X connect 6 0 2 1;
#X connect 7 0 8 0;
#X connect 8 0 11 0;
#X connect 8 1 19 0;
#X connect 9 0 10 0;
#X connect 9 0 18 0;
#X connect 10 0 22 0;
#X connect 11 0 9 0;
#X connect 12 0 17 0;
#X connect 13 0 16 0;
#X connect 14 0 13 1;
#X connect 14 0 12 1;
#X connect 15 0 14 0;
#X connect 18 0 15 0;
#X connect 19 0 9 0;
#X connect 20 0 7 0;
#X connect 21 0 7 0;
#X connect 22 0 6 0;
#X connect 24 0 32 0;
#X connect 25 0 23 0;
#X connect 26 0 25 1;
#X connect 27 0 32 0;
#X connect 28 0 29 0;
#X connect 29 0 30 0;
#X connect 30 1 31 0;
#X connect 31 0 32 1;
#X connect 32 0 26 0;
