#N canvas 0 22 720 330 10;
#X obj 81 244 throw~ track-\$1-LEFT;
#X obj 129 264 throw~ track-\$1-RIGHT;
#X obj 81 214 *~;
#X obj 128 214 *~;
#X obj 81 173 inlet~;
#X obj 128 172 inlet~;
#X obj 188 177 lop~ 10;
#X obj 188 45 symbol;
#X obj 188 67 sel main bypass-build-delay;
#X obj 188 111 f;
#X obj 188 132 == 0;
#X msg 188 89 0;
#X obj 311 214 *~;
#X obj 358 214 *~;
#X obj 418 197 lop~ 10;
#X obj 418 175 sig~;
#X obj 359 264 throw~ track-\$1-bypass-build-delay-RIGHT;
#X obj 311 244 throw~ track-\$1-bypass-build-delay-LEFT;
#X obj 418 152 == 1;
#X msg 259 89 1;
#X obj 188 24 inlet;
#X obj 229 23 r \$1-\$2-output;
#X obj 188 155 sig~ 1;
#X connect 2 0 0 0;
#X connect 3 0 1 0;
#X connect 4 0 2 0;
#X connect 4 0 12 0;
#X connect 5 0 3 0;
#X connect 5 0 13 0;
#X connect 6 0 3 1;
#X connect 6 0 2 1;
#X connect 7 0 8 0;
#X connect 8 0 11 0;
#X connect 8 1 19 0;
#X connect 9 0 10 0;
#X connect 9 0 18 0;
#X connect 10 0 22 0;
#X connect 11 0 9 0;
#X connect 12 0 17 0;
#X connect 13 0 16 0;
#X connect 14 0 13 1;
#X connect 14 0 12 1;
#X connect 15 0 14 0;
#X connect 18 0 15 0;
#X connect 19 0 9 0;
#X connect 20 0 7 0;
#X connect 21 0 7 0;
#X connect 22 0 6 0;
