#N canvas 609 390 236 406 10;
#X obj 36 31 inlet;
#N canvas 952 224 871 639 \$0-poly 1;
#X obj 150 30 r \$0-in1-1;
#X obj 150 60 r \$0-in1-2;
#X obj 150 90 r \$0-in1-3;
#X obj 150 120 r \$0-in1-4;
#X obj 150 150 r \$0-in1-5;
#X obj 150 180 r \$0-in1-6;
#X obj 150 210 r \$0-in1-7;
#X obj 150 240 r \$0-in1-8;
#X obj 150 300 r \$0-in1-10;
#X obj 150 330 r \$0-in1-11;
#X obj 150 360 r \$0-in1-12;
#X obj 150 270 r \$0-in1-9;
#X obj 250 30 synth-voice \$3 ped_mf 24 1;
#X obj 250 60 synth-voice \$3 ped_mf 24 1;
#X obj 250 120 synth-voice \$3 ped_mf 24 1;
#X obj 250 150 synth-voice \$3 ped_mf 24 1;
#X obj 250 180 synth-voice \$3 ped_mf 24 1;
#X obj 250 210 synth-voice \$3 ped_mf 24 1;
#X obj 250 240 synth-voice \$3 ped_mf 24 1;
#X obj 250 270 synth-voice \$3 ped_mf 24 1;
#X obj 250 300 synth-voice \$3 ped_mf 24 1;
#X obj 250 330 synth-voice \$3 ped_mf 24 1;
#X obj 250 360 synth-voice \$3 ped_mf 24 1;
#X obj 60 600 throw~ \$0-out1;
#X obj 250 90 synth-voice \$3 ped_mf 24 1;
#X connect 0 0 12 0;
#X connect 1 0 13 0;
#X connect 2 0 24 0;
#X connect 3 0 14 0;
#X connect 4 0 15 0;
#X connect 5 0 16 0;
#X connect 6 0 17 0;
#X connect 7 0 18 0;
#X connect 8 0 20 0;
#X connect 9 0 21 0;
#X connect 10 0 22 0;
#X connect 11 0 19 0;
#X connect 12 0 23 0;
#X connect 13 0 23 0;
#X connect 14 0 23 0;
#X connect 15 0 23 0;
#X connect 16 0 23 0;
#X connect 17 0 23 0;
#X connect 18 0 23 0;
#X connect 19 0 23 0;
#X connect 20 0 23 0;
#X connect 21 0 23 0;
#X connect 22 0 23 0;
#X connect 24 0 23 0;
#X restore 36 254 pd \$0-poly;
#X obj 36 167 pack 0 0 0;
#X obj 36 344 outlet~;
#X obj 36 287 catch~ \$0-out1;
#N canvas 0 22 450 300 send-in1 0;
#X obj 85 113 makefilename \$0-in1-%d;
#X obj 39 157 send;
#X obj 39 22 inlet;
#X obj 39 48 t a a;
#X msg 85 85 \$1;
#X msg 39 86 \$2 \$3;
#X connect 0 0 1 1;
#X connect 2 0 3 0;
#X connect 3 0 5 0;
#X connect 3 1 4 0;
#X connect 4 0 0 0;
#X connect 5 0 1 0;
#X restore 36 226 pd send-in1;
#X obj 36 113 poly \$1 \$2;
#X connect 0 0 6 0;
#X connect 2 0 5 0;
#X connect 4 0 3 0;
#X connect 6 0 2 0;
#X connect 6 1 2 1;
#X connect 6 2 2 2;
