#N canvas 561 618 236 406 10;
#X obj 36 32 inlet;
#N canvas 952 224 871 639 \$0-poly 0;
#X obj 150 30 r \$0-in1-1;
#X obj 150 60 r \$0-in1-2;
#X obj 150 90 r \$0-in1-3;
#X obj 150 120 r \$0-in1-4;
#X obj 60 600 throw~ \$0-out1;
#X obj 250 30 synth-voice \$3 ped_mf 24 1;
#X obj 250 60 synth-voice \$3 ped_mf 24 1;
#X obj 250 120 synth-voice \$3 ped_mf 24 1;
#X obj 250 90 synth-voice \$3 ped_mf 24 1;
#X connect 0 0 5 0;
#X connect 1 0 6 0;
#X connect 2 0 8 0;
#X connect 3 0 7 0;
#X connect 5 0 4 0;
#X connect 6 0 4 0;
#X connect 7 0 4 0;
#X connect 8 0 4 0;
#X restore 36 254 pd \$0-poly;
#X obj 36 167 pack 0 0 0;
#X obj 36 344 outlet~;
#X obj 36 287 catch~ \$0-out1;
#N canvas 0 22 450 300 send-in1 0;
#X obj 85 113 makefilename \$0-in1-%d;
#X obj 39 157 send;
#X obj 39 22 inlet;
#X obj 39 48 t a a;
#X msg 85 85 \$1;
#X msg 39 86 \$2 \$3;
#X connect 0 0 1 1;
#X connect 2 0 3 0;
#X connect 3 0 5 0;
#X connect 3 1 4 0;
#X connect 4 0 0 0;
#X connect 5 0 1 0;
#X restore 36 226 pd send-in1;
#X obj 36 113 poly \$1 \$2;
#X obj 125 175 print;
#X connect 0 0 6 0;
#X connect 2 0 5 0;
#X connect 4 0 3 0;
#X connect 6 0 2 0;
#X connect 6 1 2 1;
#X connect 6 2 2 2;
