#N canvas 577 228 437 628 10;
#X obj 52 575 outlet~;
#X obj 52 10 inlet;
#X obj 52 46 unpack f f;
#X obj 52 543 e_pitchshift;
#X obj 52 99 spigot;
#X obj 90 77 > 0;
#X obj 52 168 t f f;
#X obj 105 211 * 12;
#X obj 52 238 sel 0 1 2 3 4 5 6 7 8 9 10 11;
#X obj 52 189 mod 12;
#X obj 52 391 +;
#X obj 105 190 div 12;
#X obj 52 488 s_playtable2;
#X msg 52 279 0 0;
#X obj 52 326 unpack f f;
#X msg 121 519 pitch \$1;
#X msg 82 279 0 1;
#X msg 112 278 2 0;
#X msg 142 278 2 1;
#X msg 172 277 4 0;
#X msg 202 277 4 1;
#X msg 232 277 5 0;
#X msg 262 277 7 0;
#X msg 293 277 7 1;
#X msg 323 277 9 0;
#X msg 353 277 9 1;
#X msg 383 278 11 0;
#X obj 180 118 / 25.4;
#X obj 180 140 int;
#X obj 52 433 pack f f;
#X msg 52 461 YT-CLEAN-\$1X0\$2.aif;
#X obj 52 131 - 12;
#X connect 1 0 2 0;
#X connect 2 0 4 0;
#X connect 2 1 5 0;
#X connect 2 1 27 0;
#X connect 3 0 0 0;
#X connect 4 0 31 0;
#X connect 5 0 4 1;
#X connect 6 0 9 0;
#X connect 6 1 11 0;
#X connect 7 0 10 1;
#X connect 8 0 13 0;
#X connect 8 1 16 0;
#X connect 8 2 17 0;
#X connect 8 3 18 0;
#X connect 8 4 19 0;
#X connect 8 5 20 0;
#X connect 8 6 21 0;
#X connect 8 7 22 0;
#X connect 8 8 23 0;
#X connect 8 9 24 0;
#X connect 8 10 25 0;
#X connect 8 11 26 0;
#X connect 9 0 8 0;
#X connect 10 0 29 0;
#X connect 11 0 7 0;
#X connect 12 0 3 0;
#X connect 12 1 3 0;
#X connect 13 0 14 0;
#X connect 14 0 10 0;
#X connect 14 1 15 0;
#X connect 15 0 3 1;
#X connect 16 0 14 0;
#X connect 17 0 14 0;
#X connect 18 0 14 0;
#X connect 19 0 14 0;
#X connect 20 0 14 0;
#X connect 21 0 14 0;
#X connect 22 0 14 0;
#X connect 23 0 14 0;
#X connect 24 0 14 0;
#X connect 25 0 14 0;
#X connect 26 0 14 0;
#X connect 27 0 28 0;
#X connect 28 0 29 1;
#X connect 29 0 30 0;
#X connect 30 0 12 0;
#X connect 31 0 6 0;
