#N canvas 765 197 466 435 10;
#X obj 48 301 spigot;
#X obj 122 174 swap 1;
#X obj 122 195 -;
#X obj 81 125 r \$1-prob;
#X obj 81 277 >= 0;
#X obj 81 250 f;
#X obj 122 218 t b f;
#X obj 48 100 sel \$2;
#X obj 48 -5 r \$1-tick;
#X obj 48 325 s \$1-\$3;
#X obj 250 180 vradio 10 1 0 8 empty empty empty 0 -8 0 10 -262144
-1 -1 7;
#X obj 250 266 / 7;
#X obj 250 310 list prepend \$1-\$3;
#X obj 250 333 s \$3-pattr;
#X obj 250 287 list append \$2;
#X obj 190 79 r \$1-\$2-\$3-prob;
#X obj 190 103 t f f;
#X msg 270 153 set \$1;
#X obj 270 128 * 7;
#X obj 48 36 / 2;
#X obj 48 56 int;
#X obj 48 77 change;
#X obj 48 15 mod 64;
#X text 77 41 1/6th note tick checks if this beat should play or not
when compared to the complexity-threshold;
#X connect 0 0 9 0;
#X connect 1 0 2 0;
#X connect 1 1 2 1;
#X connect 2 0 6 0;
#X connect 3 0 5 0;
#X connect 4 0 0 1;
#X connect 5 0 4 0;
#X connect 6 0 5 0;
#X connect 6 1 4 1;
#X connect 7 0 0 0;
#X connect 8 0 22 0;
#X connect 10 0 11 0;
#X connect 11 0 14 0;
#X connect 11 0 1 0;
#X connect 12 0 13 0;
#X connect 14 0 12 0;
#X connect 15 0 16 0;
#X connect 16 0 1 0;
#X connect 16 1 18 0;
#X connect 17 0 10 0;
#X connect 18 0 17 0;
#X connect 19 0 20 0;
#X connect 20 0 21 0;
#X connect 21 0 7 0;
#X connect 22 0 19 0;
#X coords 0 -1 1 1 10 100 2 250 160;
