#N canvas 144 58 1578 740 10;
#X text 323 41 Arg 1 - \$0;
#X text 323 61 Arg 2 - Sample-bank name;
#X obj 83 24 loadbang;
#X msg 110 139 \$1;
#X obj 110 164 until;
#X obj 83 110 sel 0;
#X obj 110 191 f;
#X obj 137 191 + 1;
#X text 108 81 Number of samples;
#X text 143 284 Starting note;
#X obj 110 452 u_samplebankdyn \$1-\$2-0;
#X obj 131 317 symbol \$2;
#X obj 110 218 t f f;
#X obj 110 472 u_samplebankdyn \$1-\$2-1;
#X obj 110 492 u_samplebankdyn \$1-\$2-2;
#X obj 110 512 u_samplebankdyn \$1-\$2-3;
#X obj 110 532 u_samplebankdyn \$1-\$2-4;
#X obj 110 552 u_samplebankdyn \$1-\$2-5;
#X obj 110 572 u_samplebankdyn \$1-\$2-6;
#X obj 110 592 u_samplebankdyn \$1-\$2-7;
#X obj 110 612 u_samplebankdyn \$1-\$2-8;
#X obj 110 632 u_samplebankdyn \$1-\$2-9;
#X obj 110 652 u_samplebankdyn \$1-\$2-10;
#X obj 110 672 u_samplebankdyn \$1-\$2-11;
#X obj 320 452 u_samplebankdyn \$1-\$2-12;
#X obj 320 472 u_samplebankdyn \$1-\$2-13;
#X obj 320 492 u_samplebankdyn \$1-\$2-14;
#X obj 320 512 u_samplebankdyn \$1-\$2-15;
#X obj 320 532 u_samplebankdyn \$1-\$2-16;
#X obj 320 552 u_samplebankdyn \$1-\$2-17;
#X obj 320 572 u_samplebankdyn \$1-\$2-18;
#X obj 320 592 u_samplebankdyn \$1-\$2-19;
#X obj 320 612 u_samplebankdyn \$1-\$2-20;
#X obj 320 632 u_samplebankdyn \$1-\$2-21;
#X obj 320 652 u_samplebankdyn \$1-\$2-22;
#X obj 320 672 u_samplebankdyn \$1-\$2-23;
#X obj 530 452 u_samplebankdyn \$1-\$2-24;
#X obj 530 472 u_samplebankdyn \$1-\$2-25;
#X obj 530 492 u_samplebankdyn \$1-\$2-26;
#X obj 530 512 u_samplebankdyn \$1-\$2-27;
#X obj 530 532 u_samplebankdyn \$1-\$2-28;
#X obj 530 552 u_samplebankdyn \$1-\$2-29;
#X obj 530 572 u_samplebankdyn \$1-\$2-30;
#X obj 530 592 u_samplebankdyn \$1-\$2-31;
#X text 153 430 Octave 1;
#X text 369 432 Octave 2;
#X text 579 433 Octave 3;
#X text 264 392 Tell u_samplebankdyn to open the above file;
#X obj 530 612 u_samplebankdyn \$1-\$2-32;
#X obj 530 632 u_samplebankdyn \$1-\$2-33;
#X obj 530 652 u_samplebankdyn \$1-\$2-34;
#X obj 530 672 u_samplebankdyn \$1-\$2-35;
#X text 323 81 Arg 3 - Samples count;
#X text 323 101 Arg 4 - Starting note;
#X obj 83 83 \$3;
#X obj 110 284 + \$4;
#X obj 110 350 pack f s \$1 f s;
#X obj 197 317 symbol \$5;
#X text 323 121 Arg 5 - File format;
#X msg 110 385 \; \$3-\$2-\$4-open \$2\$1.\$5 \;;
#X obj 83 50 t b b b;
#X obj 110 261 * \$6;
#X text 142 261 Note step amount;
#X text 323 141 Arg 6 - Note step amount;
#X obj 740 452 u_samplebankdyn \$1-\$2-36;
#X obj 740 472 u_samplebankdyn \$1-\$2-37;
#X obj 740 492 u_samplebankdyn \$1-\$2-38;
#X obj 740 512 u_samplebankdyn \$1-\$2-39;
#X obj 740 532 u_samplebankdyn \$1-\$2-40;
#X obj 740 552 u_samplebankdyn \$1-\$2-41;
#X obj 740 572 u_samplebankdyn \$1-\$2-42;
#X obj 740 592 u_samplebankdyn \$1-\$2-43;
#X obj 740 612 u_samplebankdyn \$1-\$2-44;
#X obj 740 632 u_samplebankdyn \$1-\$2-45;
#X obj 740 652 u_samplebankdyn \$1-\$2-46;
#X obj 740 672 u_samplebankdyn \$1-\$2-47;
#X obj 950 452 u_samplebankdyn \$1-\$2-48;
#X obj 950 472 u_samplebankdyn \$1-\$2-49;
#X obj 950 492 u_samplebankdyn \$1-\$2-50;
#X obj 950 512 u_samplebankdyn \$1-\$2-51;
#X obj 950 532 u_samplebankdyn \$1-\$2-52;
#X obj 950 552 u_samplebankdyn \$1-\$2-53;
#X obj 950 572 u_samplebankdyn \$1-\$2-54;
#X obj 950 592 u_samplebankdyn \$1-\$2-55;
#X obj 950 612 u_samplebankdyn \$1-\$2-56;
#X obj 950 632 u_samplebankdyn \$1-\$2-57;
#X obj 950 652 u_samplebankdyn \$1-\$2-58;
#X obj 950 672 u_samplebankdyn \$1-\$2-59;
#X text 789 432 Octave 4;
#X text 999 433 Octave 5;
#X connect 2 0 60 0;
#X connect 3 0 4 0;
#X connect 4 0 6 0;
#X connect 5 1 3 0;
#X connect 6 0 7 0;
#X connect 6 0 12 0;
#X connect 7 0 6 1;
#X connect 11 0 56 1;
#X connect 12 0 61 0;
#X connect 12 1 56 3;
#X connect 54 0 5 0;
#X connect 55 0 56 0;
#X connect 56 0 59 0;
#X connect 57 0 56 4;
#X connect 60 0 54 0;
#X connect 60 1 11 0;
#X connect 60 2 57 0;
#X connect 61 0 55 0;
