#N canvas 661 22 573 874 10;
#X obj 380 32 loadbang;
#X obj 342 56 inlet;
#X obj 38 40 inlet;
#X obj 38 767 outlet~;
#X obj 38 343 *~ 22679;
#X obj 38 320 phasor~;
#X obj 38 222 pow -12;
#X obj 77 194 / 12;
#X msg 38 194 2;
#X obj 38 166 t b f;
#X obj 158 343 *~ 22679;
#X obj 158 320 phasor~;
#X obj 268 343 *~ 22679;
#X obj 268 320 phasor~;
#X obj 173 274 * 2;
#X obj 158 296 * 2;
#X obj 268 296 * 4;
#X obj 283 274 * 4;
#X obj 173 183 + 1;
#X obj 173 207 - 1;
#X obj 173 229 swap 1;
#X obj 173 251 -;
#X obj 173 162 * 0.01;
#X obj 173 140 r \$0-Detune;
#X msg 380 56 Distortion 0 \,;
#X obj 342 92 u_dispatch \$0 Detune;
#X obj 38 367 tabread4~ \$1;
#X obj 158 367 tabread4~ \$1;
#X obj 268 367 tabread4~ \$1;
#X obj 360 275 loadbang;
#X obj 360 326 f;
#X msg 360 301 600;
#X obj 342 112 u_dispatch \$0 Octaves;
#X obj 342 132 u_dispatch \$0 Attack;
#X obj 342 152 u_dispatch \$0 Release;
#X obj 38 64 unpack f f;
#X msg 125 686 \$1 \$2;
#X obj 38 744 *~;
#X msg 53 685 0 \$1;
#X obj 53 577 sel 0;
#X obj 53 715 line~;
#X obj 170 637 r \$0-Attack;
#X obj 74 607 r \$0-Release;
#X obj 125 637 / 127;
#X obj 38 550 *~ 1;
#X obj 158 550 *~ 0;
#X obj 250 467 - 1;
#X obj 289 487 - 2;
#X obj 211 390 r \$0-Octaves;
#X obj 268 550 *~ 0;
#X floatatom 201 472 5 0 0 0 - - -, f 5;
#X obj 211 417 moses 1;
#X obj 250 439 moses 2;
#X obj 289 463 moses 3;
#X obj 59 527 min 1;
#X obj 179 527 min 1;
#X obj 289 527 min 1;
#X obj 422 281 r \$0-Waveform-length;
#X obj 342 172 u_dispatch \$0 Waveform-length;
#X obj 342 192 u_dispatch \$0 Tuning;
#X obj 53 105 r \$0-Tuning;
#X obj 53 630 f 50;
#X obj 125 661 pack f 5;
#X obj 342 212 u_dispatch \$0 Waveform;
#X obj 415 307 r \$0-Waveform;
#X msg 415 350 set \$1;
#X obj 415 328 symbol;
#X obj 38 132 + 0.3;
#X connect 0 0 24 0;
#X connect 1 0 25 0;
#X connect 2 0 35 0;
#X connect 4 0 26 0;
#X connect 5 0 4 0;
#X connect 6 0 5 0;
#X connect 6 0 15 0;
#X connect 6 0 16 0;
#X connect 7 0 6 1;
#X connect 8 0 6 0;
#X connect 9 0 8 0;
#X connect 9 1 7 0;
#X connect 10 0 27 0;
#X connect 11 0 10 0;
#X connect 12 0 28 0;
#X connect 13 0 12 0;
#X connect 14 0 15 1;
#X connect 15 0 11 0;
#X connect 16 0 13 0;
#X connect 17 0 16 1;
#X connect 18 0 17 0;
#X connect 18 0 19 0;
#X connect 19 0 20 0;
#X connect 20 0 21 0;
#X connect 20 1 21 1;
#X connect 21 0 14 0;
#X connect 22 0 18 0;
#X connect 23 0 22 0;
#X connect 24 0 25 0;
#X connect 25 0 32 0;
#X connect 26 0 44 0;
#X connect 27 0 45 0;
#X connect 28 0 49 0;
#X connect 29 0 31 0;
#X connect 30 0 12 1;
#X connect 30 0 10 1;
#X connect 30 0 4 1;
#X connect 31 0 30 0;
#X connect 32 0 33 0;
#X connect 33 0 34 0;
#X connect 34 0 58 0;
#X connect 35 0 67 0;
#X connect 35 1 39 0;
#X connect 36 0 40 0;
#X connect 37 0 3 0;
#X connect 38 0 40 0;
#X connect 39 0 61 0;
#X connect 39 1 43 0;
#X connect 40 0 37 1;
#X connect 41 0 62 1;
#X connect 42 0 61 1;
#X connect 43 0 62 0;
#X connect 44 0 37 0;
#X connect 45 0 37 0;
#X connect 46 0 45 1;
#X connect 47 0 55 0;
#X connect 47 0 56 0;
#X connect 48 0 51 0;
#X connect 49 0 37 0;
#X connect 51 0 50 0;
#X connect 51 0 54 0;
#X connect 51 1 52 0;
#X connect 52 0 46 0;
#X connect 52 0 54 0;
#X connect 52 1 53 0;
#X connect 53 0 47 0;
#X connect 53 0 54 0;
#X connect 53 1 56 0;
#X connect 53 1 55 0;
#X connect 53 1 54 0;
#X connect 54 0 44 1;
#X connect 55 0 45 1;
#X connect 56 0 49 1;
#X connect 57 0 30 0;
#X connect 58 0 59 0;
#X connect 59 0 63 0;
#X connect 60 0 67 1;
#X connect 61 0 38 0;
#X connect 62 0 36 0;
#X connect 64 0 66 0;
#X connect 65 0 28 0;
#X connect 65 0 27 0;
#X connect 65 0 26 0;
#X connect 66 0 65 0;
#X connect 67 0 9 0;
