#N canvas 0 22 352 247 10;
#X obj 40 99 s_playtable2;
#X obj 40 37 t b b;
#X obj 143 69 v \$1-tableSize-v;
#X obj 74 182 *~;
#X obj 143 160 vline~;
#X obj 40 182 *~;
#X obj 40 210 outlet~;
#X obj 88 210 outlet~;
#X obj 40 12 inlet;
#X obj 40 71 symbol \$1;
#X obj 143 91 / 44.1;
#X obj 143 113 - 250;
#X msg 143 136 0 4 \, 1 4000 4 \, 0 250 \$1;
#X connect 0 0 5 0;
#X connect 0 1 3 0;
#X connect 1 0 9 0;
#X connect 1 1 2 0;
#X connect 2 0 10 0;
#X connect 3 0 7 0;
#X connect 4 0 3 1;
#X connect 4 0 5 1;
#X connect 5 0 6 0;
#X connect 8 0 1 0;
#X connect 9 0 0 0;
#X connect 10 0 11 0;
#X connect 11 0 12 0;
#X connect 12 0 4 0;
