#N canvas 941 73 458 589 10;
#X obj 31 29 r tick;
#X obj 31 139 sel 0;
#X obj 31 89 mod \$2;
#X msg 31 220 play;
#X msg 106 226 speed \$1;
#X obj 178 280 tgl 15 0 empty empty empty 17 7 0 10 -262144 -1 -1 0
1;
#X msg 178 303 varispeed-mode \$1;
#X obj 106 121 r varispeed-speed;
#X obj 178 233 loadbang;
#X msg 178 257 0;
#X obj 106 193 spigot;
#X obj 139 165 r speed-to-varispeed-on;
#X msg 83 203 1;
#X floatatom 84 233 5 0 0 0 - - -;
#X floatatom 160 187 5 0 0 0 - - -;
#X obj 31 338 variable-speed-playback a \$1;
#X obj 211 258 r varispeed-mode;
#X obj 56 377 dac~;
#X connect 0 0 2 0;
#X connect 1 0 3 0;
#X connect 2 0 1 0;
#X connect 3 0 15 0;
#X connect 4 0 15 0;
#X connect 5 0 6 0;
#X connect 6 0 15 0;
#X connect 7 0 10 0;
#X connect 8 0 9 0;
#X connect 9 0 5 0;
#X connect 10 0 4 0;
#X connect 10 0 13 0;
#X connect 11 0 10 1;
#X connect 11 0 14 0;
#X connect 12 0 4 0;
#X connect 15 0 17 0;
#X connect 15 1 17 1;
#X connect 16 0 6 0;
