#N canvas 460 86 508 608 10;
#X obj 52 545 outlet~;
#X obj 52 10 inlet;
#X text 278 13 Arg 1 - \$0;
#X text 278 33 Arg 2 - Synth Name;
#X text 278 53 Arg 3 - Starting note;
#X text 278 73 Arg 4 - Sample note steps;
#X obj 52 147 sig~;
#X obj 52 126 mtof;
#X msg 139 447 \$1 \$2;
#X obj 52 505 *~;
#X msg 67 446 0 \$1;
#X obj 67 338 sel 0;
#X obj 67 476 line~;
#X obj 139 398 / 127;
#X obj 67 391 f 50;
#X obj 139 422 pack f 5;
#X obj 52 43 unpack f f;
#X obj 52 178 s_osc \$0-sine-key sine;
#X obj 52 308 *~ 1;
#X obj 52 75 + 12;
#X obj 274 258 r sine-key-voice-all-off;
#X msg 271 282 0;
#X obj 132 321 del 50;
#X msg 132 343 0;
#X obj 165 297 r sine-key-hold;
#X obj 88 368 r sine-key-release;
#X obj 184 398 r sine-key-attack;
#X obj 52 250 *~ 1;
#X obj 52 272 clip~ -1 1;
#X obj 73 203 r sine-key-shape;
#X obj 73 225 max 1;
#X connect 1 0 16 0;
#X connect 6 0 17 0;
#X connect 7 0 6 0;
#X connect 8 0 12 0;
#X connect 9 0 0 0;
#X connect 10 0 12 0;
#X connect 11 0 14 0;
#X connect 11 1 13 0;
#X connect 11 1 22 0;
#X connect 12 0 9 1;
#X connect 13 0 15 0;
#X connect 14 0 10 0;
#X connect 15 0 8 0;
#X connect 16 0 19 0;
#X connect 16 1 11 0;
#X connect 17 0 27 0;
#X connect 18 0 9 0;
#X connect 19 0 7 0;
#X connect 20 0 21 0;
#X connect 21 0 11 0;
#X connect 22 0 23 0;
#X connect 23 0 11 0;
#X connect 24 0 22 1;
#X connect 25 0 14 1;
#X connect 26 0 15 1;
#X connect 27 0 28 0;
#X connect 28 0 18 0;
#X connect 29 0 30 0;
#X connect 30 0 27 1;
