#N canvas 258 128 489 506 10;
#X obj 52 445 outlet~;
#X obj 52 10 inlet;
#X text 278 13 Arg 1 - \$0;
#X text 278 33 Arg 2 - Synth Name;
#X text 278 53 Arg 3 - Starting note;
#X text 278 73 Arg 4 - Sample note steps;
#X obj 52 147 sig~;
#X obj 52 126 mtof;
#X msg 139 347 \$1 \$2;
#X obj 52 405 *~;
#X msg 67 346 0 \$1;
#X obj 67 238 sel 0;
#X obj 67 376 line~;
#X obj 184 298 r \$0-Attack;
#X obj 88 268 r \$0-Release;
#X obj 139 298 / 127;
#X obj 67 291 f 50;
#X obj 139 322 pack f 5;
#X obj 52 43 unpack f f;
#X obj 52 178 s_osc \$0-sine-key sine;
#X obj 52 208 *~ 1;
#X obj 52 75 + 12;
#X obj 274 158 r sine-key-voice-all-off;
#X msg 271 182 0;
#X connect 1 0 18 0;
#X connect 6 0 19 0;
#X connect 7 0 6 0;
#X connect 8 0 12 0;
#X connect 9 0 0 0;
#X connect 10 0 12 0;
#X connect 11 0 16 0;
#X connect 11 1 15 0;
#X connect 12 0 9 1;
#X connect 13 0 17 1;
#X connect 14 0 16 1;
#X connect 15 0 17 0;
#X connect 16 0 10 0;
#X connect 17 0 8 0;
#X connect 18 0 21 0;
#X connect 18 1 11 0;
#X connect 19 0 20 0;
#X connect 20 0 9 0;
#X connect 21 0 7 0;
#X connect 22 0 23 0;
#X connect 23 0 11 0;
