#N canvas 0 22 620 870 10;
#X obj 84 137 vline~;
#X obj 84 159 sqrt~;
#X obj 84 203 +~ 360;
#X obj 84 225 phasor~;
#X obj 54 247 -~ 0.5;
#X obj 84 319 +~;
#X obj 84 341 hip~ 1;
#X obj 84 363 *~;
#X obj 84 385 *~ 0.2;
#X obj 64 501 *~ 4;
#X obj 64 523 clip~ -1 1;
#X obj -56 565 *~ 0.5;
#X obj 64 607 *~ 0.2;
#X obj 84 449 hip~ 12;
#X obj 225 152 vline~;
#X obj -16 417 dfbe 15;
#X obj 34 417 dfbe 22;
#X obj 84 417 dfbe 35;
#X obj 134 417 dfbe 24;
#X obj 184 417 dfbe 11;
#X obj 105 475 dfbe 61;
#X obj -6 565 bp~ 740 12;
#X obj 64 565 bp~ 1400 12;
#X obj 144 565 bp~ 1500 12;
#X obj 224 565 bp~ 1600 12;
#X obj 113 252 *~ 2;
#X obj 113 274 cos~;
#X obj 113 296 *~ 0.2;
#X obj 145 360 *~ 0.006;
#X obj 84 181 *~ 487;
#X obj 146 655 delwrite~ \$0-siren-del 1000;
#X obj 146 677 delread~ \$0-siren-del 214.2;
#X obj 64 703 *~ 1;
#X obj 101 665 *~ 0.1;
#X obj 84 59 t f f;
#X obj 225 93 - 10;
#X msg 225 115 0 \, 1 10 0 \, 0 10 \$1;
#X obj 84 36 f 900;
#X obj 159 735 line~;
#X obj 159 709 inlet;
#X obj 64 761 *~;
#X obj 144 761 *~;
#X obj 64 789 throw~ track-\$1-LEFT;
#X obj 144 809 throw~ track-\$1-RIGHT;
#X msg 84 115 0 \, 1 \$1 0 \, 0 0 \$1;
#X obj 84 12 r \$1-siren-\$2-length;
#X obj 145 338 r~ \$0-fbsd;
#X obj 105 496 s~ \$0-fbsd;
#X obj 299 161 unpack f f;
#X obj 299 139 r \$1-siren-\$2-values;
#X obj 279 23 pack f \$2;
#X obj 279 67 s \$1-event;
#X msg 279 45 event-siren-\$2 \$1;
#X text -34 832 Synthesised sirens (From Designing Sound - AJF);
#X obj 328 753 delwrite~ siren-\$1-\$2-del 400;
#X obj 285 828 dac~;
#X obj 285 764 *~ 0.8;
#X obj 328 775 delread~ siren-\$1-\$2-del 321.42;
#X obj 285 804 *~ 0.05;
#X connect 0 0 1 0;
#X connect 1 0 29 0;
#X connect 2 0 3 0;
#X connect 3 0 4 0;
#X connect 3 0 25 0;
#X connect 4 0 5 0;
#X connect 5 0 6 0;
#X connect 6 0 7 0;
#X connect 7 0 8 0;
#X connect 8 0 15 0;
#X connect 8 0 16 0;
#X connect 8 0 17 0;
#X connect 8 0 18 0;
#X connect 8 0 19 0;
#X connect 9 0 10 0;
#X connect 10 0 11 0;
#X connect 10 0 21 0;
#X connect 10 0 22 0;
#X connect 10 0 23 0;
#X connect 10 0 24 0;
#X connect 11 0 12 0;
#X connect 12 0 30 0;
#X connect 12 0 32 0;
#X connect 13 0 9 0;
#X connect 13 0 20 0;
#X connect 14 0 7 1;
#X connect 15 0 13 0;
#X connect 16 0 13 0;
#X connect 17 0 13 0;
#X connect 18 0 13 0;
#X connect 19 0 13 0;
#X connect 20 0 47 0;
#X connect 21 0 12 0;
#X connect 22 0 12 0;
#X connect 23 0 12 0;
#X connect 24 0 12 0;
#X connect 25 0 26 0;
#X connect 26 0 27 0;
#X connect 27 0 5 1;
#X connect 28 0 8 0;
#X connect 29 0 2 0;
#X connect 31 0 33 0;
#X connect 32 0 40 0;
#X connect 32 0 41 0;
#X connect 33 0 30 0;
#X connect 33 0 32 0;
#X connect 34 0 44 0;
#X connect 34 1 35 0;
#X connect 35 0 36 0;
#X connect 36 0 14 0;
#X connect 37 0 34 0;
#X connect 37 0 50 0;
#X connect 38 0 40 1;
#X connect 38 0 41 1;
#X connect 39 0 38 0;
#X connect 40 0 42 0;
#X connect 41 0 43 0;
#X connect 44 0 0 0;
#X connect 45 0 37 0;
#X connect 46 0 28 0;
#X connect 48 0 29 1;
#X connect 48 1 2 1;
#X connect 49 0 48 0;
#X connect 50 0 52 0;
#X connect 52 0 51 0;
#X connect 56 0 54 0;
#X connect 56 0 58 0;
#X connect 57 0 56 0;
#X connect 58 0 55 0;
#X connect 58 0 55 1;
