#N canvas 86 43 625 875 10;
#X obj 84 137 vline~;
#X obj 84 159 sqrt~;
#X obj 84 203 +~ 360;
#X obj 84 225 phasor~;
#X obj 54 247 -~ 0.5;
#X obj 84 319 +~;
#X obj 84 341 hip~ 1;
#X obj 84 363 *~;
#X obj 84 385 *~ 0.2;
#X obj 64 501 *~ 4;
#X obj 64 523 clip~ -1 1;
#X obj -56 565 *~ 0.5;
#X obj 64 607 *~ 0.2;
#X obj 84 449 hip~ 12;
#X obj 225 152 vline~;
#X obj -16 417 dfbe 15;
#X obj 34 417 dfbe 22;
#X obj 84 417 dfbe 35;
#X obj 134 417 dfbe 24;
#X obj 184 417 dfbe 11;
#X obj 105 475 dfbe 61;
#X obj -6 565 bp~ 740 12;
#X obj 64 565 bp~ 1400 12;
#X obj 144 565 bp~ 1500 12;
#X obj 224 565 bp~ 1600 12;
#X obj 113 252 *~ 2;
#X obj 113 274 cos~;
#X obj 113 296 *~ 0.2;
#X obj 145 360 *~ 0.006;
#X obj 84 181 *~ 487;
#X obj 146 655 delwrite~ \$0-siren-del 1000;
#X obj 146 677 delread~ \$0-siren-del 214.2;
#X obj 64 703 *~ 1;
#X obj 84 59 t f f;
#X obj 225 93 - 10;
#X obj 159 735 line~;
#X obj 159 709 inlet;
#X obj 64 761 *~;
#X obj 144 761 *~;
#X obj 64 789 throw~ track-\$1-LEFT;
#X obj 144 809 throw~ track-\$1-RIGHT;
#X obj 84 12 r \$1-siren-\$2-length;
#X obj 145 338 r~ \$0-fbsd;
#X obj 105 496 s~ \$0-fbsd;
#X obj 299 161 unpack f f;
#X obj 299 139 r \$1-siren-\$2-values;
#X obj 279 23 pack f \$2;
#X obj 279 67 s \$1-event;
#X msg 279 45 event-siren-\$2 \$1;
#X text -34 832 Synthesised sirens (From Designing Sound - AJF);
#X obj 39 38 bng 15 250 50 0 empty empty empty 17 7 0 10 -262144 -1
-1;
#X msg 218 717 1;
#X msg 225 115 0 \, 1 10 0 \, 0 10 \$1;
#X msg 84 115 1 \, 0 \$1 0 \, 1 0 \$1;
#X floatatom 139 152 5 0 0 0 - - -, f 5;
#X floatatom 174 143 5 0 0 0 - - -, f 5;
#X floatatom 179 611 5 0 0 0 - - -, f 5;
#X obj 363 320 t b b;
#X obj 435 298 random 300;
#X obj 435 320 + 90;
#X obj 363 298 metro 50;
#X obj 363 342 f;
#X obj 390 342 + 1;
#X obj 363 364 moses 4;
#X msg 401 385 0;
#X obj 401 407 t f f;
#X msg 363 271 1;
#X obj 306 196 random 200;
#X obj 306 218 + 200;
#X obj 375 196 random 200;
#X obj 375 218 + 50;
#X obj 448 151 bng 15 250 50 0 empty empty empty 17 7 0 10 -262144
-1 -1;
#X obj 101 665 *~ 0.84;
#X obj 337 612 + 100;
#X obj 337 590 random 600;
#X obj 440 171 t b b b b;
#X obj 434 108 r \$1-siren-down;
#X obj 283 718 loadbang;
#X obj 84 36 f 1500;
#X connect 0 0 1 0;
#X connect 1 0 29 0;
#X connect 2 0 3 0;
#X connect 3 0 4 0;
#X connect 3 0 25 0;
#X connect 4 0 5 0;
#X connect 5 0 6 0;
#X connect 6 0 7 0;
#X connect 7 0 8 0;
#X connect 8 0 15 0;
#X connect 8 0 16 0;
#X connect 8 0 17 0;
#X connect 8 0 18 0;
#X connect 8 0 19 0;
#X connect 9 0 10 0;
#X connect 10 0 11 0;
#X connect 10 0 21 0;
#X connect 10 0 22 0;
#X connect 10 0 23 0;
#X connect 10 0 24 0;
#X connect 11 0 12 0;
#X connect 12 0 30 0;
#X connect 12 0 32 0;
#X connect 13 0 9 0;
#X connect 13 0 20 0;
#X connect 14 0 7 1;
#X connect 15 0 13 0;
#X connect 16 0 13 0;
#X connect 17 0 13 0;
#X connect 18 0 13 0;
#X connect 19 0 13 0;
#X connect 20 0 43 0;
#X connect 21 0 12 0;
#X connect 22 0 12 0;
#X connect 23 0 12 0;
#X connect 24 0 12 0;
#X connect 25 0 26 0;
#X connect 26 0 27 0;
#X connect 27 0 5 1;
#X connect 28 0 8 0;
#X connect 29 0 2 0;
#X connect 31 0 72 0;
#X connect 32 0 37 0;
#X connect 32 0 38 0;
#X connect 33 0 53 0;
#X connect 33 1 34 0;
#X connect 34 0 52 0;
#X connect 35 0 37 1;
#X connect 35 0 38 1;
#X connect 36 0 35 0;
#X connect 37 0 39 0;
#X connect 38 0 40 0;
#X connect 41 0 78 0;
#X connect 42 0 28 0;
#X connect 44 0 29 1;
#X connect 44 1 2 1;
#X connect 45 0 44 0;
#X connect 46 0 48 0;
#X connect 48 0 47 0;
#X connect 50 0 78 0;
#X connect 51 0 35 0;
#X connect 52 0 14 0;
#X connect 53 0 0 0;
#X connect 54 0 2 1;
#X connect 55 0 29 1;
#X connect 56 0 72 1;
#X connect 57 0 61 0;
#X connect 57 1 58 0;
#X connect 58 0 59 0;
#X connect 59 0 60 1;
#X connect 60 0 57 0;
#X connect 61 0 62 0;
#X connect 61 0 63 0;
#X connect 62 0 61 1;
#X connect 63 0 50 0;
#X connect 63 1 64 0;
#X connect 64 0 65 0;
#X connect 65 0 61 1;
#X connect 65 1 60 0;
#X connect 66 0 60 0;
#X connect 67 0 68 0;
#X connect 68 0 29 1;
#X connect 69 0 70 0;
#X connect 70 0 2 1;
#X connect 71 0 75 0;
#X connect 72 0 30 0;
#X connect 72 0 32 0;
#X connect 73 0 31 0;
#X connect 74 0 73 0;
#X connect 75 0 67 0;
#X connect 75 1 69 0;
#X connect 75 2 66 0;
#X connect 75 3 74 0;
#X connect 76 0 75 0;
#X connect 77 0 51 0;
#X connect 78 0 33 0;
#X connect 78 0 46 0;
