#N canvas 316 60 528 428 10;
#X text 91 6 small angle distortion;
#X obj 101 68 inlet~;
#X obj 101 363 outlet~;
#X obj 120 149 *~;
#X obj 120 308 *~;
#X obj 120 174 -~ 0.75;
#X obj 120 199 cos~;
#X obj 200 193 /~;
#X obj 200 239 q8_sqrt~;
#X obj 200 169 sig~ 1;
#X obj 200 261 +~ 0.2;
#X obj 200 217 *~ 0.2;
#X text 130 279 ajf;
#X obj 215 123 +~ 0.1;
#X obj 101 338 c_xfade;
#X obj 169 56 inlet;
#X obj 215 100 sig~;
#X obj 169 78 route wet amount;
#X connect 1 0 3 0;
#X connect 1 0 14 0;
#X connect 3 0 5 0;
#X connect 4 0 14 1;
#X connect 5 0 6 0;
#X connect 6 0 4 0;
#X connect 7 0 11 0;
#X connect 8 0 10 0;
#X connect 9 0 7 0;
#X connect 10 0 4 1;
#X connect 11 0 8 0;
#X connect 13 0 3 1;
#X connect 13 0 7 1;
#X connect 14 0 2 0;
#X connect 15 0 17 0;
#X connect 16 0 13 0;
#X connect 17 0 14 2;
#X connect 17 1 16 0;
