#N canvas 302 269 629 563 10;
#X obj 37 113 sig~;
#X obj 37 70 - 0.15;
#X obj 37 92 mtof;
#X obj 197 113 sig~;
#X obj 197 92 mtof;
#X obj 197 70 + 0.05;
#X obj 357 113 sig~;
#X obj 357 92 mtof;
#X obj 357 70 - 0.01;
#X obj 37 474 outlet~;
#X obj 37 26 inlet;
#X msg 124 393 \$1 \$2;
#X obj 37 451 *~;
#X msg 52 392 0 \$1;
#X obj 52 284 sel 0;
#X obj 52 422 line~;
#X obj 169 344 r \$0-Attack;
#X obj 73 314 r \$0-Release;
#X obj 124 344 / 127;
#X obj 52 337 f 50;
#X obj 124 368 pack f 5;
#X obj 37 49 unpack f f;
#X obj 461 254 u_dispatch \$0 Attack;
#X obj 461 274 u_dispatch \$0 Release;
#X obj 461 232 inlet;
#X obj 462 181 noise~;
#X obj 462 203 *~ 0.15;
#X obj 37 254 *~ 0.4;
#X obj 37 156 osc~;
#X obj 37 178 *~ 100;
#X obj 37 200 clip~ -1 1;
#X obj 197 156 osc~;
#X obj 197 178 *~ 100;
#X obj 197 200 clip~ -1 1;
#X obj 357 156 osc~;
#X obj 357 178 *~ 100;
#X obj 357 200 clip~ -1 1;
#X text 185 14 Easy super-saw sound;
#X connect 0 0 28 0;
#X connect 1 0 2 0;
#X connect 2 0 0 0;
#X connect 3 0 31 0;
#X connect 4 0 3 0;
#X connect 5 0 4 0;
#X connect 6 0 34 0;
#X connect 7 0 6 0;
#X connect 8 0 7 0;
#X connect 10 0 21 0;
#X connect 11 0 15 0;
#X connect 12 0 9 0;
#X connect 13 0 15 0;
#X connect 14 0 19 0;
#X connect 14 1 18 0;
#X connect 15 0 12 1;
#X connect 16 0 20 1;
#X connect 17 0 19 1;
#X connect 18 0 20 0;
#X connect 19 0 13 0;
#X connect 20 0 11 0;
#X connect 21 0 1 0;
#X connect 21 0 5 0;
#X connect 21 0 8 0;
#X connect 21 1 14 0;
#X connect 22 0 23 0;
#X connect 24 0 22 0;
#X connect 25 0 26 0;
#X connect 26 0 27 0;
#X connect 27 0 12 0;
#X connect 28 0 29 0;
#X connect 29 0 30 0;
#X connect 30 0 27 0;
#X connect 31 0 32 0;
#X connect 32 0 33 0;
#X connect 33 0 27 0;
#X connect 34 0 35 0;
#X connect 35 0 36 0;
#X connect 36 0 27 0;
