#N canvas 1016 236 596 666 10;
#X obj 52 635 outlet~;
#X obj 52 10 inlet;
#X obj 52 513 *~;
#X obj 149 400 loadbang;
#X msg 149 422 1;
#X obj 209 392 r \$1-\$2-\$3;
#X obj 219 414 r \$1-1-\$3;
#X obj 52 46 unpack f f;
#X obj 102 202 loadbang;
#X obj 102 226 symbol \$2;
#X obj 52 254 pack f \$1 s f;
#X obj 52 573 e_pitchshift;
#X msg 121 549 pitch \$1;
#X text 278 13 Arg 1 - \$0;
#X text 278 33 Arg 2 - Synth Name;
#X obj 52 605 *~;
#X obj 52 190 t f f b;
#X obj 326 450 / 127;
#X obj 52 99 spigot;
#X obj 90 77 > 0;
#X obj 326 515 t f f;
#X obj 52 158 max 0;
#X obj 52 130 - \$3;
#X obj 370 436 r synth-voice-attack;
#X obj 392 465 r synth-voice-decay;
#X obj 414 496 r synth-voice-sustain;
#X obj 437 525 r synth-voice-release;
#X text 278 53 Arg 3 - Starting note;
#X text 278 73 Arg 4 - Sample note steps;
#X obj 52 224 div \$4;
#X obj 121 525 mod \$4;
#X obj 326 549 adsr 1 1 10 100 400;
#X msg 326 413 0;
#X obj 133 179 bng 15 250 50 0 empty empty empty 17 7 0 10 -262144
-1 -1;
#X obj 149 472 lop~ 10;
#X obj 149 450 sig~;
#X obj 326 389 r \$2-all-notes-off;
#X obj 52 379 s_playtable;
#X msg 52 309 \$2-\$3-\$1 1 1;
#X msg 191 549 size 10;
#X obj 191 527 loadbang;
#X connect 1 0 7 0;
#X connect 2 0 11 0;
#X connect 3 0 4 0;
#X connect 4 0 35 0;
#X connect 5 0 35 0;
#X connect 6 0 35 0;
#X connect 7 0 18 0;
#X connect 7 1 17 0;
#X connect 7 1 19 0;
#X connect 8 0 9 0;
#X connect 9 0 10 2;
#X connect 10 0 38 0;
#X connect 11 0 15 0;
#X connect 12 0 11 1;
#X connect 15 0 0 0;
#X connect 16 0 29 0;
#X connect 16 1 30 0;
#X connect 17 0 20 0;
#X connect 18 0 22 0;
#X connect 19 0 18 1;
#X connect 20 0 31 0;
#X connect 20 1 31 1;
#X connect 21 0 16 0;
#X connect 22 0 21 0;
#X connect 23 0 31 2;
#X connect 24 0 31 3;
#X connect 25 0 31 4;
#X connect 26 0 31 5;
#X connect 29 0 10 0;
#X connect 30 0 12 0;
#X connect 31 0 15 1;
#X connect 32 0 17 0;
#X connect 33 0 9 0;
#X connect 34 0 2 1;
#X connect 35 0 34 0;
#X connect 36 0 32 0;
#X connect 37 0 2 0;
#X connect 38 0 37 0;
#X connect 39 0 11 1;
#X connect 40 0 39 0;
