#N canvas 61 409 627 459 10;
#X obj 71 7 inlet;
#X obj 71 415 outlet~;
#X text 417 21 Arg 1 - name;
#X obj 92 239 r \$1-volume;
#X obj 71 37 unpack f f;
#X obj 71 145 +;
#X obj 71 172 pack f f;
#X obj 86 73 r \$1-octave-comp;
#X text 417 41 Arg 2 - \$0;
#X text 417 61 Arg 3 - u_makepoly object;
#X text 417 81 Arg 4 - object arg 1;
#X text 417 101 Arg 5 - object arg 2;
#X text 417 121 Arg 6 - object arg 3;
#X text 417 141 Arg 7 - object arg 4;
#X obj 515 296 del 2500;
#X msg 515 319 0;
#X obj 445 253 t b b;
#X msg 472 276 stop;
#X msg 445 276 1;
#X obj 71 319 *~ 1;
#X obj 92 293 line;
#X obj 92 265 pack f 10;
#X obj 248 131 inlet synth-ab-params;
#X obj 445 182 r synth-switch;
#X obj 445 228 sel \$1;
#X obj 445 205 symbol;
#X msg 515 263 bang;
#X obj 248 153 u_dispatch \$0 octave-comp;
#X obj 97 94 r \$0-octave-comp;
#X obj 97 116 * 12;
#X obj 71 207 u_makepoly 7 0 \$3 \$4 \$5 \$6 \$7;
#X connect 0 0 4 0;
#X connect 3 0 21 0;
#X connect 4 0 5 0;
#X connect 4 1 6 1;
#X connect 5 0 6 0;
#X connect 6 0 30 0;
#X connect 7 0 5 1;
#X connect 14 0 15 0;
#X connect 16 0 18 0;
#X connect 16 1 17 0;
#X connect 17 0 14 0;
#X connect 19 0 1 0;
#X connect 20 0 19 1;
#X connect 21 0 20 0;
#X connect 22 0 27 0;
#X connect 23 0 25 0;
#X connect 24 0 16 0;
#X connect 24 1 26 0;
#X connect 25 0 24 0;
#X connect 26 0 14 0;
#X connect 27 0 30 1;
#X connect 28 0 29 0;
#X connect 29 0 5 1;
#X connect 30 0 19 0;
