#N canvas 0 22 463 353 10;
#X obj 81 94 f;
#X obj 81 116 sel \$2;
#X obj 81 139 f;
#X obj 81 269 outlet;
#X text 125 162 Day;
#X text 125 116 Month;
#X text 125 71 Year;
#X obj 81 28 r datetime;
#X obj 81 50 unpack f f f f f;
#X obj 81 226 f;
#X text 125 204 Hour;
#X text 125 248 Minute;
#X obj 81 204 sel \$5;
#X obj 81 248 sel \$6;
#X obj 81 183 f;
#X obj 81 72 sel \$3;
#X obj 81 161 sel \$1;
#X obj 131 275 print time-event \$1-\$2-\$3 | \$5:\$6 happened!;
#X connect 0 0 1 0;
#X connect 1 0 2 0;
#X connect 2 0 16 0;
#X connect 7 0 8 0;
#X connect 8 0 15 0;
#X connect 8 1 0 1;
#X connect 8 2 2 1;
#X connect 8 3 14 1;
#X connect 8 4 9 1;
#X connect 9 0 13 0;
#X connect 12 0 9 0;
#X connect 13 0 3 0;
#X connect 13 0 17 0;
#X connect 14 0 12 0;
#X connect 15 0 0 0;
#X connect 16 0 14 0;
