#N canvas 968 162 485 471 10;
#N canvas 1272 524 450 300 \$0-u_samplebanks 0;
#X restore 341 38 pd \$0-u_samplebanks;
#X msg 310 374 clear;
#X obj 106 315 * 25;
#X obj 37 337 list prepend;
#X obj 37 431 s pd-\$0-u_samplebanks;
#X msg 37 376 obj 100 \$1 u_samplebank2 \$2-\$3 \$2-\$3.wav;
#X obj 37 59 inlet;
#X obj 37 165 metro 100;
#X obj 37 191 f;
#X obj 65 191 + 1;
#X msg 95 219 0;
#X msg 101 165 0;
#X obj 37 219 moses 34;
#X obj 54 113 unpack s f;
#X msg 37 140 1;
#X obj 37 269 symbol;
#X obj 37 292 list append;
#X obj 37 243 t b f f;
#X obj 37 87 t b a b b;
#X text 37 19 Pass in table-name and table count;
#X connect 1 0 4 0;
#X connect 2 0 3 1;
#X connect 3 0 5 0;
#X connect 5 0 4 0;
#X connect 6 0 18 0;
#X connect 7 0 8 0;
#X connect 8 0 9 0;
#X connect 8 0 12 0;
#X connect 9 0 8 1;
#X connect 10 0 7 0;
#X connect 11 0 8 1;
#X connect 12 0 17 0;
#X connect 12 1 10 0;
#X connect 13 0 15 1;
#X connect 13 1 12 1;
#X connect 14 0 7 0;
#X connect 15 0 16 0;
#X connect 16 0 3 0;
#X connect 17 0 15 0;
#X connect 17 1 16 1;
#X connect 17 2 2 0;
#X connect 18 0 14 0;
#X connect 18 1 13 0;
#X connect 18 2 11 0;
#X connect 18 3 1 0;
