#N canvas 0 22 795 978 10;
#X obj 379 678 vsl 15 40 0 1 0 0 empty empty empty 0 -9 0 10 -262144
-1 -1 0 1;
#X obj 379 654 r \$1-nuclear-lead-vol;
#N canvas 709 117 627 805 nuclear-lead 0;
#X obj 38 737 dac~;
#X obj 38 696 *~;
#X obj 53 672 line~;
#X obj 53 648 inlet;
#X obj 38 557 nuclear-sine;
#X obj 38 588 smad;
#X msg 124 640 amount \$1;
#X msg 191 640 wet \$1;
#X obj 130 494 loadbang;
#X msg 399 513 Pitch-Bend \$1;
#X obj 399 488 line;
#X msg 484 459 0;
#X msg 399 459 0 \, -1 400;
#N canvas 0 22 622 365 zomboy-melody 0;
#X obj 79 19 r \$1-tick;
#X obj 79 93 sel 16 24 28 36 40 44 48 52 56;
#X obj 271 93 sel 16 24 28 36 40 44 48 52 56;
#X obj 271 70 - 64;
#X obj 79 62 moses 64;
#X obj 79 41 mod 128;
#X obj 271 170 f;
#X msg 79 145 0;
#X msg 112 146 -1;
#X msg 152 146 2;
#X msg 271 145 0;
#X msg 341 145 -1;
#X msg 381 145 2;
#X msg 303 145 -3;
#X obj 39 266 f;
#X connect 0 0 5 0;
#X connect 1 0 7 0;
#X connect 1 1 7 0;
#X connect 1 2 7 0;
#X connect 1 3 7 0;
#X connect 1 4 7 0;
#X connect 1 5 7 0;
#X connect 1 6 8 0;
#X connect 1 7 7 0;
#X connect 1 8 9 0;
#X connect 2 0 10 0;
#X connect 2 1 10 0;
#X connect 2 2 10 0;
#X connect 2 3 10 0;
#X connect 2 4 13 0;
#X connect 2 5 11 0;
#X connect 2 6 12 0;
#X connect 2 7 11 0;
#X connect 2 8 10 0;
#X connect 3 0 2 0;
#X connect 4 0 1 0;
#X connect 4 1 3 0;
#X connect 5 0 4 0;
#X connect 6 0 14 0;
#X connect 7 0 14 0;
#X connect 8 0 14 0;
#X connect 9 0 14 0;
#X connect 10 0 6 0;
#X connect 11 0 6 0;
#X connect 12 0 6 0;
#X connect 13 0 6 0;
#X restore 447 44 pd zomboy-melody;
#X obj 38 497 line;
#X obj 38 475 pack f 0;
#N canvas 1086 177 416 451 new-sequence 0;
#X msg 37 18;
#X msg 64 214 set \, adddollar \$1;
#N canvas 0 22 450 300 new-list 0;
#X msg 51 79 16;
#X obj 51 101 until;
#X msg 51 167 add2 \$1;
#X msg 89 101 set;
#X obj 51 58 t b b;
#X obj 51 35 inlet;
#X obj 51 192 outlet;
#X obj 102 122 inlet var;
#X obj 94 37 bng 15 250 50 0 empty empty empty 17 7 0 10 -262144 -1
-1;
#X obj 51 144 u_wrandom;
#X connect 0 0 1 0;
#X connect 1 0 9 0;
#X connect 2 0 6 0;
#X connect 3 0 6 0;
#X connect 4 0 0 0;
#X connect 4 1 3 0;
#X connect 5 0 4 0;
#X connect 7 0 9 1;
#X connect 8 0 4 0;
#X connect 9 0 2 0;
#X restore 122 -7 pd new-list;
#X obj 37 -41 inlet;
#X obj 37 -18 t b f;
#X obj 37 262 outlet;
#X obj 122 -34 inlet;
#X obj 185 -34 inlet var;
#X obj 95 -32 bng 15 250 50 0 empty empty empty 17 7 0 10 -262144 -1
-1;
#X obj 64 49 mod 32;
#X msg 37 237 \$13;
#X obj 64 80 moses 16;
#X obj 64 103 mod 8;
#X obj 109 103 mod 8;
#X obj 64 191 + 1;
#X obj 109 126 + 8;
#X obj 197 262 outlet;
#X msg 197 238 \$14;
#X obj 197 190 + 1;
#X msg 197 213 set \, adddollar \$1 \,;
#X text 235 238 Lookahead;
#X connect 0 0 10 0;
#X connect 1 0 10 0;
#X connect 2 0 0 0;
#X connect 3 0 4 0;
#X connect 4 0 0 0;
#X connect 4 1 9 0;
#X connect 6 0 2 0;
#X connect 7 0 2 1;
#X connect 8 0 2 0;
#X connect 9 0 11 0;
#X connect 10 0 5 0;
#X connect 11 0 12 0;
#X connect 11 1 13 0;
#X connect 12 0 14 0;
#X connect 13 0 15 0;
#X connect 14 0 1 0;
#X connect 14 0 18 0;
#X connect 15 0 14 0;
#X connect 17 0 16 0;
#X connect 18 0 19 0;
#X connect 19 0 17 0;
#X restore 38 174 pd new-sequence;
#X msg 154 91 2;
#X obj 38 54 int;
#X obj 38 76 change;
#X obj 38 204 sel 0 1 2;
#X obj 146 234 spigot;
#X obj 179 212 mod 2;
#X obj 38 98 mod 32;
#X obj 38 400 f;
#X msg 38 319 bang;
#X obj 38 530 pack f 127;
#X msg 130 515 Attack 0 \, Release 20;
#X msg 184 91 3 1 1;
#X obj 38 120 moses 4;
#X obj 134 584 loadbang;
#X msg 190 605 1;
#X floatatom 168 559 5 0 0 0 - - -, f 5;
#X msg 134 606 0.95;
#X obj 146 40 loadbang;
#X obj 203 63 r generate-track-\$1;
#X msg 310 285 base \$1;
#X msg 373 313 mode \$1;
#X obj 373 291 r \$1-scale-mode;
#X obj 87 324 r \$1-bass-note-seq;
#X obj 151 257 del 285.334;
#X obj 158 280 del 285.334;
#X msg 312 513 Vib-Depth \$1;
#X floatatom 305 473 5 0 0 0 - - -, f 5;
#X obj 38 444 + 12;
#X obj 38 32 / 4;
#X obj 61 249 del 107;
#X obj 38 422 makenote 127 105;
#X obj 38 10 r \$1-tick;
#X obj 38 620 *~ 0.1;
#X obj 310 239 r \$1-key-centre;
#X obj 310 262 + 36;
#X obj 87 366 m_minorscale;
#X obj 119 769 switch~;
#X obj 119 697 != 0;
#X obj 119 719 sel 1;
#X msg 119 741 1;
#X obj 149 741 pipe 100;
#X connect 1 0 0 0;
#X connect 1 0 0 1;
#X connect 2 0 1 1;
#X connect 3 0 2 0;
#X connect 3 0 54 0;
#X connect 4 0 5 0;
#X connect 5 0 49 0;
#X connect 6 0 5 1;
#X connect 7 0 5 1;
#X connect 8 0 27 0;
#X connect 9 0 4 1;
#X connect 10 0 9 0;
#X connect 11 0 10 0;
#X connect 12 0 10 0;
#X connect 14 0 26 0;
#X connect 15 0 14 0;
#X connect 16 0 20 0;
#X connect 17 0 16 1;
#X connect 18 0 19 0;
#X connect 19 0 23 0;
#X connect 20 0 25 0;
#X connect 20 1 25 0;
#X connect 20 1 46 0;
#X connect 20 2 46 0;
#X connect 21 0 25 0;
#X connect 21 0 40 0;
#X connect 22 0 21 1;
#X connect 23 0 22 0;
#X connect 23 0 29 0;
#X connect 24 0 47 0;
#X connect 25 0 24 0;
#X connect 26 0 4 0;
#X connect 27 0 4 1;
#X connect 28 0 16 2;
#X connect 29 1 16 0;
#X connect 30 0 33 0;
#X connect 30 0 31 0;
#X connect 31 0 7 0;
#X connect 32 0 6 0;
#X connect 33 0 6 0;
#X connect 34 0 28 0;
#X connect 34 0 16 1;
#X connect 35 0 28 0;
#X connect 35 0 16 1;
#X connect 36 0 52 1;
#X connect 37 0 52 1;
#X connect 38 0 37 0;
#X connect 39 0 52 0;
#X connect 40 0 25 0;
#X connect 40 0 41 0;
#X connect 41 0 25 0;
#X connect 42 0 4 1;
#X connect 43 0 42 0;
#X connect 44 0 15 0;
#X connect 45 0 18 0;
#X connect 46 0 25 0;
#X connect 47 0 44 0;
#X connect 47 1 26 1;
#X connect 48 0 45 0;
#X connect 49 0 1 0;
#X connect 50 0 51 0;
#X connect 51 0 36 0;
#X connect 52 0 24 1;
#X connect 54 0 55 0;
#X connect 55 0 56 0;
#X connect 55 1 57 0;
#X connect 56 0 53 0;
#X connect 57 0 53 0;
#X restore 379 726 pd nuclear-lead;
#X obj 419 789 vsl 15 40 0 1 0 0 empty empty empty 0 -9 0 10 -262144
-1 -1 0 1;
#X obj 419 766 r \$1-air-raid-bass-vol;
#N canvas 528 73 734 615 air-raid-bass 0;
#X obj 51 549 throw~ track-\$1-LEFT;
#X obj 131 569 throw~ track-\$1-RIGHT;
#X obj 51 12 r \$0-tick;
#X obj 51 346 osc~;
#X obj 51 323 sig~;
#X obj 51 251 mtof;
#X msg 138 204 mode harmonic;
#X obj 51 34 mod 64;
#X msg 51 98 0;
#X msg 172 98 7;
#X obj 51 140 f;
#X msg 142 98 4;
#X msg 82 98 2;
#X msg 112 98 3;
#X obj 51 56 sel 0 4 8 12 16 20 24 28 32 36 40;
#X obj 109 400 clip~ -1 1;
#X obj 51 273 pack f 100;
#X obj 51 295 line;
#X obj 51 490 *~ 1;
#X obj 138 181 loadbang;
#X obj 51 229 m_minorscale 31;
#X obj 51 430 *~ 1;
#X obj 51 378 *~ 3;
#X obj 109 377 *~ 1.8;
#X obj 201 346 osc~;
#X obj 259 400 clip~ -1 1;
#X obj 201 430 *~ 1;
#X obj 201 378 *~ 3;
#X obj 259 377 *~ 1.8;
#X obj 201 326 *~ 1.00001;
#X obj 284 464 inlet;
#X obj 201 520 *~;
#X obj 51 520 *~;
#X obj 284 508 line~;
#X obj 284 486 pack f 10;
#X obj 302 50 r \$1-state;
#X obj 302 74 sel drop;
#X obj 362 72 r \$1-reset;
#X msg 302 96 1;
#X msg 347 97 0;
#X obj 302 118 switch~;
#X connect 2 0 7 0;
#X connect 3 0 22 0;
#X connect 3 0 23 0;
#X connect 4 0 3 0;
#X connect 4 0 29 0;
#X connect 5 0 16 0;
#X connect 6 0 20 1;
#X connect 7 0 14 0;
#X connect 8 0 10 0;
#X connect 9 0 10 0;
#X connect 10 0 20 0;
#X connect 11 0 10 0;
#X connect 12 0 10 0;
#X connect 13 0 10 0;
#X connect 14 0 8 0;
#X connect 14 1 9 0;
#X connect 14 2 11 0;
#X connect 14 3 8 0;
#X connect 14 4 12 0;
#X connect 14 5 13 0;
#X connect 14 6 8 0;
#X connect 14 7 13 0;
#X connect 14 8 8 0;
#X connect 14 9 13 0;
#X connect 14 10 8 0;
#X connect 15 0 21 0;
#X connect 16 0 17 0;
#X connect 17 0 4 0;
#X connect 18 0 32 0;
#X connect 19 0 6 0;
#X connect 20 0 5 0;
#X connect 21 0 18 0;
#X connect 22 0 21 0;
#X connect 23 0 15 0;
#X connect 24 0 27 0;
#X connect 24 0 28 0;
#X connect 25 0 26 0;
#X connect 26 0 31 0;
#X connect 27 0 26 0;
#X connect 28 0 25 0;
#X connect 29 0 24 0;
#X connect 30 0 34 0;
#X connect 31 0 1 0;
#X connect 32 0 0 0;
#X connect 33 0 31 1;
#X connect 33 0 32 1;
#X connect 34 0 33 0;
#X connect 36 0 38 0;
#X connect 36 1 39 0;
#X connect 37 0 39 0;
#X connect 38 0 40 0;
#X connect 39 0 40 0;
#X restore 419 837 pd air-raid-bass;
#N canvas 633 356 437 378 noise-synth 0;
#X obj 35 192 e_scompress;
#X obj 35 24 noise~;
#X obj 66 163 *~ 1.45;
#X obj 35 86 *~ 75;
#X obj 35 61 bp~ 391.9 300;
#X obj 172 136 loadbang;
#X msg 172 161 ratio 4;
#X obj 264 162 sample-synth AKWF-2;
#X obj 264 113 loadbang;
#X msg 264 137 79 100;
#X obj 130 258 line~;
#X obj 130 232 inlet;
#X obj 35 221 *~ 0.3;
#X obj 35 284 *~;
#X obj 115 284 *~;
#X obj 35 312 throw~ track-\$1-LEFT;
#X obj 115 332 throw~ track-\$1-RIGHT;
#X obj 66 136 r~ \$1-kick;
#X connect 0 0 12 0;
#X connect 1 0 4 0;
#X connect 2 0 0 1;
#X connect 3 0 0 0;
#X connect 4 0 3 0;
#X connect 5 0 6 0;
#X connect 6 0 0 2;
#X connect 7 0 0 0;
#X connect 8 0 9 0;
#X connect 9 0 7 0;
#X connect 10 0 13 1;
#X connect 10 0 14 1;
#X connect 11 0 10 0;
#X connect 12 0 13 0;
#X connect 12 0 14 0;
#X connect 13 0 15 0;
#X connect 14 0 16 0;
#X connect 17 0 2 0;
#X restore 269 317 pd noise-synth;
#X obj 269 270 vsl 15 40 0 1 0 0 empty empty empty 0 -9 0 10 -262144
-1 -1 0 1;
#X obj 269 246 r \$1-noise-synth-vol;
#X obj 618 337 vsl 15 40 0 1 0 0 empty empty empty 0 -9 0 10 -262144
-1 -1 0 1;
#X obj 618 385 siren \$1 0;
#X obj 618 308 r \$1-siren-0-vol;
#X obj 722 337 vsl 15 40 0 1 0 0 empty empty empty 0 -9 0 10 -262144
-1 -1 0 1;
#X obj 722 308 r \$1-siren-1-vol;
#X obj 722 385 siren \$1 1;
#X obj 813 380 siren-down \$1 2;
#N canvas 226 177 553 567 synth 0;
#X obj 50 520 dac~;
#X obj 50 399 e_pitchshift;
#X msg 119 376 pitch \$1;
#X obj 119 330 mod 6;
#X obj 119 353 - 3;
#X obj 50 255 + 18;
#X obj 50 206 div 6;
#X obj 50 229 * 6;
#X obj 50 453 *~;
#X obj 166 337 vline~;
#X msg 166 314 0 \, 1 5 \, 0 500 100;
#X obj 50 177 t f f b;
#X obj 50 488 *~ 1;
#X obj 50 40 t a b;
#X obj 50 80 list prepend;
#X obj 50 101 list trim;
#X obj 50 123 route 0 1;
#X obj 119 62 tgl 15 0 empty empty empty 17 7 0 10 -262144 -1 -1 0
1;
#X msg 300 278 ARP-Poly-Lead-\$1;
#X obj 300 399 e_pitchshift;
#X msg 369 376 pitch \$1;
#X obj 369 330 mod 6;
#X obj 369 353 - 3;
#X obj 300 255 + 18;
#X obj 300 206 div 6;
#X obj 300 229 * 6;
#X obj 300 453 *~;
#X obj 416 337 vline~;
#X msg 416 314 0 \, 1 5 \, 0 500 100;
#X obj 300 177 t f f b;
#X obj 50 14 r bass-note;
#X obj 50 152 - 3;
#X obj 300 152 - 3;
#X msg 50 278 ARP-Poly-Lead-\$1;
#X obj 50 304 s_playtable;
#X obj 300 304 s_playtable;
#X connect 1 0 8 0;
#X connect 2 0 1 1;
#X connect 3 0 4 0;
#X connect 4 0 2 0;
#X connect 5 0 33 0;
#X connect 6 0 7 0;
#X connect 7 0 5 0;
#X connect 8 0 12 0;
#X connect 9 0 8 1;
#X connect 10 0 9 0;
#X connect 11 0 6 0;
#X connect 11 1 3 0;
#X connect 11 2 10 0;
#X connect 12 0 0 0;
#X connect 12 0 0 1;
#X connect 13 0 14 0;
#X connect 13 1 17 0;
#X connect 14 0 15 0;
#X connect 15 0 16 0;
#X connect 16 0 31 0;
#X connect 16 1 32 0;
#X connect 17 0 14 1;
#X connect 18 0 35 0;
#X connect 19 0 26 0;
#X connect 20 0 19 1;
#X connect 21 0 22 0;
#X connect 22 0 20 0;
#X connect 23 0 18 0;
#X connect 24 0 25 0;
#X connect 25 0 23 0;
#X connect 26 0 12 0;
#X connect 27 0 26 1;
#X connect 28 0 27 0;
#X connect 29 0 24 0;
#X connect 29 1 21 0;
#X connect 29 2 28 0;
#X connect 31 0 11 0;
#X connect 32 0 29 0;
#X connect 33 0 34 0;
#X connect 34 0 1 0;
#X connect 35 0 19 0;
#X restore 396 312 pd synth;
#N canvas 11 219 648 394 plink 0;
#X obj 87 136 osc~;
#X obj 87 111 mtof;
#X obj 85 45 r \$1-plink-note;
#X obj 87 370 dac~;
#X obj 87 228 *~;
#X obj 212 132 vline~;
#X msg 77 81 63;
#X obj 212 45 r \$1-tick;
#X obj 212 89 sel 0;
#X floatatom 112 80 5 0 0 0 - - -, f 5;
#X msg 212 110 0 2 \, 1 15 2 \, 0 15 135;
#X obj 87 250 *~ 0.2;
#X obj 87 200 clip~ -1 1;
#X obj 87 168 *~ 2;
#X floatatom 125 166 5 0 0 0 - - -, f 5;
#X obj 253 290 delwrite~ \$1-plink-del 1000;
#X obj 253 312 delread~ \$1-plink-del 1000;
#X msg 345 182 140;
#X obj 345 207 m_bpm2ms;
#X obj 345 230 / 4;
#X obj 345 161 loadbang;
#X obj 345 252 * 6;
#X obj 404 138 t b f;
#X msg 431 188 1.5;
#X msg 461 188 3;
#X msg 491 188 6;
#X obj 431 163 sel 0 1 2 3 4 5;
#X msg 521 188 2;
#X msg 551 188 4;
#X msg 581 188 8;
#X obj 404 116 random 6;
#X floatatom 458 141 5 0 0 0 - - -, f 5;
#X obj 404 94 r generate-track-\$1;
#X obj 202 299 *~ 0.95;
#X obj 131 105 loadbang;
#X msg 131 127 82;
#X obj 212 67 mod 256;
#X connect 0 0 13 0;
#X connect 1 0 0 0;
#X connect 4 0 11 0;
#X connect 5 0 4 1;
#X connect 6 0 1 0;
#X connect 8 0 10 0;
#X connect 9 0 1 0;
#X connect 10 0 5 0;
#X connect 11 0 3 0;
#X connect 11 0 3 1;
#X connect 11 0 15 0;
#X connect 12 0 4 0;
#X connect 13 0 12 0;
#X connect 14 0 13 1;
#X connect 16 0 33 0;
#X connect 17 0 18 0;
#X connect 18 0 19 0;
#X connect 19 0 21 0;
#X connect 20 0 17 0;
#X connect 21 0 16 0;
#X connect 22 0 17 0;
#X connect 22 1 26 0;
#X connect 22 1 31 0;
#X connect 23 0 21 1;
#X connect 24 0 21 1;
#X connect 25 0 21 1;
#X connect 26 0 23 0;
#X connect 26 1 24 0;
#X connect 26 2 25 0;
#X connect 26 3 27 0;
#X connect 26 4 28 0;
#X connect 26 5 29 0;
#X connect 27 0 21 1;
#X connect 28 0 21 1;
#X connect 29 0 21 1;
#X connect 30 0 22 0;
#X connect 32 0 30 0;
#X connect 33 0 15 0;
#X connect 33 0 3 1;
#X connect 33 0 3 0;
#X connect 34 0 35 0;
#X connect 35 0 1 0;
#X connect 36 0 8 0;
#X restore 401 351 pd plink;
#X connect 0 0 2 0;
#X connect 1 0 0 0;
#X connect 3 0 5 0;
#X connect 4 0 3 0;
#X connect 7 0 6 0;
#X connect 8 0 7 0;
#X connect 9 0 10 0;
#X connect 11 0 9 0;
#X connect 12 0 14 0;
#X connect 13 0 12 0;
