#N canvas 185 506 472 209 10;
#X obj 60 106 *~ 22679;
#X obj 60 152 outlet~;
#X obj 236 30 inlet wavetable;
#X msg 236 94 set \$1-\$2;
#X obj 60 130 tabread4~ strontium-\$1;
#X obj 236 51 symbol;
#X obj 333 30 loadbang;
#X obj 333 52 symbol \$1;
#X obj 236 72 pack s s;
#X obj 244 118 list append \$0;
#X obj 121 82 r \$0-samples;
#X msg 244 142 \; get-\$1-\$2-samples \$3 \;;
#X floatatom 127 105 5 0 0 0 - - -, f 5;
#X obj 60 70 inlet~;
#X connect 0 0 4 0;
#X connect 2 0 5 0;
#X connect 3 0 4 0;
#X connect 4 0 1 0;
#X connect 5 0 8 0;
#X connect 6 0 7 0;
#X connect 7 0 8 1;
#X connect 8 0 3 0;
#X connect 8 0 9 0;
#X connect 9 0 11 0;
#X connect 10 0 0 1;
#X connect 10 0 12 0;
#X connect 13 0 0 0;
