#N canvas 461 168 800 516 10;
#X obj 105 -19 inlet~;
#X obj 329 -57 inlet cutoff;
#X obj 153 150 outlet~;
#X obj 171 -15 sig~;
#X obj 169 10 lop~ 5;
#X obj 107 86 vcf~ \$1;
#X obj 107 109 vcf~ \$1;
#X obj 51 85 *~ 0.2;
#X connect 0 0 5 0;
#X connect 0 0 7 0;
#X connect 1 0 3 0;
#X connect 3 0 4 0;
#X connect 4 0 5 1;
#X connect 4 0 6 1;
#X connect 5 0 6 0;
#X connect 6 1 2 0;
#X connect 7 0 2 0;
