#N canvas 0 22 424 234 10;
#X msg 155 74 0;
#X msg 177 112 1;
#X obj 85 66 spigot 1;
#X obj 85 92 t a b b;
#X obj 85 44 inlet;
#X obj 85 153 outlet;
#X obj 108 129 del \$1;
#X obj 147 44 inlet;
#X connect 0 0 2 1;
#X connect 1 0 2 1;
#X connect 2 0 3 0;
#X connect 3 0 5 0;
#X connect 3 1 6 0;
#X connect 3 2 0 0;
#X connect 4 0 2 0;
#X connect 6 0 1 0;
#X connect 7 0 6 1;
