#N canvas 176 243 552 505 10;
#X obj 48 72 inlet~;
#X obj 49 391 outlet~;
#X obj 242 389 outlet~;
#X obj 49 330 *~;
#X obj 64 307 line~;
#X obj 64 281 pack 0 10;
#N canvas 228 198 627 317 LICENSE-BSD 0;
#X text 121 56 This software is copyrighted by Miller Puckette \, Reality
Jockey Ltd. and others. The terms (the "Standard Improved BSD License")
apply to all files associated with the software unless explicitly disclaimed
in individual files.;
#X text 123 148 See the file LICENSE.txt for the full license text.
;
#X restore 252 12 pd LICENSE-BSD;
#X obj 238 76 inlet~;
#X obj 242 335 *~;
#X obj 302 70 inlet;
#X obj 341 122 * 2;
#X obj 342 150 min 1;
#X obj 302 173 max 0;
#X obj 302 123 - 0.5;
#X obj 302 149 * 2;
#X obj 257 313 line~;
#X obj 257 287 pack 0 10;
#X obj 302 92 t f f;
#X text 55 -7 YL@RM;
#X obj 129 330 *~;
#X obj 144 307 line~;
#X obj 144 281 pack 0 10;
#X obj 322 335 *~;
#X obj 337 313 line~;
#X obj 337 287 pack 0 10;
#X obj 64 230 swap 1;
#X obj 64 258 -;
#X obj 257 235 swap 1;
#X obj 257 263 -;
#X connect 0 0 3 0;
#X connect 0 0 19 0;
#X connect 3 0 1 0;
#X connect 4 0 3 1;
#X connect 5 0 4 0;
#X connect 7 0 8 0;
#X connect 7 0 22 0;
#X connect 8 0 1 0;
#X connect 9 0 17 0;
#X connect 10 0 11 0;
#X connect 11 0 27 0;
#X connect 11 0 24 0;
#X connect 12 0 25 0;
#X connect 12 0 21 0;
#X connect 13 0 14 0;
#X connect 14 0 12 0;
#X connect 15 0 8 1;
#X connect 16 0 15 0;
#X connect 17 0 13 0;
#X connect 17 1 10 0;
#X connect 19 0 2 0;
#X connect 20 0 19 1;
#X connect 21 0 20 0;
#X connect 22 0 2 0;
#X connect 23 0 22 1;
#X connect 24 0 23 0;
#X connect 25 0 26 0;
#X connect 25 1 26 1;
#X connect 26 0 5 0;
#X connect 27 0 28 0;
#X connect 27 1 28 1;
#X connect 28 0 16 0;
