#N canvas 424 144 843 575 10;
#X obj 36 22 inlet~;
#X obj 8 522 outlet~;
#X obj 523 57 inlet;
#X obj 563 57 loadbang;
#X obj 98 142 *~;
#X obj 202 477 *~;
#X msg 65 472 \$1 10;
#X obj 65 452 r \$0-dry;
#X obj 523 150 u_dispatch \$0 dry;
#X obj 523 190 u_dispatch \$0 float;
#X obj 113 22 r \$0-float;
#X obj 523 110 u_dispatch \$0 feedback;
#X obj 551 240 r \$0-feedback;
#X obj 494 299 pack 200 1;
#X obj 202 524 delwrite~ \$0-del 1000;
#X obj 202 151 delread~ \$0-del;
#X obj 551 259 min 1;
#X obj 551 279 max 0;
#X obj 523 130 u_dispatch \$0 num;
#X msg 444 319 0 10;
#X obj 405 239 * 0;
#X obj 420 195 r \$0-num;
#X obj 444 299 del;
#N canvas 172 83 586 377 LICENSE-GPL 0;
#X text 57 88 This program is free software: you can redistribute it
and/or modify it under the terms of the GNU General Public License
as published by the Free Software Foundation \, either version 3 of
the License \, or (at your option) any later version.;
#X text 58 168 This program is distributed in the hope that it will
be useful \, but WITHOUT ANY WARRANTY \; without even the implied warranty
of MERCHANTABILITY or FITNESS FOR A PARTICULAR PURPOSE. See the GNU
General Public License for more details.;
#X text 57 261 You should have received a copy of the GNU General Public
License along with this program. If not \, see <http://www.gnu.org/licenses/>.
;
#X text 61 54 Copyright (C) 2009 \, Reality Jockey Ltd.;
#X text 60 325 See the file LICENSE.txt for the full license text.
;
#X restore 523 27 pd LICENSE-GPL;
#X obj 420 217 - 1;
#X obj 444 279 t b f;
#X obj 405 259 moses 1;
#N canvas 0 22 450 300 (v)line~ 0;
#X msg 151 164 0;
#X obj 106 156 pipe;
#X msg 106 179 \$1 10;
#X obj 106 70 t a b;
#X msg 106 92 \$2 \$1;
#X obj 106 119 unpack f f;
#X obj 106 43 inlet;
#X obj 106 221 outlet;
#X connect 0 0 7 0;
#X connect 1 0 2 0;
#X connect 2 0 7 0;
#X connect 3 0 4 0;
#X connect 3 1 0 0;
#X connect 4 0 5 0;
#X connect 5 0 1 0;
#X connect 5 1 1 1;
#X connect 6 0 3 0;
#X restore 494 319 pd (v)line~;
#X obj 444 369 line~;
#N canvas 0 22 450 300 (v)line~ 0;
#X obj 123 85 t b f b;
#X obj 123 109 del;
#X obj 123 168 t a;
#X obj 123 61 inlet;
#X obj 123 190 outlet;
#X msg 162 136 1;
#X msg 123 136 0 10;
#X connect 0 0 1 0;
#X connect 0 1 1 1;
#X connect 0 2 5 0;
#X connect 1 0 6 0;
#X connect 2 0 4 0;
#X connect 3 0 0 0;
#X connect 5 0 2 0;
#X connect 6 0 2 0;
#X restore 113 82 pd (v)line~;
#X obj 113 112 line~;
#X obj 523 170 u_dispatch \$0 freq;
#X obj 284 191 r \$0-freq;
#X msg 380 301 freq \$1;
#X obj 269 331 e_freqshift \$0-freq;
#N canvas 0 22 526 498 safety-filter 0;
#X obj 121 73 inlet~;
#X obj 121 114 hip~ 10;
#X obj 121 134 hip~ 10;
#X obj 121 154 hip~ 10;
#X obj 121 306 outlet~;
#X obj 121 94 hip~ 10;
#X obj 121 194 lop~ 20000;
#X obj 121 214 lop~ 20000;
#X obj 121 234 lop~ 20000;
#X obj 121 254 lop~ 20000;
#X connect 0 0 5 0;
#X connect 1 0 2 0;
#X connect 2 0 3 0;
#X connect 3 0 6 0;
#X connect 5 0 1 0;
#X connect 6 0 7 0;
#X connect 7 0 8 0;
#X connect 8 0 9 0;
#X connect 9 0 4 0;
#X restore 269 361 pd safety-filter;
#N canvas 0 22 766 325 c_xfade 0;
#X obj 76 87 inlet~;
#X obj 142 87 inlet~;
#X obj 77 198 outlet~;
#X obj 201 87 inlet;
#X obj 141 136 -~;
#X obj 141 156 *~;
#X text 371 150 (1-x)*a + x*b;
#X text 371 167 = a - x*a + x*b;
#X text 371 184 = a + x*(b - a);
#X text 366 119 x: fade factor (0-1);
#X text 366 90 a: sig from inlet~ 0;
#X text 339 50 Linear crossfade according to the following calculation:
;
#X text 367 104 b: sig from inlet~ 1;
#N canvas 172 83 586 377 LICENSE-GPL 0;
#X text 57 88 This program is free software: you can redistribute it
and/or modify it under the terms of the GNU General Public License
as published by the Free Software Foundation \, either version 3 of
the License \, or (at your option) any later version.;
#X text 58 168 This program is distributed in the hope that it will
be useful \, but WITHOUT ANY WARRANTY \; without even the implied warranty
of MERCHANTABILITY or FITNESS FOR A PARTICULAR PURPOSE. See the GNU
General Public License for more details.;
#X text 57 261 You should have received a copy of the GNU General Public
License along with this program. If not \, see <http://www.gnu.org/licenses/>.
;
#X text 61 54 Copyright (C) 2009 \, Reality Jockey Ltd.;
#X text 60 325 See the file LICENSE.txt for the full license text.
;
#X restore 614 19 pd LICENSE-GPL;
#X obj 201 127 line~;
#X connect 0 0 4 1;
#X connect 0 0 2 0;
#X connect 1 0 4 0;
#X connect 3 0 14 0;
#X connect 4 0 5 0;
#X connect 5 0 2 0;
#X connect 14 0 5 1;
#X restore 8 492 pd c_xfade;
#X obj 284 211 t f f;
#X obj 284 271 lop~ 80;
#X obj 217 301 -~;
#X obj 269 301 *~;
#X obj 217 271 sig~ 1;
#X msg 563 80 freq 0;
#X obj 202 365 *~;
#X obj 405 150 t f f;
#X obj 113 52 t f f f;
#N canvas 0 22 510 617 glitchBangs 0;
#X obj 79 283 * 0.9;
#X obj 79 313 t f f;
#X obj 79 497 spigot 0;
#X obj 21 285 t f;
#X msg 79 91 100;
#X obj 106 343 > 0.15;
#X obj 265 252 + 1;
#X obj 237 252 f 1;
#X obj 99 151 del 1000;
#X obj 99 121 t b f;
#X obj 99 181 f;
#X obj 79 61 t b f b b;
#X msg 183 121 stop;
#X obj 145 437 == 0;
#X obj 237 355 ==;
#X obj 124 467 && 1;
#X obj 106 554 outlet;
#X obj 79 213 t f b;
#X obj 252 304 sel 0;
#X msg 252 326 -1;
#X msg 252 226 0;
#X obj 79 31 inlet \$0-float;
#X obj 106 253 inlet \$0-feedback;
#X obj 252 282 inlet \$0-num;
#X text 175 32 // Message-rate glitch bangs;
#X obj 79 527 t f f;
#X obj 349 77 inlet stop;
#X connect 0 0 1 0;
#X connect 1 0 2 0;
#X connect 1 1 5 0;
#X connect 2 0 25 0;
#X connect 3 0 9 0;
#X connect 4 0 17 0;
#X connect 5 0 15 0;
#X connect 6 0 7 1;
#X connect 7 0 6 0;
#X connect 7 0 14 0;
#X connect 8 0 10 0;
#X connect 9 0 8 0;
#X connect 9 1 10 1;
#X connect 10 0 17 0;
#X connect 11 0 4 0;
#X connect 11 1 8 1;
#X connect 11 2 20 0;
#X connect 11 3 12 0;
#X connect 12 0 8 0;
#X connect 13 0 15 1;
#X connect 14 0 13 0;
#X connect 15 0 2 1;
#X connect 17 0 0 0;
#X connect 17 1 7 0;
#X connect 18 0 19 0;
#X connect 18 1 14 1;
#X connect 19 0 14 1;
#X connect 20 0 7 1;
#X connect 21 0 11 0;
#X connect 22 0 0 1;
#X connect 23 0 18 0;
#X connect 25 0 3 0;
#X connect 25 1 16 0;
#X connect 26 0 12 0;
#X restore 639 470 pd glitchBangs;
#X obj 665 422 r \$0-feedback;
#X obj 690 445 r \$0-num;
#X obj 639 270 r \$0-float;
#X obj 684 298 r \$0-dry;
#X obj 684 320 == 1;
#X obj 684 342 == 0;
#X obj 639 392 spigot 0;
#X obj 639 514 outlet glitchBangs;
#X obj 639 492 t f;
#X obj 736 367 sel 0;
#X obj 684 364 t f f;
#X msg 284 242 1;
#X connect 0 0 4 0;
#X connect 0 0 36 1;
#X connect 2 0 11 0;
#X connect 3 0 42 0;
#X connect 4 0 14 0;
#X connect 4 0 36 0;
#X connect 5 0 14 0;
#X connect 6 0 36 2;
#X connect 7 0 6 0;
#X connect 8 0 31 0;
#X connect 10 0 45 0;
#X connect 11 0 18 0;
#X connect 12 0 16 0;
#X connect 13 0 27 0;
#X connect 15 0 36 0;
#X connect 15 0 40 0;
#X connect 15 0 43 0;
#X connect 16 0 17 0;
#X connect 17 0 13 1;
#X connect 18 0 8 0;
#X connect 19 0 28 0;
#X connect 20 0 26 0;
#X connect 21 0 24 0;
#X connect 22 0 19 0;
#X connect 24 0 20 1;
#X connect 25 0 22 0;
#X connect 25 1 22 1;
#X connect 26 1 25 0;
#X connect 27 0 28 0;
#X connect 28 0 5 1;
#X connect 29 0 30 0;
#X connect 30 0 4 1;
#X connect 31 0 9 0;
#X connect 32 0 37 0;
#X connect 33 0 34 1;
#X connect 34 0 35 0;
#X connect 35 0 5 0;
#X connect 36 0 1 0;
#X connect 37 0 58 0;
#X connect 37 1 33 0;
#X connect 38 0 39 1;
#X connect 38 0 40 1;
#X connect 39 0 43 1;
#X connect 40 0 34 0;
#X connect 41 0 39 0;
#X connect 42 0 11 0;
#X connect 43 0 5 0;
#X connect 44 0 20 0;
#X connect 44 1 13 0;
#X connect 45 0 29 0;
#X connect 45 1 15 0;
#X connect 45 2 44 0;
#X connect 46 0 55 0;
#X connect 47 0 46 1;
#X connect 48 0 46 2;
#X connect 49 0 53 0;
#X connect 50 0 51 0;
#X connect 51 0 52 0;
#X connect 52 0 57 0;
#X connect 53 0 46 0;
#X connect 55 0 54 0;
#X connect 56 0 46 3;
#X connect 57 0 53 1;
#X connect 57 1 56 0;
#X connect 58 0 38 0;
