#N canvas 0 22 756 393 10;
#X obj 222 38 osc~ 5;
#X obj 222 140 /~ 2;
#X obj 222 161 +~ 0.5;
#X obj 131 222 inlet~;
#X obj 131 304 outlet~;
#X obj 297 177 swap 1;
#X obj 297 198 -;
#X obj 222 243 +~ 0;
#X obj 222 182 *~ 1;
#X obj 297 219 / 2;
#N canvas 0 22 450 300 clipper 0;
#X obj 135 158 clip~;
#X obj 135 135 inlet~;
#X obj 135 221 outlet~;
#X obj 210 108 * -1;
#X msg 233 149 1;
#X obj 233 170 /;
#X obj 233 129 t b f;
#X obj 187 88 t f f f;
#X obj 135 192 *~ 1;
#X obj 187 66 min 0.999;
#X obj 187 45 max 0.001;
#X obj 187 24 inlet shape;
#X connect 0 0 8 0;
#X connect 1 0 0 0;
#X connect 3 0 0 1;
#X connect 4 0 5 0;
#X connect 5 0 8 1;
#X connect 6 0 4 0;
#X connect 6 1 5 1;
#X connect 7 0 0 2;
#X connect 7 1 3 0;
#X connect 7 2 6 0;
#X connect 8 0 2 0;
#X connect 9 0 7 0;
#X connect 10 0 9 0;
#X connect 11 0 10 0;
#X restore 222 79 pd clipper;
#X obj 289 48 r \$0-shape;
#X obj 222 16 r \$0-freq;
#X obj 297 109 r \$0-depth;
#X obj 426 80 inlet;
#X obj 485 24 loadbang;
#X obj 486 77 u_loader e_tremolo-\$1 \$0;
#X obj 426 107 u_dispatch \$0 freq;
#N canvas 172 83 586 377 LICENSE-GPL 0;
#X text 57 88 This program is free software: you can redistribute it
and/or modify it under the terms of the GNU General Public License
as published by the Free Software Foundation \, either version 3 of
the License \, or (at your option) any later version.;
#X text 58 168 This program is distributed in the hope that it will
be useful \, but WITHOUT ANY WARRANTY \; without even the implied warranty
of MERCHANTABILITY or FITNESS FOR A PARTICULAR PURPOSE. See the GNU
General Public License for more details.;
#X text 57 261 You should have received a copy of the GNU General Public
License along with this program. If not \, see <http://www.gnu.org/licenses/>.
;
#X text 61 54 Copyright (C) 2009 \, Reality Jockey Ltd.;
#X text 60 325 See the file LICENSE.txt for the full license text.
;
#X restore 621 24 pd LICENSE-GPL;
#X obj 426 127 u_dispatch \$0 depth;
#X obj 426 147 u_dispatch \$0 shape;
#X obj 297 130 max 0;
#X obj 297 151 min 1;
#X obj 131 272 *~;
#X obj 293 16 r \$0-phase;
#X obj 426 167 u_dispatch \$0 phase;
#X msg 485 48 freq 5 \, shape 1 \, depth 1 \, phase 1;
#N canvas 231 380 486 513 conversions 0;
#X text 91 198 crotchet;
#X msg 57 198 1;
#X msg 57 178 2;
#X msg 57 158 3;
#X text 91 178 quaver;
#X text 91 158 quaver-triplet;
#X msg 57 138 4;
#X msg 57 118 5;
#X msg 57 98 6;
#X msg 57 78 7;
#X text 91 138 semi-quaver;
#X text 91 118 quintuplets;
#X text 91 98 semi-quaver-triplets;
#X text 91 78 septuplets;
#X msg 57 58 8;
#X text 91 58 demi-semi-quavers;
#X msg 57 38 9;
#X text 91 38 demi-semi-quaver-triplets;
#X msg 57 238 0.5;
#X text 91 238 minim;
#X text 91 278 crotchet;
#X msg 57 298 0.5;
#X msg 57 278 1;
#X text 91 298 minim;
#X text 141 258 quaver;
#X msg 57 318 0.5;
#X text 91 318 minim;
#X msg 57 218 0.333333;
#X text 141 218 crotchet-triplets;
#X msg 57 258 0.666667;
#X obj 266 216 / 3;
#X msg 266 195 1;
#X msg 295 234 1;
#X obj 295 255 / 6;
#X connect 31 0 30 0;
#X connect 32 0 33 0;
#X restore 420 222 pd conversions;
#X connect 0 0 10 0;
#X connect 1 0 2 0;
#X connect 2 0 8 0;
#X connect 3 0 23 0;
#X connect 5 0 6 0;
#X connect 5 1 6 1;
#X connect 6 0 9 0;
#X connect 7 0 23 1;
#X connect 8 0 7 0;
#X connect 9 0 7 1;
#X connect 10 0 1 0;
#X connect 11 0 10 1;
#X connect 12 0 0 0;
#X connect 13 0 21 0;
#X connect 14 0 17 0;
#X connect 15 0 26 0;
#X connect 17 0 19 0;
#X connect 19 0 20 0;
#X connect 20 0 25 0;
#X connect 21 0 22 0;
#X connect 22 0 5 0;
#X connect 22 0 8 1;
#X connect 23 0 4 0;
#X connect 24 0 0 1;
#X connect 26 0 17 0;
