#N canvas 166 136 347 182 10;
#X obj 66 78 u_record \$1-l \$2;
#X obj 170 78 u_record \$1-r \$2;
#X obj 66 52 inlet~ l;
#X obj 170 51 inlet~ r;
#X obj 263 54 inlet;
#X obj 66 105 outlet;
#X connect 0 0 5 0;
#X connect 1 0 5 0;
#X connect 2 0 0 0;
#X connect 3 0 1 0;
#X connect 4 0 1 1;
#X connect 4 0 0 1;
