#N canvas 548 70 490 420 10;
#X text 114 124 Wrapper for seq object (because it handles paths in
a very silly way);
#X obj 42 37 inlet playback;
#X obj 152 37 inlet loading;
#X obj 152 59 symbol;
#X msg 152 81 read \$1;
#X obj 42 201 pack f f;
#X obj 116 231 list prepend SUSTAIN;
#X obj 116 261 list trim;
#X obj 42 351 outlet;
#X obj 42 321 t a;
#X msg 116 201 \$2 \$1;
#X obj 42 139 seq;
#X obj 42 171 midiparse ----;
#X connect 1 0 11 0;
#X connect 2 0 3 0;
#X connect 3 0 4 0;
#X connect 4 0 11 0;
#X connect 5 0 9 0;
#X connect 6 0 7 0;
#X connect 7 0 9 0;
#X connect 9 0 8 0;
#X connect 10 0 6 0;
#X connect 11 0 12 0;
#X connect 12 0 5 0;
#X connect 12 1 5 1;
#X connect 12 2 10 0;
