#N canvas 518 149 365 278 10;
#X declare -path abs;
#X declare -path audio;
#X declare -path rj;
#X declare -path audio/synths/ARP-Poly-Lead;
#X declare -path audio/synths/PopPiano;
#X declare -path audio/fx;
#X declare -path audio/drums;
#X declare -path audio/fx/falls;
#X declare -path audio/drums/loops;
#X declare -path resources/midi/bass;
#X declare -path resources/midi/chords;
#X declare -path resources/midi/drums;
#X declare -path resources/midi/voices;
#X declare -path libs/rm;
#X declare -path audio/waveforms;
#X declare -path abs/dmx;
#X declare -path audio/waveforms/huge;
#X declare -path abs/huge;
#X declare -path audio/vox;
#X declare -path abs/comp;
#X declare -path audio/drums/snares;
#X declare -path audio/drums/crashes;
#X declare -path audio/vox/pon-de-floor;
#X declare -path libs/cyclone;
#X declare -path audio/synths/Electric-Guitar-Muted;
#X declare -path audio/vox/reggae-vox;
#X declare -path audio/fx/risers;
#X declare -path abs/blockhead;
#X declare -path resources/midi/guitar;
#N canvas 211 295 858 652 io 0;
#X obj 34 445 dac~;
#X obj 34 237 *~;
#X obj 134 237 *~;
#X obj 149 213 lop~ 10;
#X obj 149 163 tgl 15 0 empty empty empty 17 7 0 10 -262144 -1 -1 0
1;
#X obj 149 140 loadbang;
#X obj 134 331 clip~ -1 1;
#X obj 34 331 clip~ -1 1;
#X obj 149 187 sig~;
#X obj 324 100 s build;
#X obj 363 122 s drop;
#X obj 403 145 s gain;
#X obj 219 228 r gain;
#X obj 443 171 s reset;
#X obj 219 250 * 0.25;
#X obj 324 16 r #EXTERN_TO_PD;
#X obj 721 394 loadbang;
#X obj 721 416 del 100;
#X obj 721 438 f 2;
#X obj 721 460 s 0-build-up-type;
#X obj 399 438 s #PD_TO_EXTERN;
#X obj 399 267 r event;
#X obj 399 289 list prepend EVENT;
#X obj 416 320 r 0-drop-state;
#X obj 416 342 list prepend DROP_STATE;
#X obj 439 374 r 0-build-up;
#X obj 439 396 list prepend BUILD;
#X floatatom 514 321 5 0 0 0 - - -, f 5;
#X obj 575 393 change;
#X obj 575 415 print DROP-STATE;
#X obj 497 107 s autoplay;
#X floatatom 232 179 5 0 0 0 - - -, f 5;
#X floatatom 239 273 5 0 0 0 - - -, f 5;
#X obj 34 283 *~ 0.08;
#X obj 134 282 *~ 0.08;
#X obj 623 127 route build drop reset;
#X msg 623 249 1;
#X obj 623 271 s crank-turning;
#X obj 607 292 print starting-crank-turning;
#X msg 666 189 1;
#X obj 666 211 s drop;
#X obj 653 232 print triggering-drop;
#X msg 709 148 1;
#X obj 709 170 s reset;
#X obj 696 191 print resetting;
#X obj 215 92 key;
#X obj 215 114 sel 167;
#X obj 139 371 loadbang;
#X msg 139 393 0.07;
#X floatatom 175 397 5 0 0 0 - - -, f 5;
#X obj 34 416 e_master 1000 1000;
#X obj 547 491 s bass-wobble-event-frequency;
#X obj 573 75 s bass-wobble-event-frequency;
#X obj 466 234 s send-note-events;
#X obj 324 38 route BUILD DROP GAIN RESET autoplay fromGrass WOBBLE-EVENT-FREQ
NOTE-EVENTS;
#X obj 34 17 catch~ track-0-LEFT-OUT;
#X obj 134 47 catch~ track-0-RIGHT-OUT;
#X connect 1 0 33 0;
#X connect 2 0 34 0;
#X connect 3 0 2 1;
#X connect 3 0 1 1;
#X connect 4 0 8 0;
#X connect 5 0 4 0;
#X connect 6 0 50 1;
#X connect 7 0 50 0;
#X connect 8 0 3 0;
#X connect 12 0 14 0;
#X connect 14 0 32 0;
#X connect 14 0 34 1;
#X connect 14 0 33 1;
#X connect 15 0 54 0;
#X connect 16 0 17 0;
#X connect 17 0 18 0;
#X connect 18 0 19 0;
#X connect 21 0 22 0;
#X connect 22 0 20 0;
#X connect 23 0 24 0;
#X connect 23 0 27 0;
#X connect 23 0 28 0;
#X connect 24 0 20 0;
#X connect 25 0 26 0;
#X connect 26 0 20 0;
#X connect 28 0 29 0;
#X connect 31 0 14 0;
#X connect 33 0 7 0;
#X connect 34 0 6 0;
#X connect 35 0 36 0;
#X connect 35 1 39 0;
#X connect 35 2 42 0;
#X connect 36 0 37 0;
#X connect 36 0 38 0;
#X connect 39 0 40 0;
#X connect 39 0 41 0;
#X connect 42 0 43 0;
#X connect 42 0 44 0;
#X connect 45 0 46 0;
#X connect 46 0 4 0;
#X connect 47 0 48 0;
#X connect 48 0 50 2;
#X connect 49 0 50 2;
#X connect 50 0 0 0;
#X connect 50 1 0 1;
#X connect 54 0 9 0;
#X connect 54 1 10 0;
#X connect 54 2 11 0;
#X connect 54 3 13 0;
#X connect 54 4 30 0;
#X connect 54 5 35 0;
#X connect 54 6 52 0;
#X connect 54 7 53 0;
#X connect 55 0 1 0;
#X connect 56 0 2 0;
#X restore 25 50 pd io;
#N canvas 570 70 419 774 init 0;
#X obj 62 56 declare -path abs;
#X obj 62 116 declare -path audio;
#X obj 62 36 declare -path rj;
#X obj 62 136 declare -path audio/synths/ARP-Poly-Lead;
#X obj 62 157 declare -path audio/synths/PopPiano;
#X obj 62 217 declare -path audio/fx;
#X obj 62 177 declare -path audio/drums;
#X obj 62 237 declare -path audio/fx/falls;
#X obj 62 277 declare -path audio/drums/loops;
#X obj 62 297 declare -path resources/midi/bass;
#X obj 62 317 declare -path resources/midi/chords;
#X obj 62 337 declare -path resources/midi/drums;
#X obj 62 357 declare -path resources/midi/voices;
#X obj 63 638 loadbang;
#X obj 63 682 v \$0-TIMEBASE-BPM;
#X msg 63 660 140;
#X msg 177 659 MINOR;
#X obj 177 681 symbol;
#X obj 177 704 s \$0-CHORDS-maj/min;
#X obj 62 397 declare -path libs/rm;
#X obj 62 437 declare -path audio/waveforms;
#X obj 62 76 declare -path abs/dmx;
#X obj 62 457 declare -path audio/waveforms/huge;
#X obj 62 96 declare -path abs/huge;
#X obj 62 197 declare -path audio/vox;
#X obj 62 477 declare -path abs/comp;
#X obj 62 497 declare -path audio/drums/snares;
#X obj 62 517 declare -path audio/drums/crashes;
#X obj 62 537 declare -path audio/vox/pon-de-floor;
#X obj 62 417 declare -path libs/cyclone;
#X obj 62 577 declare -path audio/synths/Electric-Guitar-Muted;
#X obj 62 557 declare -path audio/vox/reggae-vox;
#X obj 62 257 declare -path audio/fx/risers;
#X obj 62 597 declare -path abs/blockhead;
#X obj 62 377 declare -path resources/midi/guitar;
#X connect 13 0 15 0;
#X connect 13 0 16 0;
#X connect 15 0 14 0;
#X connect 16 0 17 0;
#X connect 17 0 18 0;
#X restore 25 29 pd init;
#N canvas 948 286 704 672 samplebanks 0;
#X obj 37 299 synth-load ARP-Poly-Lead;
#X obj 342 182 print;
#X msg 305 189 info;
#N canvas 0 22 436 481 Zenhiser-falls 0;
#X obj 39 29 u_samplebank2 Zenhiser-DL-RF01-0 Zenhiser-DL-RF01-0.wav
;
#X obj 39 54 u_samplebank2 Zenhiser-DL-RF01-1 Zenhiser-DL-RF01-1.wav
;
#X obj 39 79 u_samplebank2 Zenhiser-DL-RF01-2 Zenhiser-DL-RF01-2.wav
;
#X obj 39 104 u_samplebank2 Zenhiser-DL-RF01-3 Zenhiser-DL-RF01-3.wav
;
#X obj 39 129 u_samplebank2 Zenhiser-DL-RF01-4 Zenhiser-DL-RF01-4.wav
;
#X obj 39 154 u_samplebank2 Zenhiser-DL-RF01-5 Zenhiser-DL-RF01-5.wav
;
#X obj 39 179 u_samplebank2 Zenhiser-DL-RF01-6 Zenhiser-DL-RF01-6.wav
;
#X obj 39 204 u_samplebank2 Zenhiser-DL-RF01-7 Zenhiser-DL-RF01-7.wav
;
#X obj 39 229 u_samplebank2 Zenhiser-DL-RF01-8 Zenhiser-DL-RF01-8.wav
;
#X obj 39 254 u_samplebank2 Zenhiser-DL-RF01-9 Zenhiser-DL-RF01-9.wav
;
#X obj 39 279 u_samplebank2 Zenhiser-DL-RF01-10 Zenhiser-DL-RF01-10.wav
;
#X obj 39 304 u_samplebank2 Zenhiser-DL-RF01-11 Zenhiser-DL-RF01-11.wav
;
#X obj 39 329 u_samplebank2 Zenhiser-DL-RF01-12 Zenhiser-DL-RF01-12.wav
;
#X obj 39 354 u_samplebank2 Zenhiser-DL-RF01-13 Zenhiser-DL-RF01-13.wav
;
#X obj 39 379 u_samplebank2 Zenhiser-DL-RF01-14 Zenhiser-DL-RF01-14.wav
;
#X obj 39 404 u_samplebank2 Zenhiser-DL-RF01-15 Zenhiser-DL-RF01-15.wav
;
#X restore 38 509 pd Zenhiser-falls;
#N canvas 482 95 450 300 kicks 0;
#X obj 61 33 u_samplebank2 kick-0 kick-0.wav;
#X obj 61 58 u_samplebank2 kick-1 kick-1.wav;
#X obj 61 83 u_samplebank2 kick-2 kick-2.wav;
#X obj 61 133 u_samplebank2 kick-4 kick-4.wav;
#X obj 61 158 u_samplebank2 kick-5 kick-5.wav;
#X obj 61 183 u_samplebank2 kick-6 kick-6.wav;
#X obj 61 208 u_samplebank2 kick-7 kick-7.wav;
#X obj 61 233 u_samplebank2 kick-8 kick-8.wav;
#X obj 61 108 u_samplebank2 kick-3 kick-3.wav;
#X restore 38 549 pd kicks;
#N canvas 0 22 450 300 AKWaveForms 0;
#X obj 45 35 u_samplebank AKWF-0 AKWF-0.wav;
#X obj 45 60 u_samplebank AKWF-1 AKWF-1.wav;
#X obj 45 85 u_samplebank AKWF-2 AKWF-2.wav;
#X obj 45 110 u_samplebank AKWF-3 AKWF-3.wav;
#X obj 45 135 u_samplebank AKWF-4 AKWF-4.wav;
#X restore 38 589 pd AKWaveForms;
#N canvas 460 196 389 497 huge-wave-forms 0;
#X obj 45 135 u_samplebank gentle-speech-A gentle-speech-A.wav;
#X obj 45 35 u_samplebank strontium-A strontium-A.wav;
#X obj 45 60 u_samplebank strontium-B strontium-B.wav;
#X obj 45 85 u_samplebank bronze-A bronze-A.wav;
#X obj 45 110 u_samplebank bronze-B bronze-B.wav;
#X obj 45 160 u_samplebank gentle-speech-B gentle-speech-B.wav;
#X obj 45 185 u_samplebank d-throat-A d-throat-A.wav;
#X obj 45 210 u_samplebank d-throat-B d-throat-B.wav;
#X obj 45 235 u_samplebank digigrain-A digigrain-A.wav;
#X obj 45 260 u_samplebank digigrain-B digigrain-B.wav;
#X obj 45 285 u_samplebank m-talk-A m-talk-A.wav;
#X obj 45 310 u_samplebank m-talk-B m-talk-B.wav;
#X obj 45 335 u_samplebank melofant-A melofant-A.wav;
#X obj 45 360 u_samplebank melofant-B melofant-B.wav;
#X obj 45 385 u_samplebank melomantic-A melomantic-A.wav;
#X obj 45 410 u_samplebank melomantic-B melomantic-B.wav;
#X restore 38 609 pd huge-wave-forms;
#X obj 37 269 u_samplebank ride-1 ride-1.wav;
#X obj 37 329 u_samplebank square MachineDrumSquareC.wav;
#N canvas 0 22 485 804 snares 0;
#X obj 100 150 u_samplebank2 snare-6 snare-6.wav;
#X obj 100 175 u_samplebank2 snare-7 snare-7.wav;
#X obj 100 200 u_samplebank2 snare-8 snare-8.wav;
#X obj 100 225 u_samplebank2 snare-9 snare-9.wav;
#X obj 100 250 u_samplebank2 snare-10 snare-10.wav;
#X obj 100 275 u_samplebank2 snare-11 snare-11.wav;
#X obj 100 300 u_samplebank2 snare-12 snare-12.wav;
#X obj 100 325 u_samplebank2 snare-13 snare-13.wav;
#X obj 100 350 u_samplebank2 snare-14 snare-14.wav;
#X obj 100 375 u_samplebank2 snare-15 snare-15.wav;
#X obj 100 400 u_samplebank2 snare-16 snare-16.wav;
#X obj 100 425 u_samplebank2 snare-17 snare-17.wav;
#X obj 100 450 u_samplebank2 snare-18 snare-18.wav;
#X obj 100 475 u_samplebank2 snare-19 snare-19.wav;
#X obj 100 500 u_samplebank2 snare-20 snare-20.wav;
#X obj 100 525 u_samplebank2 snare-21 snare-21.wav;
#X obj 100 550 u_samplebank2 snare-22 snare-22.wav;
#X obj 100 575 u_samplebank2 snare-23 snare-23.wav;
#X obj 100 600 u_samplebank2 snare-24 snare-24.wav;
#X obj 100 625 u_samplebank2 snare-25 snare-25.wav;
#X obj 100 650 u_samplebank2 snare-26 snare-26.wav;
#X obj 100 675 u_samplebank2 snare-27 snare-27.wav;
#X obj 100 700 u_samplebank2 snare-28 snare-28.wav;
#X obj 100 725 u_samplebank2 snare-29 snare-29.wav;
#X obj 100 750 u_samplebank2 snare-30 snare-30.wav;
#X obj 100 775 u_samplebank2 snare-31 snare-31.wav;
#X obj 100 800 u_samplebank2 snare-32 snare-32.wav;
#X obj 100 825 u_samplebank2 snare-33 snare-33.wav;
#X obj 100 850 u_samplebank2 snare-34 snare-34.wav;
#X obj 100 875 u_samplebank2 snare-35 snare-35.wav;
#X obj 100 900 u_samplebank2 snare-36 snare-36.wav;
#X obj 100 925 u_samplebank2 snare-37 snare-37.wav;
#X obj 100 950 u_samplebank2 snare-38 snare-38.wav;
#X obj 100 975 u_samplebank2 snare-39 snare-39.wav;
#X obj 100 25 u_samplebank2 snare-1 snare-1.wav;
#X obj 100 50 u_samplebank2 snare-2 snare-2.wav;
#X obj 100 75 u_samplebank2 snare-3 snare-3.wav;
#X obj 100 100 u_samplebank2 snare-4 snare-4.wav;
#X obj 100 125 u_samplebank2 snare-5 snare-5.wav;
#X restore 38 529 pd snares;
#N canvas 0 22 450 300 crashes 0;
#X obj 66 54 u_samplebank2 crash-1 crash-1.wav;
#X obj 66 79 u_samplebank2 crash-2 crash-2.wav;
#X obj 66 104 u_samplebank2 crash-3 crash-3.wav;
#X obj 66 129 u_samplebank2 crash-4 crash-4.wav;
#X obj 66 154 u_samplebank2 crash-5 crash-5.wav;
#X obj 66 179 u_samplebank2 crash-6 crash-6.wav;
#X obj 66 204 u_samplebank2 crash-7 crash-7.wav;
#X obj 66 229 u_samplebank2 crash-8 crash-8.wav;
#X obj 66 30 u_samplebank2 crash-0 crash-9.wav;
#X restore 39 460 pd crashes;
#X obj 37 199 u_samplebank2 hat-3 hat-3.wav;
#X obj 38 363 u_samplebank2 crash-boom crash-boom.wav;
#X obj 38 383 u_samplebank2 echo-crash echo-crash.wav;
#X obj 38 403 u_samplebank2 space-rise space-rise.wav;
#X obj 308 127 u_samplebank2 rise-1 rise-1.wav;
#X obj 308 147 u_samplebank2 Zenhiser-DL-RF01-rise-1 Zenhiser-DL-RF01-rise-1.wav
;
#X obj 39 433 u_samplebank2 door-bell door-bell.wav;
#X obj 37 219 u_samplebank2 toms toms.wav;
#X obj 337 405;
#N canvas 168 322 436 481 risers 0;
#X obj 39 79 u_samplebank2 small-riser-2 small-riser-2.wav;
#X obj 39 104 u_samplebank2 small-riser-3 small-riser-3.wav;
#X obj 39 129 u_samplebank2 small-riser-4 small-riser-4.wav;
#X obj 39 54 u_samplebank2 small-riser-1 small-riser-1.wav;
#X obj 39 29 u_samplebank2 small-riser-0 small-riser-0.wav;
#X restore 205 533 pd risers;
#X connect 2 0 16 0;
#X connect 16 0 1 0;
#X restore 25 103 pd samplebanks;
#N canvas 88 400 223 155 effects 0;
#N canvas 200 100 610 189 reverb 0;
#X obj 39 106 e_platereverb;
#X obj 39 56 catch~ REVERB-L;
#X obj 76 78 catch~ REVERB-R;
#X msg 183 45 dry 0.33 \, decay_diffusion2 0.68 \, decay_diffusion1
0.74 \, input_diffusion2 0.779 \, excursion 0.53761 \, input_diffusion1
0.685 \, decay 0.98 \, damping 4637 \, bandwidth 10000 \, predelay
0 \,;
#X obj 183 22 loadbang;
#X obj 39 133 throw~ track-0-LEFT-OUT;
#X obj 76 155 throw~ track-0-RIGHT-OUT;
#X connect 0 0 5 0;
#X connect 0 1 6 0;
#X connect 1 0 0 0;
#X connect 2 0 0 1;
#X connect 3 0 0 2;
#X connect 4 0 3 0;
#X restore 69 40 pd reverb;
#X restore 25 179 pd effects;
#N canvas 115 22 451 313 drums-patterns 0;
#N canvas 0 22 450 300 (subpatch) 0;
#X array kick-pattr-1 32 float 3;
#A 0 1 0 0 0.714286 0 0 0.428571 0 0 0 0.142857 0 0 0 0.857143 0 1
0 0 0 0.142857 0.142857 0.571429 0 0 0 0.285714 0 0.142857 0 0.142857
0.142857;
#X coords 0 0 32 1 100 70 1;
#X restore 22 20 graph;
#N canvas 0 22 450 300 (subpatch) 0;
#X array kick-pattr-2 32 float 3;
#A 0 1 0 0.571429 0.285714 0.428571 0 0.285714 0 0 0 0.714286 0 0.857143
0 0 0 1 0 0.142857 0 0 0 0.714286 0 0 0.428571 0.142857 0 0.857143
0.142857 0 0.142857;
#X coords 0 0 32 1 100 70 1;
#X restore 22 108 graph;
#N canvas 0 22 450 300 (subpatch) 0;
#X array kick-pattr-3 32 float 3;
#A 0 0.857143 0 0.714286 0.142857 0.428571 0.428571 0.428571 0 0 0.714286
0 0 0.571429 0 0 1 1 0 0.142857 0 0 0 0.714286 0 0 0.428571 0.142857
0 0.857143 0.142857 0 0.142857;
#X coords 0 0 32 1 100 70 1;
#X restore 22 208 graph;
#N canvas 0 22 237 221 write-patterns 0;
#X obj 73 143 tabwrite drum-pat-1;
#X obj 39 29 r kick-pattr;
#X obj 39 52 list trim;
#X obj 39 75 unpack s f f;
#X msg 61 110 set kick-pattr-3;
#X obj 26 103 print;
#X connect 1 0 2 0;
#X connect 1 0 5 0;
#X connect 2 0 3 0;
#X connect 3 1 0 0;
#X connect 3 2 0 1;
#X connect 4 0 0 0;
#X restore 131 50 pd write-patterns;
#X text 133 15 Pattern storage;
#X restore 25 124 pd drums-patterns;
#X obj 172 12 loadbang;
#X msg 172 35 \; pd dsp 1 \;;
#X obj 25 206 track 0 \$0;
#N canvas 201 538 450 300 events 0;
#X obj 95 116 s event;
#X obj 95 50 r 0-event;
#X obj 118 83 print;
#X connect 1 0 0 0;
#X restore 25 71 pd events;
#X obj 172 71 EXTERN_DUMMY;
#X connect 5 0 6 0;
