#N canvas 831 118 561 254 10;
#X declare -path abs;
#X declare -path audio;
#X declare -path rj;
#X declare -path audio/synths/ARP-Poly-Lead;
#X declare -path audio/synths/PopPiano;
#X declare -path audio/fx;
#X declare -path audio/drums;
#X declare -path audio/fx/falls;
#X declare -path audio/drums/loops;
#X declare -path resources/midi/bass;
#X declare -path resources/midi/chords;
#X declare -path resources/midi/drums;
#X declare -path resources/midi/voices;
#X declare -path libs/rm;
#X declare -path audio/waveforms;
#X declare -path abs/dmx;
#X declare -path audio/waveforms/huge;
#X declare -path abs/huge;
#X declare -path audio/vox;
#X declare -path abs/comp;
#X declare -path audio/drums/snares;
#X declare -path audio/drums/crashes;
#X declare -path audio/vox/pon-de-floor;
#X declare -path libs/cyclone;
#X declare -path audio/synths/Electric-Guitar-Muted;
#X declare -path audio/vox/reggae-vox;
#X declare -path audio/fx/risers;
#X declare -path abs/blockhead;
#X declare -path resources/midi/guitar;
#X declare -path audio/drums/kicks;
#X declare -path audio/drums/other;
#N canvas 115 154 1351 821 io 0;
#X obj 34 655 dac~;
#X obj 34 257 *~;
#X obj 134 257 *~;
#X obj 149 233 lop~ 10;
#X obj 149 183 tgl 15 0 empty empty empty 17 7 0 10 -262144 -1 -1 1
1;
#X obj 149 160 loadbang;
#X obj 134 371 clip~ -1 1;
#X obj 34 371 clip~ -1 1;
#X obj 149 207 sig~;
#X obj 644 150 s build;
#X obj 670 172 s drop;
#X obj 697 195 s gain;
#X obj 173 293 r gain;
#X obj 724 221 s reset;
#X obj 173 315 * 0.25;
#X obj 644 46 r #EXTERN_TO_PD;
#X obj 651 749 s #PD_TO_EXTERN;
#X obj 651 540 r event;
#X obj 651 564 list prepend EVENT;
#X obj 668 595 r 0-drop-state;
#X obj 668 617 list prepend DROP_STATE;
#X obj 691 689 r 0-build-up;
#X obj 691 717 list prepend BUILD;
#X obj 678 642 change;
#X obj 678 664 print DROP-STATE;
#X obj 751 244 s autoplay;
#X obj 34 340 *~ 0.08;
#X obj 134 340 *~ 0.08;
#X obj 777 320 route build drop reset;
#X msg 777 442 1;
#X obj 777 464 s crank-turning;
#X obj 761 485 print starting-crank-turning;
#X msg 820 382 1;
#X obj 820 404 s drop;
#X obj 807 425 print triggering-drop;
#X msg 863 341 1;
#X obj 863 363 s reset;
#X obj 850 384 print resetting;
#X obj 212 124 key;
#X obj 212 146 sel 167;
#X obj 139 401 loadbang;
#X msg 139 423 0.07;
#X floatatom 175 427 5 0 0 0 - - -, f 5;
#X obj 34 461 e_master 1000 1000;
#X obj 804 147 s bass-wobble-event-frequency;
#X obj 831 171 s send-note-events;
#X obj 34 57 catch~ track-0-LEFT-OUT;
#X obj 134 87 catch~ track-0-RIGHT-OUT;
#X obj 858 195 s datetime;
#X obj 884 219 s gps;
#X msg 911 238 DUB;
#X obj 911 285 s set-ambient-genre;
#X msg 938 263 DUBSTEP;
#X obj 973 190 print PD-datetime-received;
#X obj 644 108 route BUILD DROP GAIN RESET autoplay fromGrass WOBBLE-EVENT-FREQ
NOTE-EVENTS DATETIME GPS DUB DUBSTEP;
#X obj 991 147 s delay-comp;
#X obj 154 494 r delay-comp;
#X obj 34 558 delwrite~ \$0-ds-del-l 200;
#X obj 139 598 delwrite~ \$0-ds-del-r 200;
#X obj 991 125 route DELAY-COMP;
#X obj 34 578 delread~ \$0-ds-del-l 150;
#X obj 154 516 print delay-comp;
#X obj 139 618 delread~ \$0-ds-del-r 150;
#X text 155 457 Chris McCorkmick's awesome mastering abstraction https://github.com/chr15m/blockhead
;
#X text 192 563 Compensation on master output to better sync with the
LED lighting;
#X text 741 46 Messages in from the Arduino via the iOS App;
#X text 754 750 Messages to the Arduino via the iOS App;
#X text 754 770 https://github.com/dropship/5-by-5/blob/master/dropship/AppDelegate.m#L154
;
#X text 741 65 https://github.com/dropship/5-by-5/blob/master/dropship/ViewController.m#L41
;
#X text 702 533 Kick hits \, snare hits \, bass wobbles etc. \, for
controlling the LED lighting;
#X text 759 595 Current drop state to activate drop button etc.;
#X text 771 684 Amount of build for controlling LED lighting around
the cranks;
#X text 102 9 AUDIO;
#X text 860 7 MESSAGING;
#X text 643 25 INPUT;
#X text 650 517 OUTPUT;
#X text 32 36 OUTPUT;
#X obj 1095 565 s event;
#X obj 1095 543 r 0-event;
#X connect 1 0 26 0;
#X connect 2 0 27 0;
#X connect 3 0 2 1;
#X connect 3 0 1 1;
#X connect 4 0 8 0;
#X connect 5 0 4 0;
#X connect 6 0 43 1;
#X connect 7 0 43 0;
#X connect 8 0 3 0;
#X connect 12 0 14 0;
#X connect 14 0 27 1;
#X connect 14 0 26 1;
#X connect 15 0 54 0;
#X connect 17 0 18 0;
#X connect 18 0 16 0;
#X connect 19 0 20 0;
#X connect 19 0 23 0;
#X connect 20 0 16 0;
#X connect 21 0 22 0;
#X connect 22 0 16 0;
#X connect 23 0 24 0;
#X connect 26 0 7 0;
#X connect 27 0 6 0;
#X connect 28 0 29 0;
#X connect 28 1 32 0;
#X connect 28 2 35 0;
#X connect 29 0 30 0;
#X connect 29 0 31 0;
#X connect 32 0 33 0;
#X connect 32 0 34 0;
#X connect 35 0 36 0;
#X connect 35 0 37 0;
#X connect 38 0 39 0;
#X connect 39 0 4 0;
#X connect 40 0 41 0;
#X connect 41 0 43 2;
#X connect 42 0 43 2;
#X connect 43 0 57 0;
#X connect 43 1 58 0;
#X connect 46 0 1 0;
#X connect 47 0 2 0;
#X connect 50 0 51 0;
#X connect 52 0 51 0;
#X connect 54 0 9 0;
#X connect 54 1 10 0;
#X connect 54 2 11 0;
#X connect 54 3 13 0;
#X connect 54 4 25 0;
#X connect 54 5 28 0;
#X connect 54 6 44 0;
#X connect 54 7 45 0;
#X connect 54 8 48 0;
#X connect 54 8 53 0;
#X connect 54 9 49 0;
#X connect 54 10 50 0;
#X connect 54 11 52 0;
#X connect 54 12 59 0;
#X connect 56 0 60 0;
#X connect 56 0 61 0;
#X connect 56 0 62 0;
#X connect 59 0 55 0;
#X connect 60 0 0 0;
#X connect 62 0 0 1;
#X connect 78 0 77 0;
#X restore 25 50 pd io;
#N canvas 570 70 523 841 init 0;
#X obj 62 56 declare -path abs;
#X obj 62 76 declare -path audio;
#X obj 62 36 declare -path rj;
#X obj 62 136 declare -path audio/synths/ARP-Poly-Lead;
#X obj 62 157 declare -path audio/synths/PopPiano;
#X obj 62 217 declare -path audio/fx;
#X obj 62 177 declare -path audio/drums;
#X obj 62 237 declare -path audio/fx/falls;
#X obj 62 277 declare -path audio/drums/loops;
#X obj 62 377 declare -path resources/midi/bass;
#X obj 62 397 declare -path resources/midi/chords;
#X obj 62 417 declare -path resources/midi/drums;
#X obj 62 437 declare -path resources/midi/voices;
#X obj 63 678 loadbang;
#X obj 63 722 v \$0-TIMEBASE-BPM;
#X msg 63 700 140;
#X msg 177 699 MINOR;
#X obj 177 721 symbol;
#X obj 177 744 s \$0-CHORDS-maj/min;
#X obj 62 477 declare -path libs/rm;
#X obj 62 517 declare -path audio/waveforms;
#X obj 62 96 declare -path abs/dmx;
#X obj 62 537 declare -path audio/waveforms/huge;
#X obj 62 116 declare -path abs/huge;
#X obj 62 197 declare -path audio/vox;
#X obj 62 557 declare -path abs/comp;
#X obj 62 337 declare -path audio/drums/snares;
#X obj 62 357 declare -path audio/drums/crashes;
#X obj 62 577 declare -path audio/vox/pon-de-floor;
#X obj 62 497 declare -path libs/cyclone;
#X obj 62 617 declare -path audio/synths/Electric-Guitar-Muted;
#X obj 62 597 declare -path audio/vox/reggae-vox;
#X obj 62 257 declare -path audio/fx/risers;
#X obj 62 637 declare -path abs/blockhead;
#X obj 62 457 declare -path resources/midi/guitar;
#X obj 301 700 del 100;
#X obj 301 722 f 2;
#X obj 301 744 s 0-build-up-type;
#X obj 283 36 loadbang;
#X msg 283 59 \; pd dsp 1 \;;
#X obj 62 297 declare -path audio/drums/kicks;
#X obj 62 317 declare -path audio/drums/other;
#X connect 13 0 15 0;
#X connect 13 0 16 0;
#X connect 13 0 35 0;
#X connect 15 0 14 0;
#X connect 16 0 17 0;
#X connect 17 0 18 0;
#X connect 35 0 36 0;
#X connect 36 0 37 0;
#X connect 38 0 39 0;
#X restore 25 29 pd init;
#N canvas 476 97 426 301 samplebanks 0;
#X obj 37 89 synth-load ARP-Poly-Lead;
#N canvas 482 95 450 300 kicks 0;
#X obj 61 33 u_samplebank2 kick-0 kick-0.wav;
#X obj 61 58 u_samplebank2 kick-1 kick-1.wav;
#X obj 61 83 u_samplebank2 kick-2 kick-2.wav;
#X obj 61 133 u_samplebank2 kick-4 kick-4.wav;
#X obj 61 158 u_samplebank2 kick-5 kick-5.wav;
#X obj 61 183 u_samplebank2 kick-6 kick-6.wav;
#X obj 61 208 u_samplebank2 kick-7 kick-7.wav;
#X obj 61 233 u_samplebank2 kick-8 kick-8.wav;
#X obj 61 108 u_samplebank2 kick-3 kick-3.wav;
#X restore 38 114 pd kicks;
#N canvas 460 196 444 503 huge-wave-forms 0;
#X obj 45 195 u_samplebank gentle-speech-A gentle-speech-A.wav;
#X obj 45 95 u_samplebank strontium-A strontium-A.wav;
#X obj 45 120 u_samplebank strontium-B strontium-B.wav;
#X obj 45 145 u_samplebank bronze-A bronze-A.wav;
#X obj 45 170 u_samplebank bronze-B bronze-B.wav;
#X obj 45 220 u_samplebank gentle-speech-B gentle-speech-B.wav;
#X obj 45 245 u_samplebank d-throat-A d-throat-A.wav;
#X obj 45 270 u_samplebank d-throat-B d-throat-B.wav;
#X obj 45 295 u_samplebank digigrain-A digigrain-A.wav;
#X obj 45 320 u_samplebank digigrain-B digigrain-B.wav;
#X obj 45 345 u_samplebank m-talk-A m-talk-A.wav;
#X obj 45 370 u_samplebank m-talk-B m-talk-B.wav;
#X obj 45 395 u_samplebank melofant-A melofant-A.wav;
#X obj 45 420 u_samplebank melofant-B melofant-B.wav;
#X obj 45 445 u_samplebank melomantic-A melomantic-A.wav;
#X obj 45 470 u_samplebank melomantic-B melomantic-B.wav;
#X text 44 11 Wavetables as used in NI Massive. Hackily ripped using
Audacity.;
#X text 44 41 More info at: http://dropship.github.io/update/2014/05/12/diving-into-the-spiders-web.html
;
#X restore 38 259 pd huge-wave-forms;
#N canvas 0 22 485 804 snares 0;
#X obj 100 150 u_samplebank2 snare-6 snare-6.wav;
#X obj 100 175 u_samplebank2 snare-7 snare-7.wav;
#X obj 100 200 u_samplebank2 snare-8 snare-8.wav;
#X obj 100 225 u_samplebank2 snare-9 snare-9.wav;
#X obj 100 250 u_samplebank2 snare-10 snare-10.wav;
#X obj 100 275 u_samplebank2 snare-11 snare-11.wav;
#X obj 100 300 u_samplebank2 snare-12 snare-12.wav;
#X obj 100 325 u_samplebank2 snare-13 snare-13.wav;
#X obj 100 350 u_samplebank2 snare-14 snare-14.wav;
#X obj 100 375 u_samplebank2 snare-15 snare-15.wav;
#X obj 100 400 u_samplebank2 snare-16 snare-16.wav;
#X obj 100 425 u_samplebank2 snare-17 snare-17.wav;
#X obj 100 450 u_samplebank2 snare-18 snare-18.wav;
#X obj 100 475 u_samplebank2 snare-19 snare-19.wav;
#X obj 100 500 u_samplebank2 snare-20 snare-20.wav;
#X obj 100 525 u_samplebank2 snare-21 snare-21.wav;
#X obj 100 550 u_samplebank2 snare-22 snare-22.wav;
#X obj 100 575 u_samplebank2 snare-23 snare-23.wav;
#X obj 100 600 u_samplebank2 snare-24 snare-24.wav;
#X obj 100 625 u_samplebank2 snare-25 snare-25.wav;
#X obj 100 650 u_samplebank2 snare-26 snare-26.wav;
#X obj 100 675 u_samplebank2 snare-27 snare-27.wav;
#X obj 100 700 u_samplebank2 snare-28 snare-28.wav;
#X obj 100 725 u_samplebank2 snare-29 snare-29.wav;
#X obj 100 750 u_samplebank2 snare-30 snare-30.wav;
#X obj 100 775 u_samplebank2 snare-31 snare-31.wav;
#X obj 100 800 u_samplebank2 snare-32 snare-32.wav;
#X obj 100 825 u_samplebank2 snare-33 snare-33.wav;
#X obj 100 850 u_samplebank2 snare-34 snare-34.wav;
#X obj 100 875 u_samplebank2 snare-35 snare-35.wav;
#X obj 100 900 u_samplebank2 snare-36 snare-36.wav;
#X obj 100 925 u_samplebank2 snare-37 snare-37.wav;
#X obj 100 950 u_samplebank2 snare-38 snare-38.wav;
#X obj 100 975 u_samplebank2 snare-39 snare-39.wav;
#X obj 100 25 u_samplebank2 snare-1 snare-1.wav;
#X obj 100 50 u_samplebank2 snare-2 snare-2.wav;
#X obj 100 75 u_samplebank2 snare-3 snare-3.wav;
#X obj 100 100 u_samplebank2 snare-4 snare-4.wav;
#X obj 100 125 u_samplebank2 snare-5 snare-5.wav;
#X restore 38 134 pd snares;
#N canvas 0 22 450 300 crashes 0;
#X obj 66 54 u_samplebank2 crash-1 crash-1.wav;
#X obj 66 79 u_samplebank2 crash-2 crash-2.wav;
#X obj 66 104 u_samplebank2 crash-3 crash-3.wav;
#X obj 66 129 u_samplebank2 crash-4 crash-4.wav;
#X obj 66 154 u_samplebank2 crash-5 crash-5.wav;
#X obj 66 179 u_samplebank2 crash-6 crash-6.wav;
#X obj 66 204 u_samplebank2 crash-7 crash-7.wav;
#X obj 66 229 u_samplebank2 crash-8 crash-8.wav;
#X obj 66 30 u_samplebank2 crash-0 crash-9.wav;
#X restore 38 154 pd crashes;
#N canvas 168 322 373 227 risers 0;
#X obj 39 79 u_samplebank2 small-riser-2 small-riser-2.wav;
#X obj 39 104 u_samplebank2 small-riser-3 small-riser-3.wav;
#X obj 39 129 u_samplebank2 small-riser-4 small-riser-4.wav;
#X obj 39 54 u_samplebank2 small-riser-1 small-riser-1.wav;
#X obj 39 29 u_samplebank2 small-riser-0 small-riser-0.wav;
#X obj 39 154 u_samplebank2 DL-RF01-rise-1 DL-RF01-rise-1.wav
;
#X obj 39 193 u_samplebank2 space-rise space-rise.wav;
#X restore 38 219 pd risers;
#X text 36 13 Wherever possible \, samples were read directly from
disk using [readsf~] rather than loading them into RAM.;
#X text 36 43 If a sample needed to be more manipulable \, it's loaded
into tables using [u_samplebank] \, here;
#N canvas 0 22 436 481 falls 0;
#X obj 39 54 u_samplebank2 DL-RF01-1 DL-RF01-1.wav
;
#X obj 39 79 u_samplebank2 DL-RF01-2 DL-RF01-2.wav
;
#X obj 39 104 u_samplebank2 DL-RF01-3 DL-RF01-3.wav
;
#X obj 39 129 u_samplebank2 DL-RF01-4 DL-RF01-4.wav
;
#X obj 39 154 u_samplebank2 DL-RF01-5 DL-RF01-5.wav
;
#X obj 39 179 u_samplebank2 DL-RF01-6 DL-RF01-6.wav
;
#X obj 39 204 u_samplebank2 DL-RF01-7 DL-RF01-7.wav
;
#X obj 39 229 u_samplebank2 DL-RF01-8 DL-RF01-8.wav
;
#X obj 39 254 u_samplebank2 DL-RF01-9 DL-RF01-9.wav
;
#X obj 39 279 u_samplebank2 DL-RF01-10 DL-RF01-10.wav
;
#X obj 39 304 u_samplebank2 DL-RF01-11 DL-RF01-11.wav
;
#X obj 39 329 u_samplebank2 DL-RF01-12 DL-RF01-12.wav
;
#X obj 39 354 u_samplebank2 DL-RF01-13 DL-RF01-13.wav
;
#X obj 39 379 u_samplebank2 DL-RF01-14 DL-RF01-14.wav
;
#X obj 39 404 u_samplebank2 DL-RF01-15 DL-RF01-15.wav
;
#X obj 39 435 u_samplebank2 crash-boom crash-boom.wav;
#X obj 39 455 u_samplebank2 echo-crash echo-crash.wav;
#X obj 39 29 u_samplebank2 DL-RF01-0 DL-RF01-0.wav;
#X restore 38 199 pd falls;
#N canvas 0 22 299 150 other-drums 0;
#X obj 37 73 u_samplebank ride-1 ride-1.wav;
#X obj 37 33 u_samplebank2 hat-3 hat-3.wav;
#X obj 37 53 u_samplebank2 toms toms.wav;
#X obj 37 97 u_samplebank2 door-bell door-bell.wav;
#X restore 38 174 pd other-drums;
#N canvas 0 22 362 233 waveforms 0;
#X obj 45 35 u_samplebank AKWF-0 AKWF-0.wav;
#X obj 45 60 u_samplebank AKWF-1 AKWF-1.wav;
#X obj 45 85 u_samplebank AKWF-2 AKWF-2.wav;
#X obj 45 110 u_samplebank AKWF-3 AKWF-3.wav;
#X obj 45 135 u_samplebank AKWF-4 AKWF-4.wav;
#X obj 45 161 u_samplebank square MachineDrumSquareC.wav;
#X text 44 9 http://www.adventurekid.se/akrt/waveforms/;
#X restore 38 239 pd waveforms;
#X restore 25 71 pd samplebanks;
#X obj 25 126 track 0 \$0;
#X obj 402 61 EXTERN_DUMMY;
#X text 77 30 Paths and defaults;
#X text 65 51 Audio and messaging inputs/outputs;
#X text 96 127 The actual music making stuff;
#X text 21 150 All of the music is done within an abstraction because
\, originally \, the plan was to create two entirely separate instances
of absolutely everything \, and then crossfade between them. This wasn't
possible for performance reasons \, and it turns out it would actually
have been a bad idea anyway for musical reasons...;
#X text 401 40 Dummy controls;
