#N canvas 373 402 313 253 10;
#X declare -path abs;
#X declare -path audio;
#X declare -path rj;
#X declare -path audio/synths/ARP-Poly-Lead;
#X declare -path audio/synths/PopPiano;
#X declare -path audio/fx;
#X declare -path audio/drums;
#X declare -path audio/fx/falls;
#X declare -path audio/drums/loops;
#X declare -path resources/midi/bass;
#X declare -path resources/midi/chords;
#X declare -path resources/midi/drums;
#X declare -path resources/midi/voices;
#X declare -path libs/rm;
#X declare -path audio/waveforms;
#X declare -path audio/fx/rises;
#X declare -path abs/dmx;
#X declare -path audio/waveforms/huge;
#X declare -path abs/huge;
#X declare -path audio/vox;
#X declare -path abs/comp;
#N canvas 247 58 677 415 io 0;
#X obj 34 47 catch~ LEFT;
#X obj 134 47 catch~ RIGHT;
#X obj 34 292 dac~;
#X obj 34 167 *~;
#X obj 134 167 *~;
#X obj 149 143 lop~ 10;
#X obj 149 93 tgl 15 0 empty empty empty 17 7 0 10 -262144 -1 -1 1
1;
#X obj 149 70 loadbang;
#X obj 134 251 clip~ -1 1;
#X obj 34 251 clip~ -1 1;
#X obj 149 117 sig~;
#X obj 134 212 *~ 0.25;
#X obj 34 212 *~ 0.25;
#X obj 351 74 s build;
#X obj 390 96 s drop;
#X obj 430 119 s gain;
#X obj 219 158 r gain;
#X obj 470 145 s reset;
#X obj 219 180 * 0.25;
#X obj 351 30 r #EXTERN_TO_PD;
#X obj 547 25 loadbang;
#X obj 547 47 del 100;
#X obj 547 69 f 2;
#X obj 547 91 s 0-build-up-type;
#X obj 349 344 s #PD_TO_EXTERN;
#X obj 349 173 r event;
#X obj 351 52 route BUILD DROP GAIN RESET;
#X obj 349 195 list prepend EVENT;
#X obj 366 226 r 0-drop-state;
#X obj 366 248 list prepend DROP_STATE;
#X obj 389 280 r 0-build-up;
#X obj 389 302 list prepend BUILD;
#X connect 0 0 3 0;
#X connect 1 0 4 0;
#X connect 3 0 12 0;
#X connect 4 0 11 0;
#X connect 5 0 4 1;
#X connect 5 0 3 1;
#X connect 6 0 10 0;
#X connect 7 0 6 0;
#X connect 8 0 2 1;
#X connect 9 0 2 0;
#X connect 10 0 5 0;
#X connect 11 0 8 0;
#X connect 12 0 9 0;
#X connect 16 0 18 0;
#X connect 18 0 11 1;
#X connect 18 0 12 1;
#X connect 19 0 26 0;
#X connect 20 0 21 0;
#X connect 21 0 22 0;
#X connect 22 0 23 0;
#X connect 25 0 27 0;
#X connect 26 0 13 0;
#X connect 26 1 14 0;
#X connect 26 2 15 0;
#X connect 26 3 17 0;
#X connect 27 0 24 0;
#X connect 28 0 29 0;
#X connect 29 0 24 0;
#X connect 30 0 31 0;
#X connect 31 0 24 0;
#X restore 25 50 pd io;
#N canvas 0 22 383 623 init 0;
#X obj 62 56 declare -path abs;
#X obj 62 116 declare -path audio;
#X obj 62 36 declare -path rj;
#X obj 62 136 declare -path audio/synths/ARP-Poly-Lead;
#X obj 62 157 declare -path audio/synths/PopPiano;
#X obj 62 217 declare -path audio/fx;
#X obj 62 177 declare -path audio/drums;
#X obj 62 237 declare -path audio/fx/falls;
#X obj 62 277 declare -path audio/drums/loops;
#X obj 62 297 declare -path resources/midi/bass;
#X obj 62 317 declare -path resources/midi/chords;
#X obj 62 337 declare -path resources/midi/drums;
#X obj 62 357 declare -path resources/midi/voices;
#X obj 66 501 loadbang;
#X obj 66 545 v \$0-TIMEBASE-BPM;
#X msg 66 523 140;
#X msg 180 522 MINOR;
#X obj 180 544 symbol;
#X obj 180 567 s \$0-CHORDS-maj/min;
#X obj 62 377 declare -path libs/rm;
#X obj 62 397 declare -path audio/waveforms;
#X obj 62 257 declare -path audio/fx/rises;
#X obj 62 76 declare -path abs/dmx;
#X obj 62 417 declare -path audio/waveforms/huge;
#X obj 62 96 declare -path abs/huge;
#X obj 62 197 declare -path audio/vox;
#X obj 62 437 declare -path abs/comp;
#X connect 13 0 15 0;
#X connect 13 0 16 0;
#X connect 15 0 14 0;
#X connect 16 0 17 0;
#X connect 17 0 18 0;
#X restore 25 29 pd init;
#N canvas 503 55 704 672 samplebanks 0;
#X obj 37 179 u_samplebank2 crash-2 crash-2.wav;
#X obj 37 199 u_samplebank2 hat-3 hat-3.wav;
#X obj 37 39 u_samplebank2 snare-0 snare-0.wav;
#X obj 37 59 u_samplebank2 snare-1 snare-1.wav;
#X obj 37 79 u_samplebank2 snare-2 snare-2.wav;
#X obj 37 99 u_samplebank2 snare-3 snare-3.wav;
#X obj 37 119 u_samplebank2 snare-4 snare-4.wav;
#X obj 37 299 synth-load ARP-Poly-Lead;
#X obj 37 139 u_samplebank2 snare-5 snare-5.wav;
#X obj 38 363 u_samplebank2 crash-boom crash-boom.wav;
#X obj 38 383 u_samplebank2 echo-crash echo-crash.wav;
#X obj 38 403 u_samplebank2 space-rise space-rise.wav;
#X obj 308 127 u_samplebank2 rise-1 rise-1.wav;
#X obj 308 147 u_samplebank2 Zenhiser-DL-RF01-rise-1 Zenhiser-DL-RF01-rise-1.wav
;
#X obj 342 182 print;
#X msg 305 189 info;
#N canvas 0 22 436 481 Zenhiser-falls 0;
#X obj 39 29 u_samplebank2 Zenhiser-DL-RF01-0 Zenhiser-DL-RF01-0.wav
;
#X obj 39 54 u_samplebank2 Zenhiser-DL-RF01-1 Zenhiser-DL-RF01-1.wav
;
#X obj 39 79 u_samplebank2 Zenhiser-DL-RF01-2 Zenhiser-DL-RF01-2.wav
;
#X obj 39 104 u_samplebank2 Zenhiser-DL-RF01-3 Zenhiser-DL-RF01-3.wav
;
#X obj 39 129 u_samplebank2 Zenhiser-DL-RF01-4 Zenhiser-DL-RF01-4.wav
;
#X obj 39 154 u_samplebank2 Zenhiser-DL-RF01-5 Zenhiser-DL-RF01-5.wav
;
#X obj 39 179 u_samplebank2 Zenhiser-DL-RF01-6 Zenhiser-DL-RF01-6.wav
;
#X obj 39 204 u_samplebank2 Zenhiser-DL-RF01-7 Zenhiser-DL-RF01-7.wav
;
#X obj 39 229 u_samplebank2 Zenhiser-DL-RF01-8 Zenhiser-DL-RF01-8.wav
;
#X obj 39 254 u_samplebank2 Zenhiser-DL-RF01-9 Zenhiser-DL-RF01-9.wav
;
#X obj 39 279 u_samplebank2 Zenhiser-DL-RF01-10 Zenhiser-DL-RF01-10.wav
;
#X obj 39 304 u_samplebank2 Zenhiser-DL-RF01-11 Zenhiser-DL-RF01-11.wav
;
#X obj 39 329 u_samplebank2 Zenhiser-DL-RF01-12 Zenhiser-DL-RF01-12.wav
;
#X obj 39 354 u_samplebank2 Zenhiser-DL-RF01-13 Zenhiser-DL-RF01-13.wav
;
#X obj 39 379 u_samplebank2 Zenhiser-DL-RF01-14 Zenhiser-DL-RF01-14.wav
;
#X obj 39 404 u_samplebank2 Zenhiser-DL-RF01-15 Zenhiser-DL-RF01-15.wav
;
#X restore 38 509 pd Zenhiser-falls;
#N canvas 482 95 450 300 kicks 0;
#X obj 61 33 u_samplebank2 kick-0 kick-0.wav;
#X obj 61 58 u_samplebank2 kick-1 kick-1.wav;
#X obj 61 83 u_samplebank2 kick-2 kick-2.wav;
#X obj 61 133 u_samplebank2 kick-4 kick-4.wav;
#X obj 61 158 u_samplebank2 kick-5 kick-5.wav;
#X obj 61 183 u_samplebank2 kick-6 kick-6.wav;
#X obj 61 208 u_samplebank2 kick-7 kick-7.wav;
#X obj 61 233 u_samplebank2 kick-8 kick-8.wav;
#X obj 61 108 u_samplebank2 kick-3 kick-3.wav;
#X restore 38 529 pd kicks;
#N canvas 70 246 483 641 drum-loops 0;
#X obj 48 31 u_samplebank2 drum-loop-140-4-0 drum-loop-140-4-0.wav
;
#X obj 48 56 u_samplebank2 drum-loop-140-4-1 drum-loop-140-4-1.wav
;
#X obj 48 81 u_samplebank2 drum-loop-140-4-2 drum-loop-140-4-2.wav
;
#X obj 48 106 u_samplebank2 drum-loop-140-4-3 drum-loop-140-4-3.wav
;
#X obj 48 131 u_samplebank2 drum-loop-140-4-4 drum-loop-140-4-4.wav
;
#X obj 48 156 u_samplebank2 drum-loop-140-4-5 drum-loop-140-4-5.wav
;
#X obj 48 181 u_samplebank2 drum-loop-140-4-6 drum-loop-140-4-6.wav
;
#X obj 48 206 u_samplebank2 drum-loop-140-4-7 drum-loop-140-4-7.wav
;
#X obj 48 231 u_samplebank2 drum-loop-140-4-8 drum-loop-140-4-8.wav
;
#X obj 48 256 u_samplebank2 drum-loop-140-4-9 drum-loop-140-4-9.wav
;
#X obj 48 281 u_samplebank2 drum-loop-140-4-10 drum-loop-140-4-10.wav
;
#X obj 48 306 u_samplebank2 drum-loop-140-4-11 drum-loop-140-4-11.wav
;
#X obj 48 331 u_samplebank2 drum-loop-140-4-12 drum-loop-140-4-12.wav
;
#X obj 48 356 u_samplebank2 drum-loop-140-4-13 drum-loop-140-4-13.wav
;
#X obj 48 381 u_samplebank2 drum-loop-140-4-14 drum-loop-140-4-14.wav
;
#X obj 48 406 u_samplebank2 drum-loop-140-4-15 drum-loop-140-4-15.wav
;
#X obj 48 431 u_samplebank2 drum-loop-140-4-16 drum-loop-140-4-16.wav
;
#X obj 48 456 u_samplebank2 drum-loop-140-4-17 drum-loop-140-4-17.wav
;
#X obj 48 481 u_samplebank2 drum-loop-140-4-18 drum-loop-140-4-18.wav
;
#X obj 48 506 u_samplebank2 drum-loop-140-4-19 drum-loop-140-4-19.wav
;
#X obj 48 531 u_samplebank2 drum-loop-140-4-20 drum-loop-140-4-20.wav
;
#X obj 48 556 u_samplebank2 drum-loop-140-4-21 drum-loop-140-4-21.wav
;
#X obj 48 581 u_samplebank2 drum-loop-140-4-22 drum-loop-140-4-22.wav
;
#X restore 38 549 pd drum-loops;
#N canvas 0 22 450 300 AKWaveForms 0;
#X obj 45 35 u_samplebank AKWF-0 AKWF-0.wav;
#X obj 45 60 u_samplebank AKWF-1 AKWF-1.wav;
#X obj 45 85 u_samplebank AKWF-2 AKWF-2.wav;
#X obj 45 110 u_samplebank AKWF-3 AKWF-3.wav;
#X obj 45 135 u_samplebank AKWF-4 AKWF-4.wav;
#X restore 38 569 pd AKWaveForms;
#N canvas 460 196 389 497 huge-wave-forms 0;
#X obj 45 135 u_samplebank gentle-speech-A gentle-speech-A.wav;
#X obj 45 35 u_samplebank strontium-A strontium-A.wav;
#X obj 45 60 u_samplebank strontium-B strontium-B.wav;
#X obj 45 85 u_samplebank bronze-A bronze-A.wav;
#X obj 45 110 u_samplebank bronze-B bronze-B.wav;
#X obj 45 160 u_samplebank gentle-speech-B gentle-speech-B.wav;
#X obj 45 185 u_samplebank d-throat-A d-throat-A.wav;
#X obj 45 210 u_samplebank d-throat-B d-throat-B.wav;
#X obj 45 235 u_samplebank digigrain-A digigrain-A.wav;
#X obj 45 260 u_samplebank digigrain-B digigrain-B.wav;
#X obj 45 285 u_samplebank m-talk-A m-talk-A.wav;
#X obj 45 310 u_samplebank m-talk-B m-talk-B.wav;
#X obj 45 335 u_samplebank melofant-A melofant-A.wav;
#X obj 45 360 u_samplebank melofant-B melofant-B.wav;
#X obj 45 385 u_samplebank melomantic-A melomantic-A.wav;
#X obj 45 410 u_samplebank melomantic-B melomantic-B.wav;
#X restore 38 589 pd huge-wave-forms;
#X obj 37 269 u_samplebank ride-1 ride-1.wav;
#X obj 37 329 u_samplebank square MachineDrumSquareC.wav;
#N canvas 0 22 450 300 vox 0;
#X obj 50 44 u_samplebank2 lets-drop lets-drop.wav;
#X obj 50 64 u_samplebank2 excuse excuse.wav;
#X restore 38 488 pd vox;
#X obj 38 433 u_samplebank2 door-bell door-bell.wav;
#X obj 37 219 u_samplebank2 toms toms.wav;
#X connect 13 0 14 0;
#X connect 15 0 13 0;
#X restore 25 103 pd samplebanks;
#N canvas 525 402 794 435 mix 0;
#X obj 26 210 loadbang;
#X obj 118 193 hsl 128 15 0 1 0 0 empty empty empty -2 -8 0 10 -262144
-1 -1 0 1;
#X obj 115 216 swap 1;
#X obj 115 238 -;
#X obj 115 104 r start-transition;
#X obj 115 127 tgl 15 0 empty empty empty 17 7 0 10 -262144 -1 -1 0
1;
#X msg 115 148 \$1 6000;
#X obj 115 171 line;
#X obj 202 240 sel 0 1;
#X msg 202 269 \; generate-track-1 bang \;;
#X msg 221 316 \; generate-track-0 bang \;;
#X floatatom 247 48 5 0 0 0 - - -, f 5;
#X obj 247 68 s REVERB-send-0;
#X obj 298 20 loadbang;
#X msg 298 41 0;
#X obj 307 134 r tick;
#X obj 307 180 sel 0;
#X obj 307 157 mod 256;
#X obj 70 297 channel-strip 1;
#X msg 26 233 1;
#X obj 80 317 channel-strip 0;
#X connect 0 0 19 0;
#X connect 1 0 2 0;
#X connect 1 0 18 0;
#X connect 2 0 3 0;
#X connect 2 1 3 1;
#X connect 5 0 6 0;
#X connect 6 0 7 0;
#X connect 7 0 1 0;
#X connect 8 0 9 0;
#X connect 8 1 10 0;
#X connect 11 0 12 0;
#X connect 13 0 14 0;
#X connect 14 0 12 0;
#X connect 15 0 17 0;
#X connect 16 0 9 0;
#X connect 16 0 10 0;
#X connect 17 0 16 0;
#X connect 19 0 20 0;
#X restore 25 158 pd mix;
#N canvas 88 400 223 155 effects 0;
#N canvas 200 100 610 189 reverb 0;
#X obj 39 106 e_platereverb;
#X obj 39 133 throw~ LEFT;
#X obj 39 56 catch~ REVERB-L;
#X obj 76 78 catch~ REVERB-R;
#X obj 76 155 throw~ RIGHT;
#X msg 183 45 dry 0.33 \, decay_diffusion2 0.68 \, decay_diffusion1
0.74 \, input_diffusion2 0.779 \, excursion 0.53761 \, input_diffusion1
0.685 \, decay 0.98 \, damping 4637 \, bandwidth 10000 \, predelay
0 \,;
#X obj 183 22 loadbang;
#X connect 0 0 1 0;
#X connect 0 1 4 0;
#X connect 2 0 0 0;
#X connect 3 0 0 1;
#X connect 5 0 0 2;
#X connect 6 0 5 0;
#X restore 69 40 pd reverb;
#X restore 25 179 pd effects;
#N canvas 115 22 451 313 drums-patterns 0;
#N canvas 0 22 450 300 (subpatch) 0;
#X array kick-pattr-1 32 float 3;
#A 0 1 0 0 0.714286 0 0 0.428571 0 0 0 0.142857 0 0 0 0.857143 0 1
0 0 0 0.142857 0.142857 0.571429 0 0 0 0.285714 0 0.142857 0 0.142857
0.142857;
#X coords 0 0 32 1 100 70 1;
#X restore 22 20 graph;
#N canvas 0 22 450 300 (subpatch) 0;
#X array kick-pattr-2 32 float 3;
#A 0 1 0 0.571429 0.285714 0.428571 0 0.285714 0 0 0 0.714286 0 0.857143
0 0 0 1 0 0.142857 0 0 0 0.714286 0 0 0.428571 0.142857 0 0.857143
0.142857 0 0.142857;
#X coords 0 0 32 1 100 70 1;
#X restore 22 108 graph;
#N canvas 0 22 450 300 (subpatch) 0;
#X array kick-pattr-3 32 float 3;
#A 0 0.857143 0 0.714286 0.142857 0.428571 0.428571 0.428571 0 0 0.714286
0 0 0.571429 0 0 1 1 0 0.142857 0 0 0 0.714286 0 0 0.428571 0.142857
0 0.857143 0.142857 0 0.142857;
#X coords 0 0 32 1 100 70 1;
#X restore 22 208 graph;
#N canvas 0 22 237 221 write-patterns 0;
#X obj 73 143 tabwrite drum-pat-1;
#X obj 39 29 r kick-pattr;
#X obj 39 52 list trim;
#X obj 39 75 unpack s f f;
#X msg 61 110 set kick-pattr-3;
#X obj 26 103 print;
#X connect 1 0 2 0;
#X connect 1 0 5 0;
#X connect 2 0 3 0;
#X connect 3 1 0 0;
#X connect 3 2 0 1;
#X connect 4 0 0 0;
#X restore 131 50 pd write-patterns;
#X text 133 15 Pattern storage;
#X restore 25 124 pd drums-patterns;
#X obj 206 32 loadbang;
#X msg 206 55 \; pd dsp 1 \;;
#X obj 25 206 track 0 \$0;
#N canvas 201 538 450 300 events 0;
#X obj 95 116 s event;
#X obj 95 50 r 0-event;
#X obj 118 83 print;
#X connect 1 0 0 0;
#X restore 25 71 pd events;
#X connect 6 0 7 0;
