#N canvas 472 31 1201 793 10;
#X obj 38 40 inlet;
#X obj 38 197 pow -12;
#X obj 77 174 / 12;
#X msg 38 174 2;
#X obj 38 150 t b f;
#X obj 151 355 * 1.5708;
#X obj 151 382 cos;
#X obj 240 399 sin;
#X obj 129 464 *~;
#X obj 38 452 *~;
#X obj 240 447 line~;
#X obj 240 421 pack 0 10;
#X obj 151 435 line~;
#X obj 151 409 pack 0 10;
#X obj 167 333 hsl 128 15 0 1 0 0 empty empty empty -2 -8 0 10 -262144
-1 -1 0 1;
#X obj 38 503 *~ 1;
#X obj 38 220 f;
#X obj 38 127 + 36.4;
#X obj 103 516 * 20000;
#X obj 38 589 *~ 1;
#X obj 38 94 +;
#X obj 38 537 lop~ 20000;
#X obj 38 691 *~;
#X obj 118 691 *~;
#X obj 76 621 loadbang;
#N canvas 205 77 246 226 balance 0;
#X obj 36 51 * 1.5708;
#X obj 36 85 cos;
#X obj 125 85 sin;
#X obj 125 130 line~;
#X obj 125 106 pack 0 10;
#X obj 36 129 line~;
#X obj 36 106 pack 0 10;
#X obj 36 28 inlet;
#X obj 36 152 outlet~;
#X obj 125 152 outlet~;
#X floatatom 95 23 5 0 0 0 - - -, f 5;
#X connect 0 0 1 0;
#X connect 0 0 2 0;
#X connect 1 0 6 0;
#X connect 2 0 4 0;
#X connect 3 0 9 0;
#X connect 4 0 3 0;
#X connect 5 0 8 0;
#X connect 6 0 5 0;
#X connect 7 0 0 0;
#X restore 76 665 pd balance;
#X msg 76 643 0.5;
#X obj 38 713 outlet~;
#X obj 118 713 outlet~;
#X obj 119 221 r \$1-Osc-\$2-Wavetable;
#X obj 129 246 r \$1-Osc-\$2-Wavetable-A;
#X obj 219 266 r \$1-Osc-\$2-Wavetable-B;
#X obj 151 310 r \$1-Osc-\$2-Wt-position;
#X obj 103 494 r \$1-Osc-\$2-Intensity;
#X obj 53 70 r \$1-Osc-\$2-Pitch;
#X obj 110 642 r \$1-Osc-\$2-Filter-Balance;
#X obj 321 288 loadbang;
#X msg 321 310 0;
#X obj 59 563 r \$1-Osc-\$2-Amp;
#X obj 197 134 vsl 15 40 0 1 0 0 empty empty empty 0 -9 0 10 -262144
-1 -1 0 1;
#X text 187 115 Wt-pos;
#X obj 247 134 vsl 15 40 0 1 0 0 empty empty empty 0 -9 0 10 -262144
-1 -1 0 1;
#X obj 297 134 vsl 15 40 0 1 0 0 empty empty empty 0 -9 0 10 -262144
-1 -1 0 1;
#X text 228 115 Intensity;
#X text 294 115 Amp;
#X floatatom 154 132 5 0 0 0 - - -, f 5;
#X text 152 115 Pitch;
#X obj 344 134 vsl 15 40 0 1 0 0 empty empty empty 0 -9 0 10 -262144
-1 -1 0 1;
#X text 360 130 F1;
#X text 360 164 F2;
#X floatatom 212 163 5 0 0 0 - - -, f 5;
#X floatatom 262 163 5 0 0 0 - - -, f 5;
#X floatatom 312 163 5 0 0 0 - - -, f 5;
#X obj 38 272 wavetable A \$2;
#X obj 129 290 wavetable B \$2;
#X obj 344 182 swap 1;
#X obj 344 204 -;
#X obj 408 378 metro 500;
#N canvas 0 22 450 278 (subpatch) 0;
#X array \$0-array99 337 float 0;
#X coords 0 -0.5 336 0.5 200 100 1 0 0;
#X restore 333 443 graph;
#X obj 425 332 tgl 15 0 empty empty empty 17 7 0 10 -262144 -1 -1 1
1;
#X floatatom 464 350 5 0 0 0 - - -, f 5;
#X obj 371 406 tabwrite~ \$0-array99;
#X floatatom 72 241 5 0 0 0 - - -, f 5;
#X obj 25 67 bng 15 250 50 0 empty empty empty 17 7 0 10 -262144 -1
-1;
#X msg 93 137 36;
#X floatatom 80 111 5 0 0 0 - - -, f 5;
#N canvas 0 22 450 278 (subpatch) 0;
#X array \$0-array98 1000 float 0;
#X coords 0 1 999 -1 200 100 1 0 0;
#X restore 543 443 graph;
#X obj 560 419 tabwrite~ \$0-array98;
#X obj 577 375 phasor~;
#X msg 577 347 1;
#X obj 639 375 metro 500;
#X floatatom 682 344 5 0 0 0 - - -, f 5;
#X floatatom 688 313 5 0 0 0 - - -, f 5;
#N canvas 0 22 450 278 (subpatch) 0;
#X array \$0-array97 1000 float 0;
#X coords 0 2 999 0 200 100 1 0 0;
#X restore 543 443 graph;
#X obj 833 372 metro 500;
#X floatatom 889 344 5 0 0 0 - - -, f 5;
#X floatatom 793 308 5 0 0 0 - - -, f 5;
#X obj 835 528 tabwrite~ \$0-array97;
#X obj 784 375 osc~;
#X msg 650 280 0;
#X msg 784 347 40;
#X obj 784 397 abs~;
#X obj 751 232 bng 15 250 50 0 empty empty empty 17 7 0 10 -262144
-1 -1;
#X msg 841 310 0.25;
#X obj 588 266 * 80;
#X floatatom 600 292 5 0 0 0 - - -, f 5;
#X floatatom 622 227 5 0 0 0 - - -, f 5;
#X obj 837 401 *~ 80;
#X obj 776 604 tabwrite~ \$0-array96;
#N canvas 0 22 450 278 (subpatch) 0;
#X array \$0-array96 1000 float 0;
#X coords 0 1 999 -1 200 100 1 0 0;
#X restore 514 581 graph;
#X obj 775 527 *~;
#X obj 732 333 / 2;
#X obj 204 601 dac~;
#X obj 203 581 *~ 1;
#X obj 224 557 tgl 15 0 empty empty empty 17 7 0 10 -262144 -1 -1 1
1;
#X obj 778 560 *~ 1;
#X obj 784 419 *~ -1;
#X obj 479 246 pow~ 2;
#X obj 509 201 sig~ 2;
#X floatatom 512 172 5 0 0 0 - - -, f 5;
#X floatatom 859 421 5 0 0 0 - - -, f 5;
#X obj 82 298 *~ 2;
#X obj 784 441 +~ 2;
#X obj 784 463 *~ 0.5;
#X connect 1 0 16 0;
#X connect 2 0 1 1;
#X connect 3 0 1 0;
#X connect 4 0 3 0;
#X connect 4 1 2 0;
#X connect 5 0 6 0;
#X connect 5 0 7 0;
#X connect 6 0 13 0;
#X connect 7 0 11 0;
#X connect 8 0 15 0;
#X connect 9 0 15 0;
#X connect 10 0 8 1;
#X connect 11 0 10 0;
#X connect 12 0 9 1;
#X connect 13 0 12 0;
#X connect 14 0 5 0;
#X connect 15 0 21 0;
#X connect 16 0 54 0;
#X connect 16 0 62 0;
#X connect 17 0 4 0;
#X connect 18 0 21 1;
#X connect 19 0 22 0;
#X connect 19 0 23 0;
#X connect 20 0 17 0;
#X connect 21 0 19 0;
#X connect 22 0 27 0;
#X connect 23 0 28 0;
#X connect 24 0 26 0;
#X connect 25 0 22 1;
#X connect 25 1 23 1;
#X connect 26 0 25 0;
#X connect 29 0 53 2;
#X connect 29 0 54 1;
#X connect 30 0 53 2;
#X connect 31 0 54 1;
#X connect 32 0 5 0;
#X connect 33 0 18 0;
#X connect 34 0 20 1;
#X connect 35 0 25 0;
#X connect 36 0 37 0;
#X connect 37 0 5 0;
#X connect 38 0 19 1;
#X connect 39 0 5 0;
#X connect 39 0 50 0;
#X connect 41 0 18 0;
#X connect 41 0 51 0;
#X connect 42 0 19 1;
#X connect 42 0 52 0;
#X connect 45 0 20 1;
#X connect 47 0 55 0;
#X connect 53 0 9 0;
#X connect 53 0 93 0;
#X connect 53 0 101 0;
#X connect 54 0 8 0;
#X connect 55 0 56 0;
#X connect 55 1 56 1;
#X connect 56 0 25 0;
#X connect 57 0 61 0;
#X connect 59 0 57 0;
#X connect 59 0 70 0;
#X connect 59 0 74 0;
#X connect 60 0 57 1;
#X connect 63 0 20 0;
#X connect 64 0 4 0;
#X connect 65 0 4 0;
#X connect 68 0 97 0;
#X connect 69 0 68 0;
#X connect 70 0 67 0;
#X connect 70 0 88 0;
#X connect 71 0 70 1;
#X connect 71 0 74 1;
#X connect 72 0 68 0;
#X connect 72 0 91 0;
#X connect 72 0 82 0;
#X connect 74 0 77 0;
#X connect 75 0 74 1;
#X connect 76 0 78 0;
#X connect 78 0 81 0;
#X connect 79 0 68 1;
#X connect 80 0 78 0;
#X connect 81 0 96 0;
#X connect 82 0 79 0;
#X connect 82 0 83 0;
#X connect 83 0 78 1;
#X connect 84 0 68 0;
#X connect 84 0 85 0;
#X connect 86 0 84 1;
#X connect 90 0 95 0;
#X connect 91 0 78 0;
#X connect 93 0 92 0;
#X connect 93 0 92 1;
#X connect 94 0 93 1;
#X connect 95 0 88 0;
#X connect 95 0 53 1;
#X connect 96 0 102 0;
#X connect 97 0 67 0;
#X connect 97 0 90 0;
#X connect 98 0 97 1;
#X connect 99 0 98 0;
#X connect 100 0 96 1;
#X connect 101 0 61 0;
#X connect 102 0 103 0;
#X connect 103 0 77 0;
#X connect 103 0 90 1;
#X coords 0 -1 1 1 228 80 1 150 100;
