#N canvas 547 95 427 378 10;
#X msg 142 151 freq \$1;
#X msg 218 151 q \$1;
#X obj 61 51 inlet~;
#X obj 61 298 outlet~;
#X obj 258 36 inlet;
#X msg 263 171 dry 0;
#X obj 263 149 loadbang;
#X obj 258 62 u_dispatch \$0 Q;
#X obj 258 84 u_dispatch \$0 Freq;
#X obj 142 126 r \$0-Freq;
#X obj 218 127 r \$0-Q;
#X obj 61 273 *~ 1;
#X obj 258 106 u_dispatch \$0-Amp;
#X obj 82 249 r \$0-Amp;
#X obj 61 203 e_reship;
#X connect 0 0 14 1;
#X connect 1 0 14 2;
#X connect 2 0 14 0;
#X connect 4 0 7 0;
#X connect 6 0 5 0;
#X connect 7 0 8 0;
#X connect 8 0 12 0;
#X connect 9 0 0 0;
#X connect 10 0 1 0;
#X connect 11 0 3 0;
#X connect 13 0 11 1;
#X connect 14 0 11 0;
