#N canvas 491 22 487 831 10;
#X obj 38 40 inlet;
#X obj 38 197 pow -12;
#X obj 77 174 / 12;
#X msg 38 174 2;
#X obj 38 150 t b f;
#X obj 151 435 * 1.5708;
#X obj 151 462 cos;
#X obj 240 479 sin;
#X obj 129 544 *~;
#X obj 38 532 *~;
#X obj 240 527 line~;
#X obj 240 501 pack 0 10;
#X obj 151 515 line~;
#X obj 151 489 pack 0 10;
#X obj 167 413 hsl 128 15 0 1 0 0 empty empty empty -2 -8 0 10 -262144
-1 -1 0 1;
#X obj 38 583 *~ 1;
#X obj 38 220 f;
#X obj 38 127 + 36.4;
#X obj 103 596 * 20000;
#X obj 38 669 *~ 1;
#X obj 38 94 +;
#X obj 38 617 lop~ 20000;
#X obj 38 771 *~;
#X obj 118 771 *~;
#X obj 76 701 loadbang;
#N canvas 205 77 246 226 balance 0;
#X obj 36 51 * 1.5708;
#X obj 36 85 cos;
#X obj 125 85 sin;
#X obj 125 130 line~;
#X obj 125 106 pack 0 10;
#X obj 36 129 line~;
#X obj 36 106 pack 0 10;
#X obj 36 28 inlet;
#X obj 36 152 outlet~;
#X obj 125 152 outlet~;
#X floatatom 95 23 5 0 0 0 - - -, f 5;
#X connect 0 0 1 0;
#X connect 0 0 2 0;
#X connect 1 0 6 0;
#X connect 2 0 4 0;
#X connect 3 0 9 0;
#X connect 4 0 3 0;
#X connect 5 0 8 0;
#X connect 6 0 5 0;
#X connect 7 0 0 0;
#X restore 76 745 pd balance;
#X msg 76 723 0.5;
#X obj 38 793 outlet~;
#X obj 118 793 outlet~;
#X obj 119 301 r \$1-Osc-\$2-Wavetable;
#X obj 129 326 r \$1-Osc-\$2-Wavetable-A;
#X obj 219 346 r \$1-Osc-\$2-Wavetable-B;
#X obj 151 390 r \$1-Osc-\$2-Wt-position;
#X obj 53 70 r \$1-Osc-\$2-Pitch;
#X obj 110 722 r \$1-Osc-\$2-Filter-Balance;
#X obj 321 368 loadbang;
#X msg 321 390 0;
#X obj 59 643 r \$1-Osc-\$2-Amp;
#X obj 197 134 vsl 15 40 0 1 0 0 empty empty empty 0 -9 0 10 -262144
-1 -1 0 1;
#X text 187 115 Wt-pos;
#X obj 247 134 vsl 15 40 0 1 0 0 empty empty empty 0 -9 0 10 -262144
-1 -1 0 1;
#X obj 297 134 vsl 15 40 0 1 0 0 empty empty empty 0 -9 0 10 -262144
-1 -1 0 1;
#X text 228 115 Intensity;
#X text 294 115 Amp;
#X floatatom 154 132 5 0 0 0 - - -, f 5;
#X text 152 115 Pitch;
#X obj 344 134 vsl 15 40 0 1 0 0 empty empty empty 0 -9 0 10 -262144
-1 -1 0 1;
#X text 360 130 F1;
#X text 360 164 F2;
#X floatatom 212 163 5 0 0 0 - - -, f 5;
#X floatatom 262 163 5 0 0 0 - - -, f 5;
#X floatatom 312 163 5 0 0 0 - - -, f 5;
#X obj 38 352 wavetable A \$2;
#X obj 344 182 swap 1;
#X obj 344 204 -;
#X obj 25 67 bng 15 250 50 0 empty empty empty 17 7 0 10 -262144 -1
-1;
#X msg 93 137 36;
#X floatatom 80 111 5 0 0 0 - - -, f 5;
#X obj 103 574 r \$1-Osc-\$2-Intensity-Spectrum;
#N canvas 0 22 530 393 intensity 0;
#X obj 34 146 phasor~;
#X obj 260 99 osc~;
#X obj 260 121 abs~;
#X obj 44 318 *~;
#X obj 44 292 pow~ 2;
#X obj 77 268 sig~ 2;
#X obj 260 165 +~ 2;
#X obj 260 187 *~ 0.5;
#X obj 34 22 inlet;
#X obj 34 340 outlet~;
#X obj 260 74 /~ 2;
#X obj 34 44 sig~;
#X obj 77 199 r \$1-Osc-\$2-Intensity-Bend-A;
#X obj 304 51 r \$1-Osc-\$2-Intensity-Bend-B;
#X obj 77 221 moses 0.5;
#X obj 77 243 + 0.5;
#X obj 128 242 * 2;
#X obj 304 73 * 5;
#X obj 304 95 - 2.5;
#X obj 83 15 r Osc-\$2-Phase;
#X obj 94 40 + 0.25;
#X obj 304 117 sig~;
#X obj 260 143 *~;
#X connect 0 0 9 0;
#X connect 1 0 2 0;
#X connect 2 0 22 0;
#X connect 3 0 9 0;
#X connect 4 0 3 0;
#X connect 5 0 4 1;
#X connect 6 0 7 0;
#X connect 7 0 3 1;
#X connect 8 0 11 0;
#X connect 10 0 1 0;
#X connect 11 0 10 0;
#X connect 11 0 0 0;
#X connect 12 0 14 0;
#X connect 13 0 17 0;
#X connect 14 0 15 0;
#X connect 14 1 16 0;
#X connect 15 0 5 0;
#X connect 16 0 5 0;
#X connect 17 0 18 0;
#X connect 18 0 21 0;
#X connect 19 0 20 0;
#X connect 19 0 0 1;
#X connect 20 0 1 1;
#X connect 21 0 22 1;
#X connect 22 0 6 0;
#X restore 38 267 pd intensity;
#X obj 129 370 wavetable B \$2;
#X text 177 461 Simple crossfade between wavetable pairs;
#X text 109 616 Really simple use of a filter for Intensity when in
Spectrum mode;
#X text 145 746 Filter 1 or Filter 2?;
#X text 119 268 Intensity for Bend modes;
#X connect 0 0 20 0;
#X connect 1 0 16 0;
#X connect 2 0 1 1;
#X connect 3 0 1 0;
#X connect 4 0 3 0;
#X connect 4 1 2 0;
#X connect 5 0 6 0;
#X connect 5 0 7 0;
#X connect 6 0 13 0;
#X connect 7 0 11 0;
#X connect 8 0 15 0;
#X connect 9 0 15 0;
#X connect 10 0 8 1;
#X connect 11 0 10 0;
#X connect 12 0 9 1;
#X connect 13 0 12 0;
#X connect 14 0 5 0;
#X connect 15 0 21 0;
#X connect 16 0 59 0;
#X connect 17 0 4 0;
#X connect 18 0 21 1;
#X connect 19 0 22 0;
#X connect 19 0 23 0;
#X connect 20 0 17 0;
#X connect 21 0 19 0;
#X connect 22 0 27 0;
#X connect 23 0 28 0;
#X connect 24 0 26 0;
#X connect 25 0 22 1;
#X connect 25 1 23 1;
#X connect 26 0 25 0;
#X connect 29 0 52 1;
#X connect 29 0 60 1;
#X connect 30 0 52 1;
#X connect 31 0 60 1;
#X connect 32 0 5 0;
#X connect 33 0 20 1;
#X connect 34 0 25 0;
#X connect 35 0 36 0;
#X connect 36 0 5 0;
#X connect 37 0 19 1;
#X connect 38 0 5 0;
#X connect 38 0 49 0;
#X connect 40 0 18 0;
#X connect 40 0 50 0;
#X connect 41 0 19 1;
#X connect 41 0 51 0;
#X connect 44 0 20 1;
#X connect 46 0 53 0;
#X connect 52 0 9 0;
#X connect 53 0 54 0;
#X connect 53 1 54 1;
#X connect 54 0 25 0;
#X connect 55 0 20 0;
#X connect 56 0 4 0;
#X connect 57 0 4 0;
#X connect 58 0 18 0;
#X connect 59 0 52 0;
#X connect 59 0 60 0;
#X connect 60 0 8 0;
#X coords 0 -1 1 1 228 80 1 150 100;
