#N canvas 285 546 427 358 10;
#X obj 61 206 e_reslop 20000;
#X msg 142 151 freq \$1;
#X msg 218 151 q \$1;
#X obj 61 51 inlet~;
#X obj 61 298 outlet~;
#X obj 258 36 inlet;
#X msg 263 171 dry 0;
#X obj 263 149 loadbang;
#X obj 258 62 u_dispatch \$0 Q;
#X obj 258 84 u_dispatch \$0 Freq;
#X obj 142 126 r \$0-Freq;
#X obj 218 127 r \$0-Q;
#X obj 61 273 *~ 1;
#X obj 82 249 r \$0-Amp;
#X msg 103 114 20000;
#X floatatom 187 195 5 0 0 0 - - -, f 5;
#X obj 258 106 u_dispatch \$0 Amp;
#X connect 0 0 12 0;
#X connect 1 0 0 1;
#X connect 2 0 0 1;
#X connect 3 0 0 0;
#X connect 5 0 8 0;
#X connect 6 0 0 1;
#X connect 7 0 6 0;
#X connect 8 0 9 0;
#X connect 9 0 16 0;
#X connect 10 0 1 0;
#X connect 10 0 15 0;
#X connect 11 0 2 0;
#X connect 12 0 4 0;
#X connect 13 0 12 1;
#X connect 14 0 1 0;
