#N canvas 202 22 510 258 10;
#X text 114 124 Wrapper for seq object (because it handles paths in
a very silly way);
#X obj 42 37 inlet playback;
#X obj 152 37 inlet loading;
#X obj 152 59 symbol;
#X msg 152 81 read \$1;
#X obj 42 191 pack f f;
#X obj 42 213 outlet;
#X obj 42 139 seq64;
#X obj 42 161 midiparse64 ----;
#X connect 1 0 7 0;
#X connect 2 0 3 0;
#X connect 3 0 4 0;
#X connect 4 0 7 0;
#X connect 5 0 6 0;
#X connect 7 0 8 0;
#X connect 8 0 5 0;
#X connect 8 1 5 1;
